<svg width="708" height="990" viewBox="0 0 708 990" fill="none" xmlns="http://www.w3.org/2000/svg">
<rect width="708" height="990" fill="#355FE5"/>
<g opacity="0.12">
<g clip-path="url(#clip0_6536_7942)">
<rect y="990" width="990" height="708" rx="16" transform="rotate(-90 0 990)" fill="#355FE5"/>
<path d="M306.132 782.113C279.676 788.637 272.804 842.54 264.558 905.027C262.497 920.477 260.435 936.27 258.03 951.72C247.379 1020.04 213.021 1082.53 179.693 1143.3C162.858 1173.51 146.022 1204.41 131.936 1236L134.684 1236C148.427 1204.76 165.263 1174.2 181.755 1144.33C215.082 1083.56 249.441 1020.73 260.435 952.063C262.84 936.613 264.902 920.477 266.963 905.37C274.522 846.317 282.081 790.697 306.819 784.517C326.059 779.71 355.264 804.773 396.494 861.423C453.872 940.733 480.671 1007.34 480.671 1071.2C480.671 1107.25 471.738 1143.3 453.872 1177.63C442.877 1198.92 429.478 1217.8 415.734 1236L418.826 1236C432.226 1218.15 445.282 1199.61 455.933 1178.66C473.8 1143.64 483.076 1107.59 483.076 1070.86C483.076 1006.65 456.277 939.703 398.555 859.707C355.951 801.34 326.746 776.963 306.132 782.113Z" fill="white"/>
<path d="M209.242 697.996C209.242 703.833 213.022 712.416 230.888 718.253C251.159 725.12 255.626 711.73 260.78 697.653C261.81 695.25 262.497 692.503 263.528 690.1C265.59 684.606 266.964 679.8 266.964 676.366C266.964 672.246 265.59 669.5 262.841 667.783C254.595 662.633 236.042 670.873 228.483 674.65C216.457 681.173 209.242 689.756 209.242 697.996ZM262.154 669.156C266.62 671.903 266.62 678.77 262.154 689.413C261.123 691.816 260.092 694.563 259.405 696.966C254.595 710.7 250.472 722.716 231.575 716.193C218.175 711.73 210.96 705.206 210.96 697.31C210.96 689.756 217.832 681.86 229.514 675.68C244.631 668.47 256.657 666.066 262.154 669.156Z" fill="white"/>
<path d="M425.011 1162.87C438.411 1136.78 444.595 1114.46 444.595 1093.17C444.595 1070.51 437.724 1050.6 429.821 1027.6C425.355 1014.55 420.201 999.444 416.078 982.621C414.016 974.037 413.673 966.484 413.673 961.677C413.673 958.244 413.673 955.154 414.017 952.064C414.017 949.317 414.36 946.571 414.36 943.824C414.36 929.747 410.924 918.76 394.776 906.744C383.781 898.504 375.192 895.414 367.633 892.667C356.295 888.547 347.362 885.457 334.649 867.604C331.213 863.14 328.808 856.617 326.403 850.094C322.28 839.794 318.844 831.211 313.003 830.867C308.193 830.524 303.039 836.017 296.168 848.377C288.265 862.797 287.235 883.741 287.235 902.281C287.235 910.521 287.578 919.104 287.578 927.344C287.922 935.584 287.922 944.511 287.922 952.751C287.922 971.291 286.548 984.337 283.799 994.637C267.994 1054.38 237.072 1110.34 209.929 1159.78C195.842 1185.53 182.099 1210.94 170.073 1236L172.135 1236C183.817 1211.28 197.56 1186.22 211.647 1160.47C238.79 1111.03 269.712 1054.72 285.86 994.981C288.609 984.337 289.983 971.291 289.983 952.407C289.983 944.167 289.64 935.241 289.64 927.001C289.296 918.761 289.296 910.177 289.296 901.937C289.296 883.741 290.327 863.141 298.229 849.064C304.414 837.734 309.224 832.241 313.347 832.584C318.157 832.927 321.593 841.511 325.029 850.781C327.434 857.304 330.182 863.827 333.618 868.634C346.674 886.83 356.295 890.264 367.289 894.384C374.848 897.131 383.094 900.221 394.089 908.117C409.894 919.791 412.986 930.434 412.986 943.824C412.986 946.571 412.986 949.317 412.642 952.064C412.642 955.154 412.299 958.244 412.299 961.677C412.299 966.484 412.642 974.381 414.704 982.964C418.827 999.787 423.98 1014.89 428.447 1027.94C436.349 1050.94 442.877 1070.86 442.877 1093.17C442.877 1114.46 436.693 1136.43 423.293 1162.18C411.268 1185.87 395.12 1207.16 379.315 1227.76C377.253 1230.51 374.848 1233.6 372.787 1236.34L374.848 1236.34C376.91 1233.94 378.628 1231.19 380.689 1228.79C396.837 1207.85 412.986 1186.56 425.011 1162.87Z" fill="white"/>
<path d="M394.089 1147.08C407.145 1121.67 413.33 1096.95 413.33 1070.86C413.33 1056.44 407.489 1025.19 397.525 998.07C388.935 974.38 374.505 945.883 355.264 945.883C332.588 945.883 319.875 989.83 312.317 1015.92C310.599 1021.76 309.224 1026.57 308.194 1030C291.015 1077.04 269.712 1123.73 240.508 1176.6C229.513 1196.86 218.519 1216.43 208.898 1236L209.929 1236C219.549 1216.77 230.544 1196.86 241.539 1176.95C270.4 1123.73 292.045 1077.04 309.224 1030C310.599 1026.57 311.973 1021.76 313.347 1015.92C320.906 989.83 333.275 946.57 355.264 946.57C388.592 946.57 412.299 1040.64 412.299 1070.86C412.299 1096.61 406.115 1121.33 393.058 1146.39C382.407 1167.33 366.946 1187.25 352.516 1206.82C345.3 1216.09 338.085 1225.7 330.87 1236L332.244 1236C339.116 1226.04 346.331 1216.77 353.203 1207.5C367.977 1187.93 383.438 1168.02 394.089 1147.08Z" fill="white"/>
<path d="M20.6149 626.583C13.7433 624.866 6.87163 623.15 -7.30639e-06 621.433L-7.23135e-06 623.15C6.52805 624.866 13.3997 626.24 20.2713 627.956C32.9839 631.046 46.04 634.48 59.7833 636.883C104.449 645.81 163.545 653.363 220.58 633.793C243.6 625.896 262.84 605.983 279.332 588.473C294.106 573.023 307.162 559.29 317.813 560.663C322.623 561.35 327.09 564.783 331.213 571.65C333.275 574.74 333.962 580.233 333.962 587.786C333.962 614.223 322.28 660.573 310.942 694.906C298.229 733.016 278.301 779.023 254.251 786.233C246.692 788.636 238.79 786.576 231.231 780.74C221.61 773.186 213.021 764.946 204.775 757.05C188.627 741.256 173.165 726.493 150.489 716.88C117.849 702.803 84.1776 701.086 49.8194 711.73C41.5734 714.133 33.671 716.88 27.143 719.283C17.1791 722.716 8.24597 725.463 0.343579 727.523L0.343579 729.24C8.58955 727.18 17.5227 724.09 27.8301 720.656C34.7018 718.253 42.2606 715.85 50.5066 713.103C84.5212 702.46 117.849 704.176 150.145 717.91C172.478 727.523 187.939 742.286 204.088 757.736C212.334 765.633 220.923 773.873 230.887 781.77C238.789 787.95 247.035 790.01 255.281 787.606C280.019 780.396 300.291 733.703 313.003 695.936C324.685 661.26 336.367 614.566 336.367 588.13C336.367 580.233 335.336 574.396 333.275 570.963C328.808 563.41 323.998 559.633 318.501 558.946C306.819 557.573 293.763 571.306 278.645 587.443C262.153 604.953 243.256 624.523 220.58 632.42C163.889 651.99 105.48 644.436 60.814 635.51C46.3836 633.106 33.3274 629.673 20.6149 626.583Z" fill="white"/>
<path d="M29.5479 797.907C102.731 774.217 142.586 764.947 176.601 823.314C182.098 832.927 186.221 843.914 188.626 855.587C190.688 865.544 191.719 876.874 191.719 888.547C191.719 997.041 101.013 1146.05 52.2243 1226.39L50.5064 1229.13C49.1321 1231.54 47.4142 1233.94 46.0398 1236.34L48.1013 1236.34C49.4756 1234.28 50.5064 1232.22 51.8807 1230.16L53.5986 1227.42C102.731 1146.73 193.78 997.384 193.78 888.204C193.78 876.187 192.749 865.2 190.344 854.901C187.939 842.884 183.473 831.897 177.975 821.941C143.617 762.544 103.074 772.157 28.8607 795.847C19.584 798.937 9.62011 802.027 -0.343769 804.774L-0.343769 806.834C10.3073 804.087 20.2712 800.997 29.5479 797.907Z" fill="white"/>
<path d="M19.2403 934.896C21.9889 934.209 25.0811 933.179 28.517 932.149C38.8244 929.059 45.6961 929.746 48.7883 933.866C50.5062 935.926 51.1934 939.016 51.1934 943.136C51.1934 959.959 36.0758 987.769 31.2656 997.039C28.8606 1001.5 27.1426 1004.94 25.7683 1007.68L18.8967 1021.76C12.7122 1034.81 6.18414 1047.17 -0.343918 1059.53L-0.343918 1061.59C6.52772 1048.88 13.0558 1035.49 19.5838 1022.1L26.4555 1008.03C27.8298 1005.28 29.5477 1002.19 31.9528 997.383C36.7629 988.113 51.8805 959.959 51.8805 943.136C51.8805 939.016 50.8498 935.583 49.1319 933.523C45.3525 929.059 38.1373 928.373 27.4862 931.463C24.0504 932.493 20.6146 933.523 18.2095 934.209C12.025 935.926 5.84055 937.643 -0.687505 939.016L-0.687505 940.046C6.52772 938.329 13.0558 936.613 19.2403 934.896Z" fill="white"/>
<path d="M40.1989 830.18C69.747 820.567 107.197 811.64 131.592 825.717C143.617 832.927 151.863 845.287 155.642 862.453C157.36 870.35 158.048 878.933 158.048 888.203C158.048 987.427 70.4342 1131.28 23.3634 1208.53L14.7739 1222.61C12.0252 1227.07 9.62013 1231.54 7.21505 1236L8.2458 1236C10.6509 1231.54 12.7124 1227.42 15.461 1223.3L24.0506 1208.88C71.1213 1131.63 158.735 987.427 158.735 888.203C158.735 878.59 158.048 870.007 156.33 862.11C152.55 844.6 144.304 831.897 131.935 824.687C106.854 810.267 69.4034 819.537 39.5118 829.15C26.7992 833.27 13.3995 837.39 -0.343767 840.823L-0.343767 841.853C13.7431 838.42 27.1428 834.3 40.1989 830.18Z" fill="white"/>
<path d="M13.0561 911.553C15.4612 910.866 18.2098 910.179 21.6457 909.149C38.1376 903.999 62.8755 896.789 74.2137 903.656C79.0239 906.403 81.7725 911.209 83.1468 917.046C83.834 919.449 83.834 922.196 83.834 924.943C83.834 950.006 63.5627 987.773 52.9116 1008.03C50.8501 1011.81 49.1322 1015.24 47.7579 1017.99L46.7271 1019.7C45.6964 1021.76 44.6657 1023.48 43.9785 1025.2L40.8863 1031.72C27.4866 1059.19 13.7433 1085.28 -9.00452e-08 1108.97L0 1111.03C14.0869 1086.65 27.8301 1060.22 41.5734 1032.06L44.6657 1025.54C45.3528 1023.82 46.3836 1022.11 47.4143 1020.05L48.4451 1018.33C49.8194 1015.93 51.5373 1012.49 53.5988 1008.37C64.5934 988.116 84.8648 950.349 84.8648 924.943C84.8648 921.853 84.5212 919.106 84.1776 916.703C82.8033 910.523 79.711 905.716 74.5573 902.626C62.8755 895.416 37.794 902.969 21.3021 908.119C17.8663 909.149 15.1176 909.836 12.7125 910.523C8.58954 911.553 4.12298 912.926 -8.61435e-06 913.956L-8.56933e-06 914.986C4.46656 913.956 8.58954 912.583 13.0561 911.553Z" fill="white"/>
<path d="M6.87163 888.202C25.0815 883.396 44.3221 878.246 63.5627 877.902C88.9877 877.216 103.418 887.172 106.51 907.086C106.854 910.176 107.198 913.266 107.198 916.699C107.198 951.719 82.1161 1001.5 68.7164 1028.28C67.3421 1031.03 66.3113 1033.43 65.2806 1035.49L62.1883 1042.02C41.917 1084.25 20.6149 1123.04 -9.00452e-08 1156L0 1158.06C20.9585 1124.42 42.6042 1085.28 63.2191 1042.7L66.3113 1036.18C67.3421 1034.12 68.7164 1031.72 69.7471 1028.97C83.1468 1002.19 108.228 952.062 108.228 916.699C108.228 913.266 107.885 909.832 107.541 906.742C104.105 886.142 89.3313 875.842 63.5627 876.529C43.9785 877.216 24.7379 882.022 6.52805 887.172C4.46655 887.859 2.06148 888.202 -1.17659e-05 888.889L-1.17209e-05 889.919C2.40506 889.576 4.46655 888.889 6.87163 888.202Z" fill="white"/>
<path d="M47.4141 853.183C49.132 852.84 50.5064 852.153 52.2243 851.81C69.0598 846.316 86.2389 840.48 102.731 849.75C116.818 857.303 127.812 872.753 131.592 889.233C131.935 890.95 132.279 892.666 132.279 894.383C132.622 898.503 132.966 902.623 132.966 907.086C132.966 953.093 106.51 1007.34 86.9261 1046.82L83.8338 1053.35C59.0959 1104.16 29.2043 1152.91 2.74849 1196.17C1.71774 1197.89 0.686996 1199.61 -0.34375 1200.98L-0.34375 1202.7C1.71774 1199.61 3.43565 1196.52 3.43565 1196.52C29.8915 1153.26 59.4395 1104.16 84.521 1053.35L87.6132 1046.82C107.197 1007.34 133.653 953.093 133.653 906.743C133.653 902.28 133.31 898.16 132.966 894.04C132.622 892.323 132.622 890.606 132.279 888.89C128.499 872.41 117.161 856.616 103.074 848.72C85.8953 839.45 68.3726 844.943 51.5371 850.78C49.8192 851.466 48.4449 851.81 46.727 852.153C31.6094 856.96 15.8046 861.766 -0.343765 865.543L-0.343765 866.573C16.4918 862.796 32.2965 857.99 47.4141 853.183Z" fill="white"/>
<path d="M692.317 874.47C680.636 882.71 678.918 889.92 677.543 897.13C676.513 902.28 675.138 907.774 670.672 913.954L669.985 914.297C650.4 931.807 586.494 990.517 586.494 1010.43C586.494 1012.83 587.181 1014.55 588.899 1015.92C592.335 1018.67 599.207 1018.33 610.201 1015.58C616.729 1013.86 625.663 997.04 634.939 979.53C642.842 964.767 651.088 949.66 656.928 944.51C662.426 940.047 669.985 933.867 672.733 934.21C673.42 934.21 673.764 935.24 674.451 936.614C675.826 939.704 678.231 944.167 689.225 941.764C696.784 940.047 703.999 935.584 711.214 930.777C718.086 926.657 724.271 922.537 730.455 921.164C747.291 916.7 778.213 944.51 798.828 962.707C805.7 968.887 811.54 974.037 816.007 977.127C833.873 990.517 850.022 1007 865.826 1023.13C896.749 1054.38 928.702 1086.65 972.681 1097.98C1038.65 1115.83 1096.71 1119.27 1145.5 1108.97C1171.61 1103.47 1207.69 1084.59 1207.69 1066.05C1207.69 1054.72 1193.95 1046.14 1166.8 1041.33C1062.36 1022.1 1027.65 969.574 993.983 919.104C964.091 874.127 935.917 831.554 863.078 813.357C835.591 806.49 792.987 817.134 769.623 830.867C759.316 837.047 753.132 844.6 747.634 852.154C742.48 858.677 738.014 864.857 730.455 869.664C724.958 873.097 718.773 872.41 712.245 871.724C705.374 871.037 698.502 870.35 692.317 874.47ZM731.486 871.724C739.388 866.574 744.198 860.394 749.352 853.527C754.849 846.317 760.69 838.764 770.654 832.927C793.674 819.537 835.248 808.894 862.391 815.76C934.543 833.957 962.373 875.844 991.921 920.477C1025.94 971.634 1060.98 1024.51 1166.46 1043.73C1191.89 1048.54 1205.29 1056.09 1205.29 1066.05C1205.29 1081.5 1172.65 1100.73 1144.82 1106.56C1096.37 1116.86 1038.65 1113.43 973.368 1096.61C930.076 1085.28 898.467 1053.35 867.544 1022.45C851.74 1006.31 835.248 989.487 817.381 976.097C812.915 973.007 807.074 967.514 800.546 961.677C778.213 941.764 747.978 914.984 729.768 919.447C723.24 921.164 716.712 925.284 709.84 929.404C702.969 933.867 695.41 938.33 688.538 940.047C679.605 942.107 677.887 939.017 676.513 935.927C675.825 934.21 674.795 932.837 673.077 932.494C670.672 931.807 666.549 933.524 655.211 943.137C648.683 948.63 640.437 964.08 632.534 978.844C624.288 994.294 614.668 1012.15 609.171 1013.52C596.802 1016.95 591.991 1015.92 589.93 1014.21C588.899 1013.52 588.556 1012.15 588.556 1010.77C588.556 995.667 631.16 952.064 671.359 916.357C671.702 916.014 672.046 915.67 672.046 915.67C677.2 908.804 678.231 902.967 679.605 897.817C681.323 890.607 682.697 884.084 693.692 876.53C698.845 872.754 705.374 873.44 711.902 874.127C718.773 874.814 725.645 875.5 731.486 871.724Z" fill="white"/>
<path d="M469.332 1236C534.957 1120.3 639.062 995.324 690.943 972.664C722.209 958.93 759.316 992.234 806.386 1034.12C859.985 1081.84 926.64 1140.9 1006.35 1144.67C1103.93 1149.14 1143.78 1197.55 1155.81 1236.34L1158.21 1236.34C1146.19 1196.86 1105.65 1147.08 1006.35 1142.61C927.327 1138.84 861.016 1080.13 807.761 1032.75C760.003 990.174 722.209 956.87 689.912 970.947C638.031 993.264 532.551 1119.27 466.927 1236L469.332 1236Z" fill="white"/>
<path d="M0.343578 652.677C-4.39494e-06 652.677 -4.39494e-06 652.677 0.343578 652.677L-4.33491e-06 654.05C2.40507 656.11 4.81014 658.513 8.24596 659.887C18.2098 664.007 28.8609 662.977 38.8248 661.603C44.3221 660.917 50.163 660.23 56.0039 660.573C64.937 660.917 74.2137 662.977 83.1468 664.693C90.7056 666.067 98.2644 667.783 105.823 668.47C151.176 672.933 192.406 668.813 227.795 656.453C235.01 654.05 246.692 644.093 258.717 633.45C274.178 620.06 289.983 605.983 299.603 605.64C301.665 605.64 303.383 605.983 304.757 607.357C308.537 611.133 309.224 620.747 306.819 636.197C305.101 647.527 300.291 658.513 295.824 669.157C293.075 675.337 290.327 681.517 288.265 688.04C287.578 689.757 286.891 691.817 286.547 693.533C278.989 716.193 268.681 747.78 250.471 752.243C241.882 754.303 231.918 750.183 221.267 739.883C204.088 723.403 186.565 706.58 159.766 694.907C133.997 683.92 84.1776 671.217 57.0346 676.023C51.5373 677.053 47.7579 679.457 43.9785 681.517C39.1683 684.607 34.7018 687.353 26.4558 685.98C20.2713 684.95 16.8355 682.547 13.7433 680.487C9.96387 678.083 6.52805 675.68 -3.35942e-06 676.367L-3.3144e-06 677.397C6.18447 676.71 9.27671 678.77 13.0561 681.173C16.1483 683.233 19.9278 685.637 26.4558 686.667C35.0454 688.04 39.8555 684.95 45.0092 681.86C48.4451 679.8 52.2245 677.397 57.3782 676.367C84.1776 671.56 133.997 684.263 159.422 695.25C185.878 706.58 203.401 723.403 220.58 739.883C231.574 750.527 241.882 754.99 250.815 752.587C269.368 748.123 280.019 716.537 287.578 693.19C288.265 691.13 288.952 689.413 289.296 687.697C291.357 681.517 294.106 674.993 296.855 668.813C301.321 658.17 306.132 647.183 308.193 635.853C309.224 629.673 309.567 624.523 309.567 620.06C309.567 612.85 308.193 608.387 305.788 605.983C304.414 604.61 302.352 603.923 299.947 603.923C289.983 604.61 273.835 618.687 258.374 632.077C246.348 642.377 235.01 652.333 227.795 654.737C192.406 667.097 151.52 670.873 106.167 666.41C98.608 665.723 91.0492 664.35 83.834 662.633C74.9009 660.917 65.6241 659.2 56.3474 658.513C50.5065 658.17 44.6656 658.857 39.1683 659.543C28.8609 660.917 18.897 661.947 9.27671 657.827C5.15373 657.483 2.40507 655.08 0.343578 652.677Z" fill="white"/>
<path d="M19.2406 765.29C86.9262 743.66 157.017 721 206.149 805.803C213.364 818.507 218.862 832.583 222.298 848.033C225.046 860.393 226.421 873.783 226.421 887.86C226.077 1002.88 140.869 1146.39 86.2391 1236L88.9877 1236C143.617 1146.39 228.482 1003.22 228.482 888.203C228.482 873.783 227.108 860.393 224.359 847.69C220.923 832.24 215.426 817.477 208.211 804.773C158.048 718.253 87.2698 740.913 18.5534 762.887C12.3689 764.947 6.18446 767.007 -2.04253e-05 768.723L-2.03203e-05 771.127C6.52804 769.41 12.7125 767.35 19.2406 765.29Z" fill="white"/>
<path d="M3.43565 1001.85C6.52789 995.326 10.9945 986.742 10.9945 978.846C10.9945 975.412 10.3073 972.666 8.58938 970.262C8.58938 969.919 8.2458 969.919 8.2458 969.576C6.18431 967.172 3.43565 965.799 -0.000169827 964.769L-0.000169752 966.486C2.74849 967.516 5.15356 968.889 6.87147 970.949L7.21505 971.292C8.58938 973.352 9.27655 975.756 9.27655 978.846C9.27655 986.056 4.80998 994.982 1.71774 1001.16C1.37416 1002.19 0.686996 1002.88 0.343414 1003.91C0.343414 1003.91 -0.000168101 1004.25 -0.34375 1004.94L-0.34375 1008.72L1.71774 1004.6C2.40491 1003.57 3.09207 1002.88 3.43565 1001.85Z" fill="white"/>
<path d="M1204.6 540.409C1199.44 494.745 1146.53 445.992 1101.87 445.305C1033.15 444.275 978.521 483.759 925.61 521.869C916.676 528.392 907.4 534.916 898.123 541.439L892.626 545.216C866.857 563.069 837.309 583.326 805.699 590.192C778.9 595.686 716.368 604.269 694.722 594.999C678.918 588.132 669.985 568.906 661.051 550.022C654.867 536.976 649.37 524.616 641.467 516.032L641.124 515.689C614.324 486.162 614.324 486.162 613.637 466.249C613.294 460.069 613.293 452.515 612.263 441.872C610.888 427.452 608.827 419.212 607.453 413.032C606.422 409.255 605.735 406.166 605.735 403.762C605.735 397.582 610.201 392.432 624.632 375.265C667.579 324.452 742.137 325.482 814.289 326.512C904.995 327.542 999.136 328.915 1028.68 226.259C1032.81 211.495 1035.21 197.075 1035.21 183.342C1035.21 144.889 1018.03 111.929 985.393 88.2388C937.635 53.5621 862.734 44.2921 799.171 65.2354C652.805 113.645 569.315 229.005 489.604 353.292C417.108 466.249 397.18 573.712 384.124 665.382C383.094 671.906 382.75 678.429 382.75 684.266C382.75 721.689 401.647 739.199 425.698 761.516C434.974 770.099 444.251 779.026 454.215 790.012C465.21 802.716 472.768 818.852 480.327 834.302C492.353 859.709 503.691 883.399 528.772 893.356C582.028 914.299 623.945 862.799 660.708 817.479C677.543 796.536 693.692 776.622 709.84 764.949C773.403 718.599 880.944 732.676 941.071 774.562C959.968 787.609 983.331 812.672 1007.73 839.109C1048.61 883.056 1094.65 932.839 1133.82 941.766C1152.03 945.886 1164.74 944.856 1172.99 938.332C1179.52 933.182 1182.95 923.912 1182.95 910.866C1182.95 889.236 1174.02 858.336 1164.74 825.719C1153.06 785.549 1140 740.229 1140 701.776C1140 683.236 1142.75 668.129 1148.94 655.082C1155.81 640.319 1165.43 627.616 1175.05 615.256C1190.85 594.999 1205.63 576.116 1205.63 549.336C1204.94 546.246 1204.94 543.499 1204.6 540.409ZM1146.88 654.396C1141.04 667.442 1137.94 683.236 1137.94 701.776C1137.94 740.572 1151 786.236 1162.68 826.406C1171.96 859.022 1180.89 889.922 1180.89 911.209C1180.89 923.912 1177.8 932.152 1171.61 937.302C1164.06 943.482 1151.69 944.169 1134.16 940.392C1095.68 931.809 1049.64 882.026 1009.1 838.422C984.362 811.986 960.999 786.579 942.102 773.532C881.288 731.302 773.059 717.569 708.809 763.919C692.661 775.592 676.513 795.506 659.333 816.792C622.914 861.769 581.684 912.926 529.46 892.326C505.065 882.712 493.727 859.022 482.045 833.959C474.486 818.166 466.928 802.029 455.589 789.326C445.969 778.339 436.349 769.412 427.072 760.829C403.365 738.856 384.811 721.346 384.811 684.609C384.811 678.772 385.155 672.592 386.186 666.069C399.242 574.399 419.17 466.935 491.322 354.665C570.689 230.722 654.18 115.705 800.202 67.6388C863.078 47.0388 937.291 55.9654 984.706 90.2987C1017 113.645 1033.84 145.919 1033.84 184.029C1033.84 197.419 1031.78 211.839 1027.31 226.259C1014.25 271.922 987.111 300.419 944.507 314.152C906.369 326.512 859.642 325.825 814.289 325.139C741.793 324.109 666.549 323.422 623.257 374.579C602.642 398.955 602.299 399.642 605.735 413.719C607.109 419.899 609.171 428.139 610.545 442.559C611.576 453.202 611.919 460.755 611.919 466.592C612.606 487.192 612.606 487.192 639.749 517.406L640.093 517.749C647.652 526.332 653.493 538.349 659.333 551.052C668.267 570.279 677.543 589.849 693.692 597.059C715.681 606.672 778.556 598.089 805.699 592.252C837.653 585.729 867.201 565.129 892.969 547.275L898.467 543.499C907.743 537.319 917.02 530.452 925.953 523.929C978.865 485.819 1033.15 446.679 1101.18 447.709C1145.16 448.395 1197.04 496.462 1202.19 541.096C1202.54 543.842 1202.54 546.932 1202.54 549.679C1202.54 576.116 1187.76 594.656 1172.3 614.569C1163.71 626.586 1153.75 639.289 1146.88 654.396Z" fill="white"/>
<path d="M18.2098 104.032C36.4197 98.5383 46.3836 60.4284 46.3836 36.0517C46.3836 1.03171 39.5119 -35.3617 32.2967 -74.1583C24.7379 -113.298 17.1791 -153.812 17.1791 -193.295C17.1791 -236.555 26.4558 -272.605 45.3528 -303.848C46.3836 -305.565 47.4143 -307.282 48.4451 -308.998L46.3836 -308.998C45.3528 -307.625 44.6656 -306.252 43.6349 -304.878C24.3943 -273.292 15.1176 -236.898 15.1176 -193.295C15.1176 -153.812 22.6764 -113.298 30.2352 -74.1583C37.4504 -35.3617 44.3221 1.03168 44.3221 35.7083C44.3221 60.085 34.0146 97.165 17.5227 102.315C12.0254 104.032 6.18448 101.972 -3.58303e-07 96.4784L-2.53253e-07 98.8817C6.18448 104.032 12.369 105.748 18.2098 104.032Z" fill="white"/>
<path d="M137.089 -185.4C137.089 -180.937 137.089 -176.473 137.089 -172.353C137.089 -168.233 137.089 -164.113 137.089 -159.993C137.089 -136.647 138.463 -118.107 144.648 -97.5065C148.083 -86.8632 152.894 -76.5632 158.047 -66.9499C166.293 -50.8132 174.196 -35.3632 174.196 -16.8232C174.196 -13.7332 173.852 -10.6433 173.509 -7.55332C171.447 5.8367 163.545 16.1367 155.986 26.0934C147.396 37.0801 139.15 47.38 139.15 62.1434C139.15 63.5167 139.15 64.89 139.494 66.2633C140.525 75.19 148.427 89.61 156.329 103.687C161.483 112.613 166.293 121.197 168.355 127.033C171.447 135.617 173.165 142.483 174.196 147.29C177.632 161.71 179.006 163.427 205.462 170.637C212.677 172.697 219.549 174.07 226.42 175.443C251.158 180.593 270.399 184.37 289.296 210.807C301.665 228.66 307.849 250.977 307.849 279.473C307.849 307.627 302.008 337.153 296.855 363.247C294.106 376.98 291.701 389.683 290.67 399.297C289.983 404.79 289.639 413.373 289.639 422.3C289.639 447.363 298.916 476.89 311.972 478.95C318.157 479.98 327.777 475.173 337.054 445.99L338.084 442.9C373.473 332.69 419.513 256.127 497.163 177.847C518.465 156.217 528.429 139.737 528.429 126.003C528.429 122.913 527.742 119.48 526.711 116.733C521.214 101.97 502.66 91.3267 481.358 78.9667C470.363 72.4433 457.651 65.2334 445.626 56.65C387.217 15.1067 344.269 -44.2899 325.372 -110.897C319.874 -130.467 316.782 -149.693 316.782 -167.89C316.782 -227.287 345.987 -269.173 375.878 -308.657L373.817 -308.657C343.925 -269.173 315.408 -227.287 315.408 -167.89C315.408 -149.693 318.157 -130.123 323.997 -110.553C343.238 -43.6033 386.186 16.1367 444.938 58.0233C456.964 66.6066 469.676 73.8167 480.671 80.34C501.973 92.7 520.183 103 525.337 117.077C526.367 119.823 527.054 122.913 527.054 126.003C527.054 139.393 517.091 155.53 496.132 176.473C418.139 254.753 372.099 331.66 336.366 442.213L335.336 445.303C328.464 466.933 320.218 478.263 312.316 476.89C301.321 475.173 291.357 449.08 291.357 421.957C291.357 413.373 291.701 404.79 292.388 399.297C293.419 389.683 295.824 376.98 298.572 363.247C303.726 337.153 309.911 307.283 309.911 279.13C309.911 250.29 303.726 227.287 291.014 209.433C272.117 182.653 252.189 178.533 227.107 173.383C220.579 172.01 213.708 170.637 206.492 168.577C180.037 161.71 179.693 160.337 176.257 146.603C175.226 141.797 173.509 135.273 170.416 126.347C168.011 120.167 163.201 111.583 158.391 102.657C150.832 89.61 142.586 74.5034 141.555 65.9201C141.555 64.5467 141.212 63.1734 141.212 62.1434C141.212 48.0667 149.114 37.7667 157.704 27.1234C165.606 17.1667 173.852 6.8667 175.914 -7.20996C176.257 -10.3 176.601 -13.3899 176.601 -16.4799C176.601 -35.3632 168.355 -51.4999 160.452 -67.2933C155.642 -76.9066 150.489 -86.8632 147.053 -97.5065C140.868 -117.763 139.494 -136.303 139.494 -159.65C139.494 -163.77 139.494 -167.89 139.494 -172.01C139.494 -176.473 139.494 -180.593 139.494 -185.4C139.494 -206.343 141.899 -225.227 147.053 -242.737C153.581 -265.053 162.17 -287.026 172.821 -308.656L170.76 -308.656C160.452 -287.026 151.863 -265.053 145.335 -243.08C139.837 -225.57 137.089 -206.687 137.089 -185.4Z" fill="white"/>
<path d="M53.2554 141.454C71.8088 111.928 81.0855 77.2509 81.0855 35.7076C81.0855 -2.40241 73.5267 -42.2291 66.3115 -81.0258C59.0963 -118.449 51.881 -157.246 51.881 -193.639C51.881 -230.376 59.4398 -260.589 75.2446 -286.339C77.9933 -290.802 80.7419 -295.609 83.8342 -300.416C85.5521 -303.506 87.27 -306.253 89.3315 -309.343L86.5828 -309.343C84.8649 -306.596 83.4906 -304.192 81.7727 -301.789C78.6804 -296.982 75.9318 -292.176 73.1831 -287.712C57.3783 -261.619 49.476 -230.719 49.476 -193.639C49.476 -157.246 56.6912 -118.449 63.9064 -80.6824C71.1216 -42.2291 78.6804 -2.40244 78.6804 35.3642C78.6804 76.2209 69.7473 110.554 51.5375 139.738C39.1685 159.308 26.1124 168.921 13.0563 167.891C8.9333 167.548 4.46673 166.174 0.34375 163.771L0.34375 166.518C4.46673 168.578 8.58972 169.951 12.7127 170.294C26.7996 171.668 40.5428 162.054 53.2554 141.454Z" fill="white"/>
<path d="M171.79 -185.4C171.79 -156.56 176.944 -125.66 182.441 -93.3866C188.626 -56.6499 195.154 -18.8832 195.154 21.6301C195.154 24.3768 195.154 27.4668 195.154 30.2134C194.81 44.2901 192.405 55.9634 190.343 66.6068C188.626 75.5334 186.908 83.4301 186.908 90.9835C186.908 108.837 196.184 121.883 219.204 136.304C230.199 143.17 243.599 148.32 256.311 153.127C278.988 161.71 302.351 170.637 316.438 190.207C321.248 197.073 325.028 210.12 328.807 223.853C335.679 247.887 343.581 275.01 359.729 278.787C380.001 283.25 407.831 241.707 422.948 219.39C425.697 215.27 428.102 211.493 429.82 209.09C449.061 182.653 462.117 161.023 462.117 140.423C462.117 137.677 461.773 134.93 461.43 132.183C458.337 115.703 446.656 100.597 424.666 85.1467C359.729 39.1401 312.315 -27.1232 291.013 -101.283C284.485 -123.943 281.049 -146.603 281.049 -167.89C281.049 -227.287 305.1 -270.89 331.556 -308.657L330.181 -308.657C303.725 -270.89 279.675 -227.287 279.675 -167.89C279.675 -146.26 283.111 -123.943 289.639 -100.94C310.941 -26.4365 358.699 39.8268 423.636 85.8335C445.625 101.283 456.963 116.047 460.055 132.183C460.399 134.93 460.742 137.677 460.742 140.423C460.742 160.68 448.03 182.31 428.789 208.403C427.071 210.807 424.666 214.24 421.918 218.703C407.144 241.02 379.657 282.22 360.073 277.757C344.612 274.323 336.709 247.2 329.838 223.51C326.058 209.777 322.279 196.73 317.125 189.863C303.038 169.95 279.331 161.023 256.655 152.44C243.942 147.633 230.543 142.483 219.548 135.617C196.872 121.54 187.595 108.493 187.595 91.3268C187.595 83.7735 188.969 76.2202 191.031 67.2935C193.092 56.6502 195.497 44.9768 195.841 30.9001C195.841 28.1535 195.841 25.0635 195.841 22.3168C195.841 -18.1965 189.313 -55.9632 183.128 -92.6999C177.631 -125.317 172.477 -155.873 172.477 -184.713C172.477 -202.566 174.539 -218.36 178.662 -232.78C185.877 -257.843 196.528 -282.563 209.584 -308.313L208.553 -308.313C195.841 -282.906 185.19 -258.187 177.974 -233.123C173.852 -219.39 171.79 -203.597 171.79 -185.4Z" fill="white"/>
<path d="M1393.22 567.189C1406.28 575.772 1422.77 586.759 1433.77 582.982C1438.23 581.609 1441.67 577.489 1444.07 571.652C1444.42 570.622 1444.76 569.249 1444.76 567.875C1444.76 554.485 1424.15 533.542 1406.28 515.002C1394.94 503.329 1383.95 491.999 1380.85 485.475C1366.42 453.545 1359.55 409.255 1353.37 370.459C1350.96 355.009 1348.56 340.589 1346.15 327.199C1340.31 296.642 1337.22 267.115 1337.22 239.649C1337.22 149.352 1369.86 73.1319 1434.11 14.0785C1441.33 7.5552 1445.1 -2.40146 1445.1 -14.7614C1445.1 -53.5581 1407.31 -119.822 1337.56 -166.858C1295.65 -195.012 1210.09 -235.525 1107.36 -193.295C1066.13 -176.471 1046.89 -151.065 1046.89 -113.985C1046.89 -85.8316 1057.2 -53.5582 1069.23 -16.1348C1084 29.8718 1100.84 81.7152 1100.84 137.679C1100.84 181.282 1090.87 221.109 1070.26 259.905C1006.35 379.385 890.22 382.819 796.078 372.519C759.315 368.399 730.454 374.922 712.244 391.402C699.532 403.075 692.66 418.525 692.66 436.722C692.66 471.055 719.46 514.315 770.653 529.765C818.755 544.529 862.733 509.852 913.24 469.682C970.274 424.362 1035.21 373.205 1121.79 383.162C1164.74 387.969 1205.97 403.762 1231.74 425.049C1251.32 441.185 1253.39 455.605 1255.1 470.369C1256.48 482.042 1257.85 493.715 1266.79 507.792C1273.66 518.435 1285 521.869 1297.36 525.302C1305.61 527.705 1314.54 530.109 1321.76 535.259C1325.54 538.005 1326.57 542.812 1327.26 548.305C1328.29 555.172 1329.66 562.725 1338.59 566.845C1344.78 569.592 1351.99 565.815 1358.87 562.382C1364.71 559.292 1370.89 556.202 1375.7 557.232C1379.14 558.262 1385.67 562.382 1393.22 567.189ZM1357.49 561.009C1350.62 564.442 1344.09 567.875 1338.94 565.472C1331.04 561.695 1330 554.829 1328.63 548.305C1327.6 542.812 1326.91 537.319 1322.1 534.229C1314.54 528.735 1305.95 526.332 1297.36 523.929C1285.68 520.495 1274.34 517.405 1267.82 507.105C1259.23 493.372 1257.85 481.699 1256.48 470.369C1254.42 454.919 1252.7 440.155 1232.43 423.675C1205.97 402.045 1164.74 386.252 1121.45 381.445C1034.18 371.489 968.9 422.989 911.522 468.309C861.359 508.135 817.724 542.469 770.653 528.049C720.49 512.942 694.034 470.712 694.034 437.065C694.034 419.555 700.563 404.105 712.931 393.119C730.798 377.325 759.315 370.802 795.391 374.922C890.22 385.222 1007.38 381.789 1071.63 261.279C1092.59 222.139 1102.55 181.969 1102.55 138.022C1102.55 81.7153 1085.72 29.5285 1070.94 -16.4781C1058.92 -53.5581 1048.61 -85.8315 1048.61 -113.641C1048.61 -150.378 1066.82 -174.068 1107.71 -190.892C1209.41 -232.778 1294.27 -192.608 1335.85 -164.798C1402.84 -120.165 1442.7 -53.2149 1442.7 -14.4182C1442.7 -2.40152 1439.26 6.52511 1432.39 13.0485C1367.8 72.7885 1334.81 149.009 1334.81 240.335C1334.81 268.145 1337.91 297.672 1343.75 328.572C1346.5 341.962 1348.56 356.382 1350.96 371.832C1357.15 410.972 1364.02 455.262 1378.79 487.535C1381.89 494.402 1392.54 505.389 1404.56 517.749C1422.43 535.945 1442.7 556.545 1442.7 569.249C1442.7 570.279 1442.7 571.309 1442.36 572.339C1440.29 577.832 1437.55 581.265 1433.42 582.639C1423.12 586.072 1407.31 575.429 1394.6 567.189C1387.04 562.039 1380.51 557.919 1376.04 556.889C1369.86 554.485 1363.33 557.575 1357.49 561.009Z" fill="white"/>
<path d="M1158.56 -262.307C1161.31 -266.771 1163.02 -273.981 1163.02 -282.564C1163.02 -290.117 1161.65 -299.387 1158.9 -309.001L1156.5 -309.001C1159.59 -299.387 1160.96 -290.117 1160.96 -282.564C1160.96 -274.667 1159.59 -267.801 1156.84 -263.681C1143.78 -243.424 1121.11 -234.497 1097.06 -225.227C1076.1 -216.987 1054.8 -208.747 1039.68 -192.267L1038.99 -192.267L1038.99 -191.58C1022.5 -172.697 1014.25 -147.291 1014.25 -113.987C1014.25 -81.3705 1022.16 -47.3804 1028.34 -19.9138C1032.46 -1.03043 1036.24 15.1062 1036.24 25.4062C1036.24 31.5862 1034.87 35.3629 1032.46 36.7362C1029.03 38.7962 1022.5 37.0795 1013.22 32.2728C969.932 8.58284 866.514 -39.4838 823.91 -36.0505C790.238 -33.3038 755.193 -17.1671 721.522 -1.71713C672.39 20.9429 621.883 44.6329 573.782 27.4662C518.809 7.89622 420.544 -77.9371 411.955 -139.05C411.611 -142.484 411.268 -146.604 411.268 -150.38C411.268 -190.207 434.975 -248.231 469.333 -309.001L466.928 -309.001C432.57 -248.231 409.206 -190.207 409.206 -150.38C409.206 -146.26 409.55 -142.14 409.893 -138.707C418.483 -76.9071 517.778 9.95626 573.095 29.8696C622.227 47.3796 673.077 23.6896 722.553 0.68625C756.224 -14.7638 790.582 -30.9004 823.91 -33.6471C862.047 -36.7371 958.594 5.14953 1012.19 34.3329C1022.5 40.1695 1029.37 41.5428 1033.84 38.7962C1037.27 36.7362 1038.99 32.2728 1038.99 25.4062C1038.99 14.7628 1035.21 -1.71714 1031.09 -20.6005C1024.9 -48.0672 1017 -82.0572 1017 -113.987C1017 -146.947 1024.9 -171.667 1041.4 -190.207C1056.17 -206.344 1077.47 -214.927 1098.43 -222.824C1122.14 -232.437 1145.16 -241.707 1158.56 -262.307Z" fill="white"/>
<path d="M-7.79199e-07 597.745L-6.74146e-07 600.148C18.5534 605.298 38.8248 609.075 61.1576 611.478C99.9824 615.255 150.489 618.688 199.621 610.792C235.354 604.955 251.158 593.282 251.158 573.025C251.158 559.978 244.974 545.215 237.759 527.705C232.605 515.688 227.451 502.985 223.672 489.938C223.328 488.565 222.985 487.535 222.641 486.162C212.334 448.052 210.959 405.135 218.518 359.815C220.58 347.455 224.015 335.095 227.108 323.422C231.918 305.912 237.072 288.058 237.759 269.518C238.102 259.562 237.072 252.695 234.667 247.545C227.451 232.782 209.241 239.992 190.001 247.545C178.663 252.009 166.981 256.472 156.33 257.502C100.326 261.622 49.1322 230.379 0.343563 188.835L0.343563 191.925C49.1322 233.125 100.326 263.682 156.33 259.905C167.324 259.219 179.35 254.412 190.688 249.948C209.585 242.395 226.077 236.215 232.261 248.919C234.666 253.382 235.354 260.249 235.01 269.862C234.323 288.058 229.169 305.912 224.359 323.078C220.923 335.095 217.487 347.455 215.769 359.815C208.211 405.478 209.929 448.738 220.236 487.192C220.58 488.565 220.923 489.938 221.267 490.968C225.046 504.358 230.2 517.062 235.354 529.078C242.569 546.245 248.753 561.008 248.753 573.368C248.753 592.252 233.636 602.895 199.278 608.732C150.489 616.628 99.9824 613.195 61.5012 609.418C38.8248 607.015 18.5534 603.238 -7.79199e-07 597.745Z" fill="white"/>
<path d="M678.574 670.531C678.574 667.441 674.451 665.381 665.175 662.978C630.129 654.395 583.746 625.898 559.008 581.608C533.926 536.975 527.398 507.105 523.962 490.968C522.245 483.071 521.214 478.951 519.152 477.921C518.465 477.578 517.434 477.578 516.404 478.265C510.906 481.355 479.64 536.631 473.456 616.628L473.112 620.061C472.425 627.271 472.082 633.451 472.082 639.288C472.082 660.231 477.922 676.711 510.906 715.851C516.06 722.031 520.87 728.211 525.68 734.391C540.111 753.275 552.823 769.755 566.91 768.725C577.905 768.038 588.556 757.051 600.925 734.735C614.668 710.015 641.811 694.908 659.677 684.951C671.015 678.771 678.574 674.651 678.574 670.531ZM599.894 734.391C587.869 756.021 576.874 767.008 566.567 768.038C552.823 769.068 540.454 752.931 526.024 734.391C521.214 728.211 516.404 722.031 511.25 715.851C478.266 677.055 472.425 660.231 472.425 639.975C472.425 634.138 472.769 627.958 473.456 620.748L473.799 617.315C479.984 539.378 510.906 482.728 516.404 479.981C517.434 479.295 518.122 479.638 518.465 479.638C520.183 480.325 520.87 484.788 522.588 491.655C526.024 507.791 532.552 537.661 557.633 582.638C582.371 627.271 629.098 655.768 664.487 664.351C673.077 666.411 677.2 668.471 677.2 670.875C677.2 674.308 668.954 678.771 658.99 684.608C641.124 694.221 613.637 709.328 599.894 734.391Z" fill="white"/>
<path d="M737.67 664.007C737.67 660.917 734.234 658.858 726.332 657.484C678.917 648.558 611.919 629.331 576.186 564.784C565.192 544.871 556.258 522.211 549.387 495.774C548.013 490.624 544.233 484.788 540.454 479.294C535.644 472.084 530.833 464.874 530.833 458.008C530.833 457.321 530.833 456.291 531.177 455.604C531.864 451.828 533.926 449.081 536.331 446.334C538.736 443.244 541.141 440.154 541.141 436.378C541.141 435.004 540.797 433.288 540.11 431.571C539.079 428.824 536.674 427.108 534.613 425.734C531.521 423.674 528.772 421.614 529.116 415.778C529.459 409.941 533.926 406.851 538.736 403.418C542.172 401.014 545.264 398.611 547.325 395.178C548.7 392.774 550.074 388.311 550.074 384.191C550.074 381.444 549.387 379.384 548.013 378.354C546.638 377.324 544.577 376.981 542.172 377.668C533.926 380.071 526.367 397.238 521.557 408.911C520.182 412.344 518.808 415.091 517.777 417.151C508.844 434.318 500.942 451.141 494.757 465.904C467.958 526.674 451.81 582.294 444.938 635.511C444.251 641.348 443.907 646.841 443.907 651.304C443.907 677.398 455.245 697.998 493.039 738.168C502.316 748.124 510.219 758.424 517.777 768.038C534.956 790.011 548.7 807.521 565.535 807.178C578.935 806.834 593.365 795.161 610.888 770.441C638.718 730.614 681.322 704.178 709.496 686.668C725.988 676.368 737.67 669.158 737.67 664.007ZM609.514 770.441C592.335 794.818 578.248 806.491 565.192 806.834C548.7 807.178 535.3 790.011 518.121 768.038C510.562 758.081 502.316 747.781 493.383 737.824C455.933 697.654 444.594 677.398 444.594 651.648C444.594 646.841 444.938 641.691 445.625 635.854C452.497 582.638 468.645 527.361 495.101 466.591C501.285 452.171 509.188 435.004 518.121 418.181C519.152 416.121 520.526 413.374 521.9 409.941C526.71 398.611 534.269 381.444 541.828 379.384C543.89 378.698 545.607 379.041 546.638 379.728C548.013 380.758 548.356 383.161 548.356 384.534C548.356 387.968 546.982 392.431 545.607 394.834C543.89 397.924 540.454 400.328 537.361 402.731C532.551 406.164 527.741 409.598 527.398 415.778C526.71 422.301 530.146 424.361 533.239 426.421C535.3 427.794 537.361 429.168 538.392 431.914C539.079 433.631 539.423 435.004 539.423 436.378C539.423 440.154 537.361 442.901 534.956 445.648C532.895 448.394 530.49 451.484 529.803 455.604C529.803 456.291 529.459 457.321 529.459 458.008C529.459 465.217 534.613 472.771 539.423 479.981C543.202 485.818 546.982 490.968 548.356 496.118C555.228 522.554 564.161 545.214 575.155 565.128C611.232 630.018 678.574 649.588 725.988 658.514C732.86 659.888 736.295 661.604 736.295 664.007C736.295 668.471 724.614 676.024 708.122 686.324C679.948 703.834 637.687 730.614 609.514 770.441Z" fill="white"/>
<path d="M1168.52 537.319C1165.77 513.973 1149.62 491.656 1127.29 481.013C1107.02 471.056 1072.32 465.906 1023.53 496.463C1002.57 509.509 981.27 523.929 960.655 537.663C901.902 577.146 846.586 614.569 790.925 629.676C728.05 647.186 676.169 633.109 627.724 585.729C585.807 544.529 561.756 490.283 561.756 436.723C561.756 396.553 575.843 360.503 601.612 335.439C629.785 307.973 671.359 294.239 721.178 295.956C732.86 296.299 744.885 296.986 757.598 297.329C802.607 299.389 853.801 301.793 896.405 294.583C945.194 286.343 975.429 266.429 988.828 233.813C996.044 216.303 999.479 199.823 999.479 184.716C999.479 157.249 987.454 133.903 964.778 117.079C926.296 88.5827 859.985 81.716 800.202 99.9127C671.702 139.396 595.084 233.813 512.967 373.893C450.779 480.326 431.195 569.936 419.857 651.306C418.826 657.486 418.482 662.979 418.482 668.473C418.482 702.463 435.661 718.599 457.651 738.856C465.897 746.753 474.83 754.649 483.763 764.949C494.07 776.623 500.255 786.579 505.752 795.506C514.685 809.926 522.244 822.286 542.515 835.676C583.058 862.799 607.796 826.406 633.908 788.296C647.652 768.039 662.082 747.096 678.918 736.109C785.428 665.726 899.154 694.223 970.275 744.006C990.546 758.426 1009.79 779.026 1030.06 801.343C1054.8 828.466 1080.56 856.276 1109.08 872.413C1121.45 879.279 1129.7 881.339 1134.51 878.249C1137.94 876.189 1139.66 871.383 1139.66 864.173C1139.66 851.126 1134.16 830.183 1127.98 805.806C1119.05 771.816 1108.05 729.586 1108.05 692.163C1108.05 672.249 1111.14 655.426 1117.33 641.693C1123.51 627.959 1132.45 616.629 1141.04 605.299C1155.47 587.103 1168.87 569.593 1168.87 545.216C1169.21 542.469 1168.87 540.066 1168.52 537.319ZM1116.64 641.349C1110.11 655.426 1107.02 671.906 1107.02 692.163C1107.02 729.586 1118.02 772.159 1126.95 806.149C1133.13 830.183 1138.63 851.126 1138.63 864.173C1138.63 871.039 1136.91 875.503 1133.82 877.563C1129.35 880.309 1121.11 878.249 1109.43 871.726C1080.91 855.933 1055.48 827.779 1030.75 800.999C1010.47 779.026 991.234 758.083 970.962 743.663C929.389 714.479 881.974 696.969 833.873 693.536C778.9 689.759 726.675 703.836 678.574 735.423C661.395 746.753 646.964 767.696 633.221 787.953C607.452 825.719 582.715 861.426 543.203 834.989C522.931 821.599 515.373 809.239 506.783 795.163C501.286 786.236 495.101 775.936 484.794 764.263C475.861 754.306 467.271 746.066 458.681 738.169C437.036 717.913 419.857 701.776 419.857 668.473C419.857 663.323 420.2 657.486 421.231 651.649C432.569 570.623 451.81 481.013 514.342 374.579C596.458 234.843 672.733 140.426 800.889 100.943C860.329 82.746 926.296 89.6126 964.778 117.766C987.111 134.246 999.136 157.593 999.136 184.716C999.136 199.823 995.7 215.959 988.485 233.469C975.429 265.743 945.537 285.313 896.748 293.553C854.144 300.763 803.294 298.359 757.941 296.299C745.229 295.613 733.203 295.269 721.522 294.926C671.359 293.553 629.442 307.286 600.924 334.753C574.812 359.816 560.725 396.209 560.725 436.723C560.725 490.626 584.776 545.216 627.037 586.416C652.805 611.479 679.261 627.273 708.122 634.139C733.891 640.319 761.034 639.289 790.925 630.706C846.586 615.256 902.246 577.833 960.998 538.349C981.613 524.616 1002.57 510.196 1023.87 497.149C1072.32 466.936 1106.68 472.086 1126.6 481.699C1148.59 492.343 1164.4 513.973 1167.15 537.319C1167.49 540.066 1167.49 542.469 1167.49 545.216C1167.49 569.249 1154.09 586.416 1140 604.613C1131.76 615.943 1122.83 627.616 1116.64 641.349Z" fill="white"/>
<path d="M800.203 233.125C853.801 236.558 890.908 221.108 907.744 205.658C915.303 198.448 919.426 190.552 919.426 183.685C919.426 173.728 911.523 166.175 897.436 162.398C805.356 139.052 708.466 218.705 700.22 228.662C697.815 231.408 697.471 233.468 698.846 234.841C701.251 237.245 709.497 236.558 724.614 235.185C742.137 233.468 768.937 231.065 800.203 233.125ZM700.22 233.468C699.877 233.125 699.877 233.125 699.877 232.781C699.877 232.438 700.22 231.408 701.594 229.691C709.497 220.078 805.7 140.768 896.749 164.115C910.149 167.548 917.708 174.415 917.708 183.685C917.708 190.208 913.585 197.762 906.37 204.628C889.878 220.078 853.458 235.185 800.203 231.752C768.593 229.692 742.137 232.095 724.271 233.468C711.558 234.498 701.938 235.185 700.22 233.468Z" fill="white"/>
<path d="M195.842 -185.4C195.842 -158.62 200.996 -128.75 206.149 -97.1638C212.677 -59.3971 219.205 -20.6006 219.205 21.6294C219.205 24.7194 219.205 27.8095 219.205 30.8995C219.205 33.3028 219.205 36.0495 218.862 38.4528C218.518 44.9762 218.518 50.8128 218.518 56.6495C218.518 93.0428 226.077 115.703 265.245 130.809C289.983 140.079 318.157 151.066 336.367 176.473C341.521 183.683 345.987 190.893 349.767 197.416C358.7 212.179 365.915 223.853 375.535 224.539C384.468 224.883 395.463 215.956 410.581 195.013C425.355 175.099 432.226 158.619 432.226 144.886C432.226 143.513 432.226 142.483 432.226 141.109C430.508 121.196 413.673 107.463 392.714 90.6394C383.094 82.7428 372.443 74.1595 362.136 63.8595C317.47 19.2262 284.83 -35.3639 267.994 -94.7605C261.122 -119.824 257.687 -144.544 257.687 -168.234C257.687 -226.6 278.989 -271.577 303.383 -309L302.009 -309C277.614 -271.577 256.656 -226.6 256.656 -168.234C256.656 -144.544 260.435 -119.824 267.307 -94.7605C284.142 -35.3639 316.783 19.5695 361.792 64.2028C372.099 74.5028 383.094 83.4295 392.371 90.9828C413.329 107.806 429.478 121.196 431.539 140.766C431.539 141.796 431.539 143.169 431.539 144.543C431.539 158.276 424.324 174.413 409.893 193.983C394.776 214.583 384.468 223.509 375.535 223.166C366.259 222.823 359.387 211.149 350.454 196.729C346.674 190.206 342.208 182.996 337.054 175.786C318.844 150.036 290.327 139.049 265.589 129.779C226.764 115.016 219.549 92.6995 219.549 56.6495C219.549 50.8128 219.549 44.6328 219.893 38.4528C219.893 36.0495 219.893 33.6461 220.236 30.8995C220.236 27.8095 220.236 24.7194 220.236 21.6294C220.236 -20.9439 213.708 -59.7405 207.18 -97.5071C201.683 -129.094 196.873 -158.62 196.873 -185.4C196.873 -200.85 198.59 -214.584 202.026 -226.944C209.585 -253.724 221.954 -280.847 236.728 -309L235.697 -309C221.267 -280.847 208.898 -253.724 201.339 -227.287C197.56 -214.927 195.842 -201.194 195.842 -185.4Z" fill="white"/>
<path d="M797.11 259.563C849.334 263.683 891.595 253.383 915.989 230.723C928.702 218.706 935.917 204.286 935.917 189.866C935.917 168.923 921.486 152.443 899.154 147.636C833.873 133.216 774.777 155.533 736.983 176.819C692.661 201.883 661.051 233.813 650.744 249.263C646.964 254.756 644.559 258.876 644.559 261.279C644.559 262.309 644.903 262.996 645.59 263.339C647.995 265.399 654.179 264.369 666.892 262.996C688.881 259.906 730.798 254.756 797.11 259.563ZM645.933 262.653C645.59 262.309 645.246 261.966 645.246 261.279C645.246 259.219 647.651 255.099 651.087 249.949C674.451 215.273 780.274 122.573 898.466 148.666C920.456 153.473 934.542 169.609 934.542 190.209C934.542 204.629 927.671 218.706 914.958 230.379C890.564 252.696 848.647 262.996 797.11 259.219C730.798 254.069 688.881 259.563 666.548 262.309C654.867 263.339 647.995 264.026 645.933 262.653Z" fill="white"/>
<path d="M800.546 279.474C865.483 283.594 916.677 270.891 944.85 244.454C959.281 230.721 967.183 214.241 967.183 196.388C967.183 162.398 939.697 133.558 898.81 124.631C838.34 111.584 778.9 122.914 722.209 157.934C664.487 193.641 627.38 243.081 610.201 269.518C601.612 282.908 597.832 288.744 600.581 290.804C602.643 292.521 609.171 291.491 621.539 289.088C647.995 284.281 703.999 273.638 800.546 279.474ZM600.925 290.118C600.581 289.774 600.581 289.431 600.581 288.744C600.581 285.998 604.36 279.818 610.888 269.861C667.923 182.311 773.403 98.1943 898.467 125.318C939.009 134.244 966.152 162.398 966.152 196.044C966.152 213.554 958.594 230.034 944.163 243.424C916.333 269.861 865.139 281.878 800.546 278.101C703.999 272.264 647.995 282.908 620.852 288.058C609.514 290.461 602.642 291.834 600.925 290.118Z" fill="white"/>
<path d="M584.777 674.65C584.777 665.036 575.5 657.826 561.413 650.617C536.675 637.57 524.994 610.447 518.465 595.683C515.373 588.13 513.999 585.383 511.937 585.727C510.22 586.07 509.532 587.787 508.845 598.087C506.784 628.643 535.645 696.623 557.634 704.52C562.788 706.236 567.254 704.863 571.034 700.743C580.654 689.07 584.777 681.173 584.777 674.65ZM558.665 702.46C538.737 695.25 511.25 631.733 511.25 601.52C511.25 600.49 511.25 599.46 511.25 598.43C511.594 592.593 511.937 589.847 512.281 588.817C513.312 590.19 514.686 593.623 516.06 596.713C522.588 611.477 534.614 639.287 560.039 652.677C575.844 661.26 582.372 667.44 582.372 674.65C582.372 680.83 578.249 688.04 568.972 699.37C566.223 702.803 562.788 703.833 558.665 702.46Z" fill="white"/>
<path d="M583.745 644.779C541.141 621.433 526.367 578.516 518.121 544.183C517.434 540.749 515.716 540.406 514.685 540.749C507.813 541.436 494.414 574.053 494.414 622.463C494.414 627.956 494.414 633.449 494.757 638.943C496.132 660.916 527.054 713.103 549.73 731.986C555.571 736.793 560.725 739.196 564.504 738.509C574.125 737.136 578.248 728.896 583.058 718.939C588.211 708.639 594.052 696.966 607.796 691.129C615.698 687.696 619.821 683.576 619.821 678.083C619.477 668.813 607.452 657.826 583.745 644.779ZM607.108 689.413C593.022 695.249 586.837 707.266 581.683 717.909C576.873 727.179 573.094 735.419 564.504 736.449C561.412 736.793 556.602 734.733 551.105 730.269C528.428 711.729 498.193 660.229 496.819 638.599C496.475 633.106 496.475 627.613 496.475 622.119C496.475 574.739 509.531 542.809 515.028 542.123C516.059 542.123 516.403 543.496 516.746 544.183C524.992 579.203 540.11 622.463 583.401 646.153C618.79 666.066 627.38 680.829 607.108 689.413Z" fill="white"/>
<path d="M983.674 -30.2118C987.11 -32.6151 988.828 -38.7952 988.828 -50.1252C988.828 -57.3352 988.141 -65.9185 987.454 -75.8751C986.767 -88.2351 985.736 -102.312 985.736 -116.732C985.736 -162.738 995.356 -193.638 1016.66 -214.238C1031.43 -233.465 1055.48 -244.108 1076.78 -253.378C1102.55 -264.708 1124.89 -274.665 1124.89 -296.295C1124.89 -298.698 1124.54 -301.102 1124.2 -303.505C1123.86 -305.222 1123.51 -306.938 1122.82 -308.655L1121.11 -308.655C1121.79 -306.595 1122.14 -304.878 1122.48 -303.162C1122.82 -300.758 1123.17 -298.355 1123.17 -296.295C1123.17 -275.695 1101.18 -266.082 1076.1 -255.095C1054.8 -245.825 1030.4 -234.838 1015.28 -215.612C993.982 -194.668 984.018 -163.425 984.018 -117.075C984.018 -102.655 985.049 -88.5785 985.736 -76.2185C986.423 -66.2618 987.11 -57.6785 987.11 -50.4685C987.11 -39.8252 985.736 -33.9884 982.644 -31.9284C980.926 -30.8984 978.864 -30.8984 976.116 -31.9284C917.707 -53.9018 843.836 -72.0985 820.816 -70.3818C780.961 -67.2918 743.167 -49.7818 706.747 -32.9585C662.082 -12.3585 620.165 7.2115 585.119 -5.14849C536.331 -22.3151 451.466 -101.282 445.625 -144.198C445.281 -146.258 445.281 -148.662 445.281 -151.065C445.281 -184.368 468.989 -243.078 508.5 -309.685L506.439 -309.685C467.271 -243.422 443.563 -184.712 443.563 -151.065C443.563 -148.662 443.563 -146.258 443.907 -143.855C449.748 -100.595 535.3 -20.9418 584.432 -3.43183C620.165 9.2715 662.769 -10.6418 707.434 -31.2418C743.854 -48.0652 781.305 -65.5751 820.816 -68.6651C840.744 -70.3818 912.553 -53.9018 975.428 -30.5551C978.864 -28.8385 981.613 -28.8385 983.674 -30.2118Z" fill="white"/>
<path d="M98.2645 470.366C98.2645 465.903 97.5773 460.409 96.203 454.229C94.8286 448.049 93.4543 441.869 92.7671 436.376C91.3928 427.106 91.0492 418.179 90.7056 410.283C90.0185 401.356 87.6134 393.116 83.1468 385.563C64.5934 353.633 26.1122 340.243 10.651 336.123C6.87163 334.749 3.43581 333.719 -6.9512e-06 333.033L-6.90618e-06 334.063C3.09223 335.093 6.52805 336.123 10.3075 337.153C25.7686 341.273 63.5627 354.663 82.1161 386.249C86.5827 393.803 88.9877 401.699 89.3313 410.626C89.6749 418.523 90.3621 427.449 91.3928 436.719C92.08 442.213 93.4543 448.049 94.8286 454.573C96.203 460.753 96.8901 466.246 96.8901 470.709C96.8901 478.263 94.8286 483.756 91.0492 486.846C85.2083 491.653 74.5573 492.339 57.7218 488.906L54.9731 488.219C31.6095 483.756 13.7433 475.859 -1.24832e-06 463.499L-1.18829e-06 464.873C14.0869 476.889 31.9531 484.786 54.9731 489.249L57.7218 489.936C74.9009 493.369 85.8955 492.683 92.08 487.533C96.203 483.756 98.2645 478.263 98.2645 470.366Z" fill="white"/>
<path d="M219.55 -185.401C219.55 -160.681 224.36 -131.841 229.514 -101.284C236.042 -62.831 242.913 -22.661 242.913 21.629C242.913 24.719 242.913 28.1524 242.913 31.2424L242.57 38.7957C242.57 44.9757 242.226 50.8124 242.226 56.3057C242.226 104.372 268.682 106.776 296.856 109.179C312.317 110.552 328.122 111.926 341.521 120.509C346.332 123.599 352.516 131.496 359.044 140.079C372.787 158.276 388.249 179.219 403.023 169.262C409.207 165.142 412.643 159.992 412.643 153.812C412.643 150.722 411.612 146.946 409.894 143.512C401.648 127.376 376.567 109.866 356.639 96.1324C345.301 88.2357 335.68 81.3691 333.275 77.5924C330.87 73.8157 330.527 69.3524 330.527 65.5757C330.527 64.2024 330.527 62.4857 330.527 61.1123C330.527 59.739 330.527 58.0224 330.527 56.649C330.527 51.1557 329.84 44.9757 325.029 39.4824C319.189 32.959 311.286 32.2724 304.071 31.2424C297.543 30.5557 291.015 29.869 285.861 25.4057C269.713 12.0157 258.718 -35.021 251.159 -65.9211C249.098 -75.1911 247.036 -83.0877 245.318 -88.9243C237.416 -116.048 233.637 -142.828 233.637 -168.578C233.637 -225.914 252.534 -271.921 274.866 -309.344L272.805 -309.344C250.472 -271.921 231.575 -225.914 231.575 -168.578C231.575 -142.484 235.698 -115.704 243.257 -88.2377C244.975 -82.4011 246.693 -74.5043 249.098 -65.2343C257 -31.931 267.651 13.389 284.143 27.1223C289.984 31.929 296.856 32.6157 303.384 33.3024C310.943 33.9891 317.814 34.6757 323.312 40.8557C327.778 45.6623 328.465 51.499 328.465 56.649C328.465 58.0224 328.465 59.739 328.465 61.1123C328.465 62.4857 328.465 64.2024 328.465 65.5757C328.465 69.6957 328.809 74.159 331.214 78.6224C333.619 82.7424 343.239 89.2657 354.921 97.5057C373.818 110.552 399.243 128.406 407.489 144.542C412.643 154.156 410.581 161.709 401.305 167.889C387.905 176.816 373.131 156.902 359.731 139.049C352.86 129.779 347.019 122.226 341.865 118.792C328.122 110.209 311.973 108.836 296.512 107.119C267.995 104.716 243.601 102.312 243.601 55.9623C243.601 50.469 243.601 44.6324 243.944 38.4524L244.288 30.899C244.288 27.809 244.288 24.3757 244.288 21.2857C244.288 -23.3476 237.416 -63.1744 230.888 -101.971C225.734 -132.528 220.924 -161.024 220.924 -185.744C220.924 -198.791 222.298 -210.464 225.391 -220.421C233.637 -248.231 248.067 -278.101 264.559 -309.001L262.498 -309.001C246.349 -278.101 231.919 -248.918 224.016 -220.764C221.268 -210.464 219.55 -198.791 219.55 -185.401Z" fill="white"/>
<path d="M62.1885 463.846C67.3423 461.099 70.0909 455.606 70.0909 447.022C70.0909 444.619 69.7473 442.216 69.4037 439.812C68.0294 429.856 67.3422 420.242 66.9987 412.002C66.9987 409.599 66.3115 407.196 65.9679 405.136C65.2808 402.732 64.25 400.329 62.8757 397.926C51.8811 379.386 19.9279 357.412 0.343745 356.725L0.343745 358.442C19.2408 359.129 51.1939 381.102 61.5014 398.956C62.8757 401.016 63.5628 403.419 64.25 405.822C64.9372 407.882 65.2808 410.286 65.2808 412.689C65.6243 420.929 66.3115 430.542 67.6858 440.499C69.4037 452.516 66.9987 460.069 61.5014 463.159C53.599 467.279 38.8249 462.472 22.333 450.799C13.3999 444.619 6.18464 436.036 0.343748 424.706L0.343748 428.139C6.18464 438.439 13.0563 446.336 21.3023 452.172C38.1378 463.502 53.599 467.966 62.1885 463.846Z" fill="white"/>
<path d="M1249.61 543.84C1243.77 492.683 1182.95 431.913 1136.57 415.433C1055.83 386.937 990.89 437.407 928.015 486.16C867.544 533.197 810.166 577.487 740.419 555.857C679.605 536.973 646.965 476.203 646.965 428.48C646.965 402.73 656.241 380.757 672.733 365.993C692.318 348.483 722.209 341.617 758.972 346.08C885.411 361.53 1023.87 365.993 1064.76 224.883C1069.57 208.747 1071.98 192.61 1071.98 177.503C1071.98 118.107 1037.96 80.3401 1009.44 59.0535C954.814 18.1968 872.698 4.12009 805.7 23.6901C748.665 40.5134 693.692 73.4734 637.001 124.63C552.823 200.507 480.328 303.85 415.734 440.84L412.985 446.677C385.842 504.357 357.669 563.753 342.208 626.24C341.177 630.017 340.146 634.137 339.115 638.6C333.962 657.827 327.434 682.203 327.434 702.803C327.434 711.043 328.464 718.253 330.526 724.09C333.618 733.017 339.803 738.167 345.643 742.973C350.11 746.75 354.577 750.184 358.012 755.677C360.074 759.11 362.823 765.977 365.571 773.187C370.038 784.86 374.848 796.877 378.971 800.653C387.56 807.863 392.714 805.803 397.868 804.087C401.304 802.713 404.74 801.34 409.893 803.057L414.016 804.43C444.595 814.73 444.595 814.73 451.467 838.763C452.841 843.227 454.559 849.063 456.62 855.93C462.805 875.843 472.769 883.74 482.045 891.637C489.261 897.817 496.132 903.31 501.63 913.953C501.63 914.297 501.63 914.64 501.63 914.983C501.63 927.343 507.814 1021.07 530.834 1028.28C537.019 1030.34 543.89 1025.88 550.762 1015.92C559.695 1003.22 560.726 993.263 560.726 987.083C560.726 983.993 560.382 981.247 560.039 978.843C559.695 976.44 559.695 974.38 559.695 972.32C559.695 964.767 561.756 957.213 587.525 946.57C593.71 944.167 599.207 942.107 603.33 940.39C624.632 932.15 624.976 932.15 633.565 911.55C635.627 906.4 638.375 900.22 642.155 891.98C654.524 865.543 668.267 860.05 685.79 853.183C695.066 849.407 705.717 845.287 717.399 837.733C730.112 829.493 740.419 819.537 750.039 810.267C767.562 793.443 784.054 777.65 811.541 772.5C859.298 763.917 904.995 789.667 947.255 818.85C967.87 832.927 991.577 862.11 1016.66 893.353C1059.61 945.883 1108.05 1005.28 1153.06 1005.62C1178.83 1005.62 1198.41 999.1 1211.47 986.053C1225.9 971.633 1232.77 950.003 1232.77 919.79C1232.77 875.843 1218 821.597 1204.94 773.873C1194.63 736.107 1185.7 703.833 1185.7 682.89C1185.7 678.083 1186.04 674.307 1187.08 671.217C1192.92 651.303 1205.63 635.167 1218 620.06C1234.15 599.803 1249.61 580.577 1249.61 552.767C1250.29 549.677 1249.95 546.587 1249.61 543.84ZM1185.01 670.187C1183.98 673.62 1183.64 677.74 1183.64 682.547C1183.64 703.49 1192.57 736.107 1202.88 773.873C1215.94 821.597 1230.71 875.5 1230.71 919.103C1230.71 948.973 1223.84 969.917 1210.1 983.65C1197.38 996.353 1178.14 1002.53 1153.4 1002.53C1109.43 1002.19 1061.32 943.137 1019.06 891.293C993.639 860.393 969.932 830.867 948.973 816.447C906.369 786.92 860.329 760.827 811.541 769.41C783.367 774.56 766.531 790.697 748.665 807.863C739.045 817.133 728.737 827.09 716.368 835.33C704.687 842.883 694.379 847.003 685.102 850.78C666.893 857.99 652.806 863.483 640.093 890.95C636.314 899.19 633.565 905.37 631.504 910.52C622.914 930.433 622.914 930.433 602.643 938.33C598.176 940.047 593.022 942.107 586.838 944.51C562.1 954.467 557.29 962.363 557.29 972.32C557.29 974.38 557.633 976.783 557.633 978.843C557.977 981.59 557.977 983.993 557.977 987.083C557.977 993.607 556.946 1002.19 548.357 1014.55C541.829 1023.82 535.988 1027.6 530.834 1026.22C510.906 1020.04 503.348 932.493 503.348 915.327C503.348 914.983 503.348 914.64 503.348 914.64L502.317 914.297L503.348 913.61C497.507 902.28 490.291 896.1 483.076 889.92C473.456 882.023 464.523 874.47 458.338 855.243C456.277 848.377 454.559 842.54 453.185 838.077C445.969 813.013 445.626 812.67 414.016 802.027L409.893 800.653C404.052 798.593 399.929 800.31 396.15 801.683C391.34 803.4 387.217 805.117 380.002 798.593C375.879 795.16 371.412 782.8 367.289 772.157C364.54 764.947 361.792 758.08 359.73 754.303C356.294 748.467 351.484 744.69 347.018 740.913C341.177 736.107 335.68 731.3 332.587 723.06C330.526 717.567 329.495 710.7 329.495 702.46C329.495 682.203 336.023 658.17 340.833 638.943C341.864 634.48 343.238 630.36 343.925 626.583C359.387 564.097 387.56 504.7 414.703 447.363L417.452 441.527C482.045 304.88 554.198 201.88 638.032 126.347C694.379 75.5334 749.352 42.5735 805.7 26.0935C872.011 6.52347 953.096 20.6001 1007.38 61.1134C1035.56 82.0567 1068.88 119.48 1068.88 177.847C1068.88 192.953 1066.48 208.747 1062.01 224.54C1021.81 363.59 884.38 359.127 758.972 344.02C721.522 339.557 690.943 346.423 670.672 364.277C653.493 379.383 644.216 402.387 644.216 428.48C644.216 476.89 677.544 538.69 739.388 557.917C810.166 579.89 870.637 532.853 929.046 487.533C991.234 439.123 1055.83 389.34 1135.19 417.15C1180.89 433.287 1241.02 493.027 1246.52 543.497C1246.86 546.243 1246.86 548.99 1246.86 551.737C1246.86 578.517 1231.74 597.4 1215.59 617.313C1204.25 633.45 1191.2 649.587 1185.01 670.187Z" fill="white"/>
<path d="M125.064 484.789C125.064 473.115 122.315 460.069 119.566 448.739C118.192 442.902 117.161 437.409 116.474 432.945C115.443 424.705 114.756 416.465 114.413 408.912C113.382 392.775 112.695 377.325 105.823 365.309C100.326 355.352 91.0491 348.485 77.6494 343.335C53.5986 334.409 26.7992 323.765 -0.000177161 308.315L-0.000177116 309.345C26.4556 324.795 53.255 335.439 77.3058 344.365C90.3619 349.172 99.295 356.039 104.792 365.652C111.664 377.669 112.351 392.775 113.382 408.912C113.725 416.809 114.413 424.705 115.443 433.289C116.131 437.752 117.161 443.245 118.536 449.082C120.941 460.412 124.033 473.115 124.033 484.789C124.033 496.119 121.284 504.015 115.443 509.509C101.7 522.212 70.0906 515.689 52.9115 512.255L50.1628 511.569C30.5786 507.792 14.0867 501.612 -0.343751 492.685L-0.343751 494.059C13.7431 502.642 30.5786 508.822 49.8192 512.599L52.5679 513.285C69.747 516.719 101.7 523.242 115.787 510.195C122.315 504.702 125.064 496.462 125.064 484.789Z" fill="white"/>
<path d="M-1.63075e-05 219.049L-1.62025e-05 221.453C4.46655 225.573 8.58953 229.349 12.3689 232.096C63.9062 269.863 111.321 286.686 157.704 283.596C175.57 282.223 187.596 284.626 194.124 290.463C198.247 294.239 200.308 299.389 200.308 306.599C200.308 316.556 196.529 328.916 192.406 341.963C188.627 353.636 184.847 365.996 183.816 377.669C182.786 386.253 182.442 395.179 182.442 404.106C182.442 433.289 186.909 460.756 192.062 489.939C192.749 494.746 193.78 499.896 194.467 504.703L194.467 505.046C196.185 515.346 197.903 527.019 197.903 538.349C197.903 559.636 190.688 573.369 176.258 580.236C145.679 594.313 108.915 590.536 76.6188 587.103C72.1522 586.759 68.0292 586.073 63.5627 585.729C39.8555 583.326 18.897 579.206 -8.19696e-07 573.369L-7.44658e-07 575.086C18.897 580.923 39.8555 585.043 63.5627 587.446C67.6857 587.789 72.1522 588.476 76.6188 588.819C109.259 592.253 146.366 596.373 177.288 581.953C192.749 574.743 199.965 560.666 199.965 538.349C199.965 527.019 197.903 515.003 196.529 504.703L196.529 504.359C195.842 499.553 194.811 494.403 194.124 489.596C189.314 460.413 184.504 432.946 184.504 403.763C184.504 394.493 184.847 385.909 185.878 377.326C187.252 365.996 191.032 353.636 194.467 341.963C198.59 328.916 202.37 316.213 202.37 306.256C202.37 298.703 200.308 292.866 195.498 288.746C188.626 282.566 176.258 280.163 157.704 281.536C111.664 284.969 64.5934 268.146 13.3997 230.379C9.62028 227.633 4.81013 223.513 -1.63075e-05 219.049Z" fill="white"/>
<path d="M260.435 230.033C268.681 241.706 272.804 257.5 272.804 278.786C272.804 303.506 267.306 331.316 262.496 356.036C259.748 370.456 256.999 384.19 255.625 395.176C254.938 400.67 253.563 415.433 253.563 433.286C253.563 466.59 258.03 509.506 279.675 523.926C288.952 530.106 300.977 530.45 314.721 524.613C321.249 521.866 324.685 515 328.12 508.133C330.869 502.64 333.618 497.146 337.741 494.056C342.551 490.28 349.766 488.22 356.294 486.16C365.227 483.413 374.504 480.666 380.001 474.143C386.873 466.246 389.965 457.32 389.965 446.333C389.965 438.78 388.591 430.883 386.873 423.33C385.499 415.776 383.781 408.223 383.781 401.013C383.781 393.803 385.155 387.623 388.247 382.13C395.119 368.396 404.739 362.903 414.016 357.066C426.041 349.856 437.38 342.99 442.533 320.33C453.528 273.293 465.21 260.246 493.04 229.003C496.476 224.883 500.599 220.763 504.722 215.956C514.686 204.626 526.024 196.386 536.675 188.49C546.295 181.28 556.603 174.07 565.536 164.456C576.874 152.783 581.684 141.796 586.838 131.153C593.366 117.076 599.55 103.343 620.509 91.3263L623.945 89.2663C650.4 73.8163 675.138 58.3664 675.138 48.753C675.138 47.3797 674.451 46.0064 673.42 44.9763C669.641 41.543 659.677 40.5129 642.842 42.2296C632.878 43.2596 624.288 50.1263 615.699 56.993C606.422 64.5463 597.832 71.413 588.212 71.0697C576.874 70.7264 571.033 63.5163 565.192 56.3063C560.726 50.813 556.259 45.3196 549.387 42.2296C532.552 34.333 517.434 32.6163 502.66 30.5563C482.389 28.153 463.148 25.7497 441.503 7.55302C402.678 -25.0637 373.13 -70.7271 358.699 -120.854C353.889 -137.677 351.484 -153.127 351.484 -168.234C351.484 -219.734 379.314 -256.47 409.206 -295.61C412.642 -300.074 416.077 -304.537 419.17 -309L415.734 -309C412.642 -304.88 409.549 -301.104 406.801 -296.984C376.909 -257.5 348.735 -220.42 348.735 -168.234C348.735 -152.784 351.14 -136.99 355.951 -120.167C370.381 -69.3537 400.273 -23.3471 439.441 9.61296C461.774 28.1529 481.358 30.5563 501.973 33.303C516.403 35.0197 531.177 37.0797 547.669 44.633C554.197 47.723 558.664 52.873 562.787 58.023C568.972 65.5763 575.156 73.1296 587.525 73.8163C598.176 74.1596 607.453 66.6063 616.729 59.3963C624.975 52.8729 633.565 46.0064 642.498 44.9763C662.426 43.2597 668.954 45.3197 671.359 47.0364C672.046 47.723 672.39 48.4096 672.39 49.0963C672.39 58.7096 637.344 78.623 622.57 87.5497L619.135 89.6097C597.489 102.313 591.304 116.046 584.776 130.466C579.966 141.11 575.156 151.753 564.161 163.083C555.228 172.353 545.264 179.906 535.644 186.773C524.649 195.013 513.311 203.253 503.347 214.583C499.224 219.39 495.445 223.51 491.666 227.63C463.492 259.216 451.81 272.263 440.815 319.986C435.662 341.616 425.011 348.14 413.329 355.006C403.709 360.843 394.088 366.68 386.873 380.756C383.781 386.593 382.406 393.116 382.406 400.67C382.406 408.223 383.781 416.12 385.499 423.673C386.873 431.226 388.591 438.78 388.591 445.99C388.591 456.29 385.499 464.53 379.314 472.426C374.16 478.263 365.571 481.01 356.638 483.756C349.766 485.816 342.551 488.22 337.397 491.996C332.587 495.43 329.838 501.266 327.09 506.76C323.654 513.283 320.562 519.806 314.721 522.21C301.665 527.703 290.67 527.36 281.737 521.523C261.122 507.79 256.655 465.56 256.655 432.6C256.655 414.746 258.03 399.983 258.717 394.833C259.748 383.846 262.496 370.113 265.589 355.693C270.399 330.973 276.24 303.163 276.24 278.1C276.24 256.47 272.117 239.99 263.527 227.973C242.225 197.76 210.272 206.686 179.349 214.926C146.366 223.853 112.007 233.123 89.6745 196.043C86.9259 191.58 85.5515 185.743 85.5515 178.533C85.5515 156.56 97.5769 125.316 109.259 95.103C119.566 69.0097 129.186 43.9463 129.53 27.8097C129.53 25.4064 129.53 23.003 129.53 20.943C129.53 -13.7336 123.689 -48.7537 117.848 -82.7437C112.007 -116.734 106.166 -151.754 106.166 -186.087C106.166 -210.12 108.915 -232.094 115.1 -252.694C120.597 -271.92 127.812 -290.804 136.058 -309.344L133.309 -309.344C125.063 -290.804 118.192 -272.264 112.695 -253.38C106.854 -232.437 103.761 -210.464 103.761 -186.087C103.761 -151.41 109.602 -116.39 115.443 -82.4003C121.284 -48.7537 127.125 -13.7336 127.125 20.943C127.125 23.3463 127.125 25.4064 127.125 27.8097C126.781 43.603 117.161 67.9796 107.197 94.073C95.5154 124.286 83.1465 155.873 83.1465 178.533C83.1465 186.43 84.5208 192.61 87.613 197.416C110.977 235.87 146.022 226.6 180.037 217.33C210.272 209.433 240.163 201.536 260.435 230.033Z" fill="white"/>
<path d="M172.822 522.209C172.822 514.999 171.791 506.416 169.73 493.713C164.232 461.783 161.827 429.853 161.827 393.803C161.827 384.533 161.827 375.263 162.171 365.306C162.171 361.873 162.171 358.783 162.171 356.036C162.171 339.213 160.109 329.599 155.299 322.389C149.458 313.806 138.807 308.656 120.254 305.222C77.6495 297.326 39.5119 280.502 -1.37926e-05 251.662L-1.37326e-05 253.036C39.5119 281.876 77.6495 298.699 120.254 306.596C138.464 310.029 148.771 314.836 154.612 323.419C159.422 330.286 161.484 340.243 161.484 356.723C161.484 359.469 161.484 362.559 161.484 365.993C161.14 376.293 161.14 385.563 161.14 394.489C161.14 430.883 163.545 462.813 169.042 494.743C171.104 507.446 172.135 515.686 172.135 523.239C172.135 543.839 165.263 558.946 131.248 564.096C98.9516 568.903 64.5934 564.783 41.5734 559.976C26.7994 556.886 13.0561 553.109 0.343581 547.959L0.343581 548.989C12.7125 554.139 26.4558 558.259 41.2298 561.006C64.2498 565.469 98.608 569.933 131.248 565.126C160.453 559.289 172.822 547.273 172.822 522.209Z" fill="white"/>
<path d="M146.709 507.792C146.709 504.702 146.366 500.926 145.679 497.492C141.212 470.369 138.463 440.842 137.776 410.629C137.433 403.419 137.776 396.896 137.776 390.372C137.776 385.909 138.12 381.789 138.12 378.012C138.12 365.652 137.089 352.949 130.217 342.992C124.377 334.752 115.1 328.916 101.013 325.139C63.5625 314.839 30.235 300.076 -0.343761 280.162L-0.343761 281.536C29.8915 301.449 63.2189 316.212 100.669 326.169C114.413 329.946 123.689 335.439 129.187 343.679C136.058 353.292 136.745 365.996 136.745 378.012C136.745 382.132 136.745 386.252 136.402 390.372C136.402 396.896 136.058 403.762 136.402 410.629C137.089 440.842 139.838 470.369 144.304 497.492C147.053 513.286 143.617 524.959 135.028 532.169C114.756 548.649 69.747 539.722 45.3527 534.916C28.5171 531.482 13.0559 526.676 -0.343751 519.809L-0.343751 520.839C13.3995 527.362 28.5171 532.169 45.3527 535.602C69.747 540.409 115.443 549.336 136.058 532.512C143.274 527.362 146.709 518.779 146.709 507.792Z" fill="white"/>
</g>
</g>
<defs>
<clipPath id="clip0_6536_7942">
<rect y="990" width="990" height="708" rx="16" transform="rotate(-90 0 990)" fill="white"/>
</clipPath>
</defs>
</svg>
