<svg width="17" height="16" viewBox="0 0 17 16" fill="none" xmlns="http://www.w3.org/2000/svg">
<g clip-path="url(#clip0_6535_9669)">
<path fill-rule="evenodd" clip-rule="evenodd" d="M9.4784 0H8.08305C7.95902 0 7.89701 0.0592593 7.89701 0.177778V7.15547H0.967297C0.843265 7.15547 0.78125 7.21473 0.78125 7.33325V8.66658C0.78125 8.7851 0.843265 8.84436 0.967297 8.84436H7.89701V15.8222C7.89701 15.9407 7.95902 16 8.08305 16H9.4784C9.60243 16 9.66445 15.9407 9.66445 15.8222V8.84436H16.5952C16.7192 8.84436 16.7812 8.7851 16.7812 8.66658V7.33325C16.7812 7.21473 16.7192 7.15547 16.5952 7.15547H9.66445V0.177778C9.66445 0.0592593 9.60243 0 9.4784 0Z" fill="#3751FF"/>
</g>
<defs>
<clipPath id="clip0_6535_9669">
<rect width="16" height="16" fill="white" transform="translate(0.78125)"/>
</clipPath>
</defs>
</svg>
