<svg width="60" height="60" viewBox="0 0 60 60" fill="none" xmlns="http://www.w3.org/2000/svg">
<circle cx="30" cy="30" r="30" fill="white"/>
<path d="M30.3314 18.8213C32.6556 18.8213 34.7019 19.1876 36.4703 19.9202C38.264 20.6276 39.8177 21.676 41.1314 23.0655L37.9861 27.2718C36.8998 26.135 35.7251 25.2887 34.4619 24.7329C33.224 24.1518 31.8093 23.8613 30.2177 23.8613C29.283 23.8613 28.5251 23.9623 27.944 24.1644C27.363 24.3666 26.9461 24.6444 26.6935 24.9981C26.4408 25.3518 26.3145 25.756 26.3145 26.2108C26.3145 26.7413 26.5545 27.196 27.0345 27.575C27.5398 27.9287 28.3482 28.2318 29.4598 28.4844L33.6661 29.4318C36.1672 30.0129 37.9987 30.8592 39.1608 31.9708C40.323 33.0823 40.904 34.5602 40.904 36.4044C40.904 38.1729 40.4493 39.676 39.5398 40.9139C38.6303 42.1266 37.3798 43.0487 35.7882 43.6802C34.1966 44.2866 32.3777 44.5897 30.3314 44.5897C28.664 44.5897 27.0724 44.4129 25.5566 44.0592C24.0408 43.6802 22.6766 43.1497 21.464 42.4676C20.2514 41.7855 19.2282 41.0023 18.3945 40.1181L21.5398 35.7602C22.1714 36.4929 22.9419 37.1497 23.8514 37.7308C24.7861 38.2866 25.7966 38.7287 26.883 39.0571C27.9945 39.3855 29.1187 39.5497 30.2556 39.5497C31.1398 39.5497 31.8724 39.4613 32.4535 39.2844C33.0598 39.1076 33.5019 38.8423 33.7798 38.4887C34.0577 38.135 34.1966 37.7181 34.1966 37.2381C34.1966 36.7076 34.0072 36.2655 33.6282 35.9118C33.2493 35.5329 32.5293 35.2171 31.4682 34.9644L26.8451 33.9413C25.4303 33.6129 24.1672 33.1834 23.0556 32.6529C21.9693 32.0971 21.1103 31.3644 20.4787 30.455C19.8472 29.5202 19.5314 28.3581 19.5314 26.9687C19.5314 25.4023 19.9608 24.0129 20.8198 22.8002C21.6787 21.5623 22.9166 20.5897 24.5335 19.8823C26.1503 19.175 28.083 18.8213 30.3314 18.8213Z" fill="#3751FF"/>
</svg>
