<svg width="284" height="60" viewBox="0 0 284 60" fill="none" xmlns="http://www.w3.org/2000/svg">
<path d="M91.9294 40.28C90.3428 40.28 88.8774 40.084 87.5334 39.692C86.2081 39.2813 85.0694 38.7213 84.1174 38.012L85.2374 35.184C85.8721 35.632 86.5348 36.0147 87.2254 36.332C87.9161 36.6307 88.6534 36.864 89.4374 37.032C90.2214 37.1813 91.0521 37.256 91.9294 37.256C93.4041 37.256 94.4681 37.0133 95.1214 36.528C95.7748 36.0427 96.1014 35.408 96.1014 34.624C96.1014 33.9333 95.8774 33.4107 95.4294 33.056C94.9814 32.6827 94.1788 32.3747 93.0214 32.132L89.8574 31.488C88.0468 31.1147 86.6934 30.4893 85.7974 29.612C84.9014 28.7347 84.4534 27.5587 84.4534 26.084C84.4534 24.852 84.7801 23.7787 85.4334 22.864C86.0868 21.9493 87.0014 21.24 88.1774 20.736C89.3534 20.232 90.7254 19.98 92.2934 19.98C93.6934 19.98 94.9908 20.1853 96.1854 20.596C97.3801 20.988 98.3788 21.5573 99.1814 22.304L98.0614 24.992C97.2588 24.32 96.3814 23.8253 95.4294 23.508C94.4774 23.172 93.4134 23.004 92.2374 23.004C90.9121 23.004 89.8761 23.2653 89.1294 23.788C88.4014 24.292 88.0374 24.992 88.0374 25.888C88.0374 26.5787 88.2614 27.1293 88.7094 27.54C89.1761 27.9507 89.9601 28.268 91.0614 28.492L94.1974 29.108C96.0641 29.4813 97.4454 30.0973 98.3414 30.956C99.2374 31.796 99.6854 32.9347 99.6854 34.372C99.6854 35.548 99.3681 36.584 98.7334 37.48C98.0988 38.3573 97.2028 39.048 96.0454 39.552C94.8881 40.0373 93.5161 40.28 91.9294 40.28ZM103.808 40V25.86H107.308V40H103.808ZM103.612 23.2V19.784H107.504V23.2H103.612ZM112.109 40V29.388C112.109 28.8093 112.09 28.2213 112.053 27.624C112.016 27.0267 111.96 26.4387 111.885 25.86H115.273L115.553 28.66H115.217C115.609 27.6893 116.206 26.9333 117.009 26.392C117.83 25.8507 118.801 25.58 119.921 25.58C121.041 25.58 121.965 25.8507 122.693 26.392C123.44 26.9147 123.962 27.736 124.261 28.856H123.813C124.205 27.848 124.849 27.0547 125.745 26.476C126.641 25.8787 127.668 25.58 128.825 25.58C130.412 25.58 131.597 26.0467 132.381 26.98C133.165 27.9133 133.557 29.3693 133.557 31.348V40H130.057V31.488C130.057 30.368 129.87 29.5653 129.497 29.08C129.124 28.576 128.526 28.324 127.705 28.324C126.734 28.324 125.969 28.6693 125.409 29.36C124.849 30.032 124.569 30.9467 124.569 32.104V40H121.069V31.488C121.069 30.368 120.882 29.5653 120.509 29.08C120.136 28.576 119.538 28.324 118.717 28.324C117.746 28.324 116.981 28.6693 116.421 29.36C115.88 30.032 115.609 30.9467 115.609 32.104V40H112.109ZM138.293 46.048V29.388C138.293 28.8093 138.274 28.2213 138.237 27.624C138.199 27.0267 138.143 26.4387 138.069 25.86H141.457L141.765 28.828H141.457C141.737 27.8387 142.325 27.0547 143.221 26.476C144.135 25.8787 145.19 25.58 146.385 25.58C147.635 25.58 148.727 25.8787 149.661 26.476C150.594 27.0547 151.322 27.8947 151.845 28.996C152.367 30.0787 152.629 31.3853 152.629 32.916C152.629 34.4467 152.367 35.7627 151.845 36.864C151.322 37.9653 150.594 38.8147 149.661 39.412C148.727 39.9907 147.635 40.28 146.385 40.28C145.209 40.28 144.173 39.9907 143.277 39.412C142.381 38.8333 141.783 38.0587 141.485 37.088H141.793V46.048H138.293ZM145.405 37.592C146.525 37.592 147.421 37.2093 148.093 36.444C148.765 35.66 149.101 34.484 149.101 32.916C149.101 31.348 148.765 30.1813 148.093 29.416C147.421 28.6507 146.525 28.268 145.405 28.268C144.303 28.268 143.417 28.6507 142.745 29.416C142.073 30.1813 141.737 31.348 141.737 32.916C141.737 34.484 142.073 35.66 142.745 36.444C143.417 37.2093 144.303 37.592 145.405 37.592ZM156.656 40V19.392H160.156V40H156.656ZM164.677 46.356L163.865 43.584C164.742 43.3973 165.479 43.1827 166.077 42.94C166.674 42.6973 167.169 42.38 167.561 41.988C167.953 41.596 168.279 41.092 168.541 40.476L169.241 38.824L169.157 40.196L162.997 25.86H166.721L171.145 36.892H170.333L174.785 25.86H178.313L171.873 40.784C171.443 41.792 170.977 42.6227 170.473 43.276C169.969 43.948 169.427 44.48 168.849 44.872C168.27 45.2827 167.635 45.6 166.945 45.824C166.254 46.048 165.498 46.2253 164.677 46.356ZM197.011 40.28C195.425 40.28 193.959 40.084 192.615 39.692C191.29 39.2813 190.151 38.7213 189.199 38.012L190.319 35.184C190.954 35.632 191.617 36.0147 192.307 36.332C192.998 36.6307 193.735 36.864 194.519 37.032C195.303 37.1813 196.134 37.256 197.011 37.256C198.486 37.256 199.55 37.0133 200.203 36.528C200.857 36.0427 201.183 35.408 201.183 34.624C201.183 33.9333 200.959 33.4107 200.511 33.056C200.063 32.6827 199.261 32.3747 198.103 32.132L194.939 31.488C193.129 31.1147 191.775 30.4893 190.879 29.612C189.983 28.7347 189.535 27.5587 189.535 26.084C189.535 24.852 189.862 23.7787 190.515 22.864C191.169 21.9493 192.083 21.24 193.259 20.736C194.435 20.232 195.807 19.98 197.375 19.98C198.775 19.98 200.073 20.1853 201.267 20.596C202.462 20.988 203.461 21.5573 204.263 22.304L203.143 24.992C202.341 24.32 201.463 23.8253 200.511 23.508C199.559 23.172 198.495 23.004 197.319 23.004C195.994 23.004 194.958 23.2653 194.211 23.788C193.483 24.292 193.119 24.992 193.119 25.888C193.119 26.5787 193.343 27.1293 193.791 27.54C194.258 27.9507 195.042 28.268 196.143 28.492L199.279 29.108C201.146 29.4813 202.527 30.0973 203.423 30.956C204.319 31.796 204.767 32.9347 204.767 34.372C204.767 35.548 204.45 36.584 203.815 37.48C203.181 38.3573 202.285 39.048 201.127 39.552C199.97 40.0373 198.598 40.28 197.011 40.28ZM208.89 40V25.86H212.39V40H208.89ZM208.694 23.2V19.784H212.586V23.2H208.694ZM217.191 40V29.388C217.191 28.8093 217.172 28.2213 217.135 27.624C217.098 27.0267 217.042 26.4387 216.967 25.86H220.355L220.635 28.66H220.299C220.691 27.6893 221.288 26.9333 222.091 26.392C222.912 25.8507 223.883 25.58 225.003 25.58C226.123 25.58 227.047 25.8507 227.775 26.392C228.522 26.9147 229.044 27.736 229.343 28.856H228.895C229.287 27.848 229.931 27.0547 230.827 26.476C231.723 25.8787 232.75 25.58 233.907 25.58C235.494 25.58 236.679 26.0467 237.463 26.98C238.247 27.9133 238.639 29.3693 238.639 31.348V40H235.139V31.488C235.139 30.368 234.952 29.5653 234.579 29.08C234.206 28.576 233.608 28.324 232.787 28.324C231.816 28.324 231.051 28.6693 230.491 29.36C229.931 30.032 229.651 30.9467 229.651 32.104V40H226.151V31.488C226.151 30.368 225.964 29.5653 225.591 29.08C225.218 28.576 224.62 28.324 223.799 28.324C222.828 28.324 222.063 28.6693 221.503 29.36C220.962 30.032 220.691 30.9467 220.691 32.104V40H217.191ZM243.375 46.048V29.388C243.375 28.8093 243.356 28.2213 243.319 27.624C243.281 27.0267 243.225 26.4387 243.151 25.86H246.539L246.847 28.828H246.539C246.819 27.8387 247.407 27.0547 248.303 26.476C249.217 25.8787 250.272 25.58 251.467 25.58C252.717 25.58 253.809 25.8787 254.743 26.476C255.676 27.0547 256.404 27.8947 256.927 28.996C257.449 30.0787 257.711 31.3853 257.711 32.916C257.711 34.4467 257.449 35.7627 256.927 36.864C256.404 37.9653 255.676 38.8147 254.743 39.412C253.809 39.9907 252.717 40.28 251.467 40.28C250.291 40.28 249.255 39.9907 248.359 39.412C247.463 38.8333 246.865 38.0587 246.567 37.088H246.875V46.048H243.375ZM250.487 37.592C251.607 37.592 252.503 37.2093 253.175 36.444C253.847 35.66 254.183 34.484 254.183 32.916C254.183 31.348 253.847 30.1813 253.175 29.416C252.503 28.6507 251.607 28.268 250.487 28.268C249.385 28.268 248.499 28.6507 247.827 29.416C247.155 30.1813 246.819 31.348 246.819 32.916C246.819 34.484 247.155 35.66 247.827 36.444C248.499 37.2093 249.385 37.592 250.487 37.592ZM261.738 40V19.392H265.238V40H261.738ZM276.871 40.28C274.5 40.28 272.643 39.6267 271.299 38.32C269.955 37.0133 269.283 35.2213 269.283 32.944C269.283 31.4693 269.572 30.1813 270.151 29.08C270.729 27.9787 271.532 27.12 272.559 26.504C273.604 25.888 274.817 25.58 276.199 25.58C277.561 25.58 278.7 25.8693 279.615 26.448C280.529 27.0267 281.22 27.8387 281.687 28.884C282.172 29.9293 282.415 31.152 282.415 32.552V33.476H272.111V31.628H279.923L279.447 32.02C279.447 30.7133 279.167 29.7147 278.607 29.024C278.065 28.3333 277.272 27.988 276.227 27.988C275.069 27.988 274.173 28.3987 273.539 29.22C272.923 30.0413 272.615 31.1893 272.615 32.664V33.028C272.615 34.5587 272.988 35.7067 273.735 36.472C274.5 37.2187 275.573 37.592 276.955 37.592C277.757 37.592 278.504 37.4893 279.195 37.284C279.904 37.06 280.576 36.7053 281.211 36.22L282.247 38.572C281.575 39.1133 280.772 39.5333 279.839 39.832C278.905 40.1307 277.916 40.28 276.871 40.28Z" fill="white"/>
<circle cx="30.8574" cy="30" r="30" fill="white"/>
<path d="M31.1888 18.8213C33.513 18.8213 35.5593 19.1876 37.3277 19.9202C39.1214 20.6276 40.6751 21.676 41.9888 23.0655L38.8435 27.2718C37.7572 26.135 36.5825 25.2887 35.3193 24.7329C34.0814 24.1518 32.6667 23.8613 31.0751 23.8613C30.1404 23.8613 29.3825 23.9623 28.8014 24.1644C28.2204 24.3666 27.8035 24.6444 27.5509 24.9981C27.2983 25.3518 27.172 25.756 27.172 26.2108C27.172 26.7413 27.412 27.196 27.892 27.575C28.3972 27.9287 29.2056 28.2318 30.3172 28.4844L34.5235 29.4318C37.0246 30.0129 38.8562 30.8592 40.0183 31.9708C41.1804 33.0823 41.7614 34.5602 41.7614 36.4044C41.7614 38.1729 41.3067 39.676 40.3972 40.9139C39.4877 42.1266 38.2372 43.0487 36.6456 43.6802C35.0541 44.2866 33.2351 44.5897 31.1888 44.5897C29.5214 44.5897 27.9298 44.4129 26.4141 44.0592C24.8983 43.6802 23.5341 43.1497 22.3214 42.4676C21.1088 41.7855 20.0856 41.0023 19.252 40.1181L22.3972 35.7602C23.0288 36.4929 23.7993 37.1497 24.7088 37.7308C25.6435 38.2866 26.6541 38.7287 27.7404 39.0571C28.852 39.3855 29.9762 39.5497 31.113 39.5497C31.9972 39.5497 32.7298 39.4613 33.3109 39.2844C33.9172 39.1076 34.3593 38.8423 34.6372 38.4887C34.9151 38.135 35.0541 37.7181 35.0541 37.2381C35.0541 36.7076 34.8646 36.2655 34.4856 35.9118C34.1067 35.5329 33.3867 35.2171 32.3256 34.9644L27.7025 33.9413C26.2877 33.6129 25.0246 33.1834 23.913 32.6529C22.8267 32.0971 21.9677 31.3644 21.3362 30.455C20.7046 29.5202 20.3888 28.3581 20.3888 26.9687C20.3888 25.4023 20.8183 24.0129 21.6772 22.8002C22.5362 21.5623 23.7741 20.5897 25.3909 19.8823C27.0077 19.175 28.9404 18.8213 31.1888 18.8213Z" fill="#3751FF"/>
</svg>
