<svg width="535" height="535" viewBox="0 0 535 535" fill="none" xmlns="http://www.w3.org/2000/svg">
<g filter="url(#filter0_d_6536_8192)">
<rect x="16.3574" y="15.5" width="373" height="374" rx="11.0346" fill="white" stroke="#EDF2F7"/>
<path d="M110.958 360H109.56L112.701 351.273H114.222L117.363 360H115.965L113.498 352.858H113.43L110.958 360ZM111.193 356.582H115.727V357.69H111.193V356.582ZM118.581 362.455V353.455H119.825V354.516H119.932C120.006 354.379 120.112 354.222 120.251 354.043C120.391 353.864 120.584 353.707 120.831 353.574C121.078 353.438 121.405 353.369 121.811 353.369C122.34 353.369 122.811 353.503 123.226 353.77C123.641 354.037 123.966 354.422 124.202 354.925C124.44 355.428 124.56 356.033 124.56 356.74C124.56 357.447 124.442 358.054 124.206 358.56C123.97 359.062 123.646 359.45 123.234 359.723C122.822 359.993 122.352 360.128 121.824 360.128C121.426 360.128 121.101 360.061 120.848 359.928C120.598 359.794 120.402 359.638 120.26 359.459C120.118 359.28 120.009 359.121 119.932 358.982H119.855V362.455H118.581ZM119.83 356.727C119.83 357.187 119.896 357.591 120.03 357.938C120.163 358.284 120.357 358.555 120.609 358.751C120.862 358.945 121.172 359.041 121.538 359.041C121.919 359.041 122.237 358.94 122.493 358.739C122.749 358.534 122.942 358.257 123.072 357.908C123.206 357.558 123.273 357.165 123.273 356.727C123.273 356.295 123.207 355.908 123.077 355.564C122.949 355.22 122.756 354.949 122.497 354.75C122.241 354.551 121.922 354.452 121.538 354.452C121.169 354.452 120.857 354.547 120.601 354.737C120.348 354.928 120.156 355.193 120.026 355.534C119.895 355.875 119.83 356.273 119.83 356.727ZM126.047 360V353.455H127.279V354.494H127.347C127.466 354.142 127.676 353.865 127.978 353.663C128.282 353.459 128.625 353.357 129.009 353.357C129.088 353.357 129.182 353.359 129.29 353.365C129.401 353.371 129.488 353.378 129.55 353.386V354.605C129.499 354.591 129.408 354.575 129.277 354.558C129.147 354.538 129.016 354.528 128.885 354.528C128.584 354.528 128.316 354.592 128.08 354.72C127.847 354.845 127.662 355.02 127.526 355.244C127.39 355.466 127.321 355.719 127.321 356.003V360H126.047ZM137.243 351.273V360H135.921V352.594H135.87L133.782 353.957V352.696L135.96 351.273H137.243ZM142.71 360.119C142.321 360.114 141.937 360.043 141.56 359.906C141.185 359.77 140.844 359.543 140.537 359.224C140.23 358.906 139.984 358.479 139.8 357.942C139.618 357.405 139.527 356.734 139.527 355.93C139.527 355.169 139.602 354.493 139.753 353.902C139.906 353.311 140.126 352.812 140.413 352.406C140.7 351.997 141.047 351.686 141.453 351.473C141.859 351.26 142.315 351.153 142.821 351.153C143.341 351.153 143.803 351.256 144.206 351.46C144.609 351.665 144.936 351.947 145.186 352.308C145.439 352.669 145.599 353.08 145.668 353.54H144.368C144.28 353.176 144.105 352.879 143.844 352.649C143.582 352.419 143.241 352.304 142.821 352.304C142.182 352.304 141.683 352.582 141.325 353.139C140.97 353.696 140.791 354.47 140.788 355.462H140.852C141.003 355.214 141.187 355.004 141.406 354.831C141.628 354.655 141.875 354.52 142.148 354.426C142.423 354.33 142.713 354.281 143.017 354.281C143.523 354.281 143.98 354.405 144.389 354.652C144.801 354.896 145.129 355.234 145.374 355.666C145.618 356.098 145.74 356.592 145.74 357.149C145.74 357.706 145.614 358.21 145.361 358.662C145.111 359.114 144.758 359.472 144.304 359.736C143.849 359.997 143.318 360.125 142.71 360.119ZM142.706 359.011C143.041 359.011 143.341 358.929 143.605 358.764C143.869 358.599 144.078 358.378 144.232 358.099C144.385 357.821 144.462 357.51 144.462 357.166C144.462 356.831 144.386 356.526 144.236 356.25C144.088 355.974 143.883 355.756 143.622 355.594C143.364 355.432 143.068 355.351 142.736 355.351C142.483 355.351 142.249 355.399 142.033 355.496C141.82 355.592 141.632 355.726 141.47 355.896C141.308 356.067 141.18 356.263 141.087 356.484C140.996 356.703 140.95 356.935 140.95 357.179C140.95 357.506 141.026 357.808 141.176 358.087C141.33 358.365 141.538 358.589 141.803 358.76C142.07 358.928 142.371 359.011 142.706 359.011Z" fill="#9CA4AB"/>
<path d="M207.298 360H205.9L209.041 351.273H210.562L213.703 360H212.305L209.838 352.858H209.77L207.298 360ZM207.532 356.582H212.066V357.69H207.532V356.582ZM214.921 362.455V353.455H216.165V354.516H216.272C216.346 354.379 216.452 354.222 216.591 354.043C216.73 353.864 216.924 353.707 217.171 353.574C217.418 353.438 217.745 353.369 218.151 353.369C218.679 353.369 219.151 353.503 219.566 353.77C219.98 354.037 220.306 354.422 220.542 354.925C220.78 355.428 220.9 356.033 220.9 356.74C220.9 357.447 220.782 358.054 220.546 358.56C220.31 359.062 219.986 359.45 219.574 359.723C219.162 359.993 218.692 360.128 218.164 360.128C217.766 360.128 217.441 360.061 217.188 359.928C216.938 359.794 216.742 359.638 216.6 359.459C216.458 359.28 216.348 359.121 216.272 358.982H216.195V362.455H214.921ZM216.169 356.727C216.169 357.187 216.236 357.591 216.37 357.938C216.503 358.284 216.696 358.555 216.949 358.751C217.202 358.945 217.512 359.041 217.878 359.041C218.259 359.041 218.577 358.94 218.833 358.739C219.088 358.534 219.282 358.257 219.412 357.908C219.546 357.558 219.613 357.165 219.613 356.727C219.613 356.295 219.547 355.908 219.417 355.564C219.289 355.22 219.096 354.949 218.837 354.75C218.581 354.551 218.262 354.452 217.878 354.452C217.509 354.452 217.196 354.547 216.941 354.737C216.688 354.928 216.496 355.193 216.365 355.534C216.235 355.875 216.169 356.273 216.169 356.727ZM222.387 360V353.455H223.619V354.494H223.687C223.806 354.142 224.016 353.865 224.317 353.663C224.621 353.459 224.965 353.357 225.349 353.357C225.428 353.357 225.522 353.359 225.63 353.365C225.741 353.371 225.827 353.378 225.89 353.386V354.605C225.839 354.591 225.748 354.575 225.617 354.558C225.487 354.538 225.356 354.528 225.225 354.528C224.924 354.528 224.656 354.592 224.42 354.72C224.187 354.845 224.002 355.02 223.866 355.244C223.729 355.466 223.661 355.719 223.661 356.003V360H222.387ZM233.582 351.273V360H232.261V352.594H232.21L230.122 353.957V352.696L232.3 351.273H233.582ZM236.297 360L240.107 352.466V352.402H235.701V351.273H241.47V352.44L237.674 360H236.297Z" fill="#9CA4AB"/>
<path d="M302.982 360H301.584L304.724 351.273H306.246L309.386 360H307.989L305.521 352.858H305.453L302.982 360ZM303.216 356.582H307.75V357.69H303.216V356.582ZM310.604 362.455V353.455H311.849V354.516H311.955C312.029 354.379 312.136 354.222 312.275 354.043C312.414 353.864 312.607 353.707 312.854 353.574C313.102 353.438 313.428 353.369 313.835 353.369C314.363 353.369 314.835 353.503 315.249 353.77C315.664 354.037 315.989 354.422 316.225 354.925C316.464 355.428 316.583 356.033 316.583 356.74C316.583 357.447 316.465 358.054 316.229 358.56C315.994 359.062 315.67 359.45 315.258 359.723C314.846 359.993 314.376 360.128 313.847 360.128C313.45 360.128 313.124 360.061 312.871 359.928C312.621 359.794 312.425 359.638 312.283 359.459C312.141 359.28 312.032 359.121 311.955 358.982H311.879V362.455H310.604ZM311.853 356.727C311.853 357.187 311.92 357.591 312.053 357.938C312.187 358.284 312.38 358.555 312.633 358.751C312.886 358.945 313.195 359.041 313.562 359.041C313.942 359.041 314.261 358.94 314.516 358.739C314.772 358.534 314.965 358.257 315.096 357.908C315.229 357.558 315.296 357.165 315.296 356.727C315.296 356.295 315.231 355.908 315.1 355.564C314.972 355.22 314.779 354.949 314.521 354.75C314.265 354.551 313.945 354.452 313.562 354.452C313.192 354.452 312.88 354.547 312.624 354.737C312.371 354.928 312.18 355.193 312.049 355.534C311.918 355.875 311.853 356.273 311.853 356.727ZM318.071 360V353.455H319.302V354.494H319.37C319.49 354.142 319.7 353.865 320.001 353.663C320.305 353.459 320.649 353.357 321.032 353.357C321.112 353.357 321.206 353.359 321.314 353.365C321.424 353.371 321.511 353.378 321.574 353.386V354.605C321.522 354.591 321.431 354.575 321.301 354.558C321.17 354.538 321.039 354.528 320.909 354.528C320.608 354.528 320.339 354.592 320.103 354.72C319.87 354.845 319.686 355.02 319.549 355.244C319.413 355.466 319.345 355.719 319.345 356.003V360H318.071ZM329.266 351.273V360H327.945V352.594H327.894L325.806 353.957V352.696L327.983 351.273H329.266ZM334.636 360.119C334.025 360.119 333.485 360.014 333.016 359.804C332.55 359.594 332.185 359.304 331.921 358.935C331.657 358.565 331.526 358.145 331.529 357.673C331.526 357.304 331.602 356.964 331.755 356.655C331.911 356.342 332.123 356.082 332.39 355.875C332.657 355.665 332.955 355.531 333.285 355.474V355.423C332.85 355.318 332.502 355.085 332.241 354.724C331.979 354.364 331.85 353.949 331.853 353.48C331.85 353.034 331.968 352.636 332.207 352.287C332.448 351.935 332.779 351.658 333.2 351.456C333.62 351.254 334.099 351.153 334.636 351.153C335.167 351.153 335.641 351.256 336.059 351.46C336.479 351.662 336.81 351.939 337.052 352.291C337.293 352.641 337.415 353.037 337.418 353.48C337.415 353.949 337.282 354.364 337.018 354.724C336.754 355.085 336.41 355.318 335.986 355.423V355.474C336.313 355.531 336.607 355.665 336.869 355.875C337.133 356.082 337.343 356.342 337.499 356.655C337.658 356.964 337.739 357.304 337.742 357.673C337.739 358.145 337.606 358.565 337.342 358.935C337.077 359.304 336.711 359.594 336.242 359.804C335.776 360.014 335.241 360.119 334.636 360.119ZM334.636 359.041C334.996 359.041 335.309 358.982 335.573 358.862C335.837 358.74 336.042 358.571 336.187 358.355C336.332 358.136 336.406 357.881 336.408 357.588C336.406 357.284 336.326 357.016 336.17 356.783C336.016 356.55 335.807 356.366 335.543 356.233C335.279 356.099 334.977 356.033 334.636 356.033C334.292 356.033 333.986 356.099 333.719 356.233C333.452 356.366 333.242 356.55 333.089 356.783C332.935 357.016 332.86 357.284 332.863 357.588C332.86 357.881 332.93 358.136 333.072 358.355C333.217 358.571 333.423 358.74 333.69 358.862C333.957 358.982 334.272 359.041 334.636 359.041ZM334.636 354.98C334.925 354.98 335.182 354.922 335.407 354.805C335.631 354.689 335.807 354.527 335.935 354.32C336.066 354.112 336.133 353.869 336.136 353.591C336.133 353.318 336.067 353.08 335.94 352.875C335.815 352.67 335.64 352.513 335.415 352.402C335.191 352.288 334.931 352.232 334.636 352.232C334.334 352.232 334.07 352.288 333.843 352.402C333.619 352.513 333.444 352.67 333.319 352.875C333.194 353.08 333.133 353.318 333.136 353.591C333.133 353.869 333.195 354.112 333.323 354.32C333.451 354.527 333.627 354.689 333.852 354.805C334.079 354.922 334.34 354.98 334.636 354.98Z" fill="#9CA4AB"/>
<path d="M16.8574 118L327.857 118" stroke="#F7FAFC" stroke-dasharray="5 2"/>
<path d="M16.8574 166L327.857 166" stroke="#F7FAFC" stroke-dasharray="5 2"/>
<path d="M16.8574 214L327.857 214" stroke="#F7FAFC" stroke-dasharray="5 2"/>
<path d="M16.8574 262L327.857 262" stroke="#F7FAFC" stroke-dasharray="5 2"/>
<path d="M16.8574 310L327.857 310" stroke="#F7FAFC" stroke-dasharray="5 2"/>
<path d="M346.093 113.273V122H344.771V114.594H344.72L342.632 115.957V114.696L344.81 113.273H346.093ZM348.513 122V121.045L351.466 117.986C351.782 117.653 352.042 117.362 352.246 117.112C352.454 116.859 352.608 116.619 352.711 116.392C352.813 116.165 352.864 115.923 352.864 115.668C352.864 115.378 352.796 115.128 352.66 114.918C352.523 114.705 352.337 114.541 352.101 114.428C351.866 114.311 351.6 114.253 351.305 114.253C350.992 114.253 350.719 114.317 350.486 114.445C350.253 114.572 350.074 114.753 349.949 114.986C349.824 115.219 349.762 115.491 349.762 115.804H348.505C348.505 115.273 348.627 114.808 348.871 114.411C349.116 114.013 349.451 113.705 349.877 113.486C350.303 113.264 350.787 113.153 351.33 113.153C351.878 113.153 352.361 113.263 352.779 113.482C353.199 113.697 353.528 113.993 353.763 114.368C353.999 114.74 354.117 115.161 354.117 115.629C354.117 115.953 354.056 116.27 353.934 116.58C353.814 116.889 353.606 117.234 353.307 117.615C353.009 117.993 352.594 118.452 352.063 118.991L350.329 120.807V120.871H354.258V122H348.513ZM357.122 119.78L357.113 118.224H357.335L359.943 115.455H361.468L358.494 118.608H358.293L357.122 119.78ZM355.95 122V113.273H357.224V122H355.95ZM360.083 122L357.74 118.889L358.617 117.999L361.647 122H360.083Z" fill="#9CA4AB"/>
<path d="M345.899 161.273V170H344.578V162.594H344.527L342.439 163.957V162.696L344.616 161.273H345.899ZM351.358 170.145C350.685 170.142 350.11 169.964 349.632 169.612C349.155 169.26 348.79 168.747 348.537 168.074C348.284 167.401 348.158 166.589 348.158 165.641C348.158 164.695 348.284 163.886 348.537 163.216C348.793 162.545 349.159 162.034 349.637 161.682C350.117 161.33 350.691 161.153 351.358 161.153C352.026 161.153 352.598 161.331 353.076 161.686C353.553 162.038 353.918 162.55 354.171 163.22C354.426 163.888 354.554 164.695 354.554 165.641C354.554 166.592 354.428 167.405 354.175 168.078C353.922 168.749 353.557 169.261 353.08 169.616C352.603 169.969 352.029 170.145 351.358 170.145ZM351.358 169.007C351.949 169.007 352.411 168.719 352.743 168.142C353.078 167.565 353.246 166.732 353.246 165.641C353.246 164.916 353.169 164.304 353.016 163.804C352.865 163.301 352.648 162.92 352.364 162.662C352.083 162.401 351.748 162.27 351.358 162.27C350.77 162.27 350.309 162.56 349.973 163.139C349.638 163.719 349.469 164.553 349.466 165.641C349.466 166.368 349.542 166.983 349.692 167.486C349.846 167.986 350.063 168.365 350.344 168.624C350.625 168.879 350.963 169.007 351.358 169.007ZM357.315 167.78L357.306 166.224H357.528L360.136 163.455H361.662L358.687 166.608H358.487L357.315 167.78ZM356.143 170V161.273H357.417V170H356.143ZM360.277 170L357.933 166.889L358.811 165.999L361.841 170H360.277Z" fill="#9CA4AB"/>
<path d="M348.485 218.119C347.874 218.119 347.334 218.014 346.866 217.804C346.4 217.594 346.035 217.304 345.77 216.935C345.506 216.565 345.376 216.145 345.378 215.673C345.376 215.304 345.451 214.964 345.604 214.655C345.76 214.342 345.972 214.082 346.239 213.875C346.506 213.665 346.805 213.531 347.134 213.474V213.423C346.699 213.318 346.351 213.085 346.09 212.724C345.829 212.364 345.699 211.949 345.702 211.48C345.699 211.034 345.817 210.636 346.056 210.287C346.297 209.935 346.628 209.658 347.049 209.456C347.469 209.254 347.948 209.153 348.485 209.153C349.016 209.153 349.491 209.256 349.908 209.46C350.329 209.662 350.66 209.939 350.901 210.291C351.143 210.641 351.265 211.037 351.268 211.48C351.265 211.949 351.131 212.364 350.867 212.724C350.603 213.085 350.259 213.318 349.836 213.423V213.474C350.162 213.531 350.457 213.665 350.718 213.875C350.982 214.082 351.192 214.342 351.349 214.655C351.508 214.964 351.589 215.304 351.591 215.673C351.589 216.145 351.455 216.565 351.191 216.935C350.927 217.304 350.56 217.594 350.091 217.804C349.626 218.014 349.09 218.119 348.485 218.119ZM348.485 217.041C348.846 217.041 349.158 216.982 349.422 216.862C349.687 216.74 349.891 216.571 350.036 216.355C350.181 216.136 350.255 215.881 350.258 215.588C350.255 215.284 350.175 215.016 350.019 214.783C349.866 214.55 349.657 214.366 349.393 214.233C349.128 214.099 348.826 214.033 348.485 214.033C348.141 214.033 347.836 214.099 347.569 214.233C347.302 214.366 347.091 214.55 346.938 214.783C346.785 215.016 346.709 215.284 346.712 215.588C346.709 215.881 346.779 216.136 346.921 216.355C347.066 216.571 347.272 216.74 347.539 216.862C347.806 216.982 348.121 217.041 348.485 217.041ZM348.485 212.98C348.775 212.98 349.032 212.922 349.256 212.805C349.481 212.689 349.657 212.527 349.785 212.32C349.915 212.112 349.982 211.869 349.985 211.591C349.982 211.318 349.917 211.08 349.789 210.875C349.664 210.67 349.489 210.513 349.265 210.402C349.04 210.288 348.78 210.232 348.485 210.232C348.184 210.232 347.92 210.288 347.692 210.402C347.468 210.513 347.293 210.67 347.168 210.875C347.043 211.08 346.982 211.318 346.985 211.591C346.982 211.869 347.045 212.112 347.172 212.32C347.3 212.527 347.476 212.689 347.701 212.805C347.928 212.922 348.189 212.98 348.485 212.98ZM354.367 215.78L354.358 214.224H354.58L357.188 211.455H358.714L355.739 214.608H355.539L354.367 215.78ZM353.195 218V209.273H354.469V218H353.195ZM357.329 218L354.985 214.889L355.863 213.999L358.893 218H357.329Z" fill="#9CA4AB"/>
<path d="M345.218 264.295V263.23L348.989 257.273H349.829V258.841H349.296L346.599 263.111V263.179H351.768V264.295H345.218ZM349.356 266V263.972L349.364 263.486V257.273H350.613V266H349.356ZM354.502 263.78L354.493 262.224H354.715L357.323 259.455H358.848L355.874 262.608H355.674L354.502 263.78ZM353.33 266V257.273H354.604V266H353.33ZM357.463 266L355.12 262.889L355.998 261.999L359.027 266H357.463Z" fill="#9CA4AB"/>
<path d="M351.862 314.145C351.189 314.142 350.614 313.964 350.136 313.612C349.659 313.26 349.294 312.747 349.041 312.074C348.788 311.401 348.662 310.589 348.662 309.641C348.662 308.695 348.788 307.886 349.041 307.216C349.297 306.545 349.663 306.034 350.141 305.682C350.621 305.33 351.195 305.153 351.862 305.153C352.53 305.153 353.102 305.331 353.58 305.686C354.057 306.038 354.422 306.55 354.675 307.22C354.93 307.888 355.058 308.695 355.058 309.641C355.058 310.592 354.932 311.405 354.679 312.078C354.426 312.749 354.061 313.261 353.584 313.616C353.107 313.969 352.533 314.145 351.862 314.145ZM351.862 313.007C352.453 313.007 352.915 312.719 353.247 312.142C353.582 311.565 353.75 310.732 353.75 309.641C353.75 308.916 353.673 308.304 353.52 307.804C353.369 307.301 353.152 306.92 352.868 306.662C352.587 306.401 352.251 306.27 351.862 306.27C351.274 306.27 350.813 306.56 350.477 307.139C350.142 307.719 349.973 308.553 349.97 309.641C349.97 310.368 350.045 310.983 350.196 311.486C350.349 311.986 350.567 312.365 350.848 312.624C351.129 312.879 351.467 313.007 351.862 313.007Z" fill="#9CA4AB"/>
<path d="M16.8574 301.515H36.2949L55.7324 294.626L75.1699 280.846H94.6074L114.045 267.067L133.482 253.287L152.92 203.859L172.357 216.414L191.795 214.398L211.232 217.237L230.67 226.57L250.107 224.133L269.545 214.424L288.982 229.415L308.42 241.983L327.857 245.236" stroke="#ECF1F6" stroke-width="2"/>
<path d="M16.8574 296.565L36.2949 294.843L55.7324 283.819L75.1699 283.474L94.6074 270.728L114.045 256.26L133.482 261.772L152.92 231.457L172.357 247.992L191.795 228.701L211.232 225.256L230.67 203.898L250.107 213.543L269.545 181.85L288.982 188.74L308.42 181.85L327.857 161.181" stroke="#355FE5" stroke-width="2"/>
<path d="M41.2921 48.4545H44.5165L48.8347 58.9943H49.0051L53.3233 48.4545H56.5478V63H54.0194V53.0071H53.8844L49.8645 62.9574H47.9753L43.9554 52.9858H43.8205V63H41.2921V48.4545ZM64.162 63.2131C63.0966 63.2131 62.1733 62.9787 61.3921 62.5099C60.6108 62.0412 60.0048 61.3854 59.5739 60.5426C59.1478 59.6998 58.9347 58.715 58.9347 57.5881C58.9347 56.4612 59.1478 55.474 59.5739 54.6264C60.0048 53.7789 60.6108 53.1207 61.3921 52.652C62.1733 52.1832 63.0966 51.9489 64.162 51.9489C65.2273 51.9489 66.1506 52.1832 66.9319 52.652C67.7131 53.1207 68.3168 53.7789 68.7429 54.6264C69.1738 55.474 69.3892 56.4612 69.3892 57.5881C69.3892 58.715 69.1738 59.6998 68.7429 60.5426C68.3168 61.3854 67.7131 62.0412 66.9319 62.5099C66.1506 62.9787 65.2273 63.2131 64.162 63.2131ZM64.1762 61.1534C64.7538 61.1534 65.2368 60.9948 65.625 60.6776C66.0133 60.3556 66.3021 59.9247 66.4915 59.3849C66.6856 58.8452 66.7827 58.2438 66.7827 57.581C66.7827 56.9134 66.6856 56.3097 66.4915 55.7699C66.3021 55.2254 66.0133 54.7921 65.625 54.4702C65.2368 54.1482 64.7538 53.9872 64.1762 53.9872C63.5843 53.9872 63.0919 54.1482 62.6989 54.4702C62.3106 54.7921 62.0194 55.2254 61.8253 55.7699C61.6359 56.3097 61.5412 56.9134 61.5412 57.581C61.5412 58.2438 61.6359 58.8452 61.8253 59.3849C62.0194 59.9247 62.3106 60.3556 62.6989 60.6776C63.0919 60.9948 63.5843 61.1534 64.1762 61.1534ZM74.2424 56.608V63H71.6714V52.0909H74.1288V53.9446H74.2566C74.5076 53.3338 74.9077 52.8485 75.4569 52.4886C76.0109 52.1288 76.6951 51.9489 77.5095 51.9489C78.2623 51.9489 78.9181 52.1098 79.4768 52.4318C80.0403 52.7538 80.4759 53.2202 80.7836 53.831C81.0961 54.4418 81.25 55.1828 81.2453 56.054V63H78.6743V56.4517C78.6743 55.7225 78.4849 55.152 78.1061 54.7401C77.732 54.3281 77.2136 54.1222 76.5507 54.1222C76.1009 54.1222 75.7008 54.2216 75.3504 54.4205C75.0047 54.6146 74.7325 54.8963 74.5336 55.2656C74.3395 55.6349 74.2424 56.0824 74.2424 56.608ZM88.7885 63.2131C87.6947 63.2131 86.7501 62.9858 85.9547 62.5312C85.1639 62.072 84.5555 61.4233 84.1294 60.5852C83.7032 59.7424 83.4902 58.7505 83.4902 57.6094C83.4902 56.4872 83.7032 55.5024 84.1294 54.6548C84.5602 53.8026 85.1616 53.1397 85.9333 52.6662C86.7051 52.188 87.6118 51.9489 88.6535 51.9489C89.3259 51.9489 89.9603 52.0578 90.5569 52.2756C91.1583 52.4886 91.6886 52.8201 92.1478 53.2699C92.6118 53.7197 92.9764 54.2926 93.2416 54.9886C93.5067 55.6799 93.6393 56.5038 93.6393 57.4602V58.2486H84.6975V56.5156H91.1748C91.1701 56.0232 91.0636 55.5852 90.8552 55.2017C90.6469 54.8134 90.3557 54.508 89.9816 54.2855C89.6123 54.063 89.1815 53.9517 88.689 53.9517C88.1635 53.9517 87.7018 54.0795 87.3041 54.3352C86.9064 54.5862 86.5962 54.9176 86.3737 55.3295C86.1559 55.7367 86.0446 56.1842 86.0399 56.6719V58.1847C86.0399 58.8191 86.1559 59.3636 86.3879 59.8182C86.6199 60.268 86.9442 60.6136 87.3609 60.8551C87.7776 61.0919 88.2653 61.2102 88.824 61.2102C89.198 61.2102 89.5366 61.1581 89.8396 61.054C90.1426 60.9451 90.4054 60.7865 90.6279 60.5781C90.8505 60.3698 91.0186 60.1117 91.1322 59.804L93.5328 60.0739C93.3813 60.7083 93.0924 61.2623 92.6663 61.7358C92.2449 62.2045 91.7051 62.5691 91.047 62.8295C90.3888 63.0852 89.636 63.2131 88.7885 63.2131ZM97.1999 67.0909C96.8495 67.0909 96.5252 67.0625 96.2269 67.0057C95.9333 66.9536 95.6989 66.892 95.5238 66.821L96.1203 64.8182C96.4944 64.9271 96.8282 64.9792 97.1218 64.9744C97.4153 64.9697 97.6734 64.8774 97.8959 64.6974C98.1232 64.5223 98.315 64.2287 98.4712 63.8168L98.6914 63.2273L94.7354 52.0909H97.4627L99.9769 60.3295H100.091L102.612 52.0909H105.346L100.978 64.321C100.775 64.8987 100.505 65.3935 100.169 65.8054C99.8325 66.2221 99.4205 66.5393 98.9328 66.7571C98.4499 66.9796 97.8722 67.0909 97.1999 67.0909ZM112.4 63V48.4545H121.718V50.6634H115.035V54.6122H121.079V56.821H115.035V63H112.4ZM126.676 48.4545V63H124.105V48.4545H126.676ZM134.178 63.2131C133.113 63.2131 132.19 62.9787 131.408 62.5099C130.627 62.0412 130.021 61.3854 129.59 60.5426C129.164 59.6998 128.951 58.715 128.951 57.5881C128.951 56.4612 129.164 55.474 129.59 54.6264C130.021 53.7789 130.627 53.1207 131.408 52.652C132.19 52.1832 133.113 51.9489 134.178 51.9489C135.244 51.9489 136.167 52.1832 136.948 52.652C137.73 53.1207 138.333 53.7789 138.759 54.6264C139.19 55.474 139.406 56.4612 139.406 57.5881C139.406 58.715 139.19 59.6998 138.759 60.5426C138.333 61.3854 137.73 62.0412 136.948 62.5099C136.167 62.9787 135.244 63.2131 134.178 63.2131ZM134.193 61.1534C134.77 61.1534 135.253 60.9948 135.641 60.6776C136.03 60.3556 136.319 59.9247 136.508 59.3849C136.702 58.8452 136.799 58.2438 136.799 57.581C136.799 56.9134 136.702 56.3097 136.508 55.7699C136.319 55.2254 136.03 54.7921 135.641 54.4702C135.253 54.1482 134.77 53.9872 134.193 53.9872C133.601 53.9872 133.108 54.1482 132.715 54.4702C132.327 54.7921 132.036 55.2254 131.842 55.7699C131.652 56.3097 131.558 56.9134 131.558 57.581C131.558 58.2438 131.652 58.8452 131.842 59.3849C132.036 59.9247 132.327 60.3556 132.715 60.6776C133.108 60.9948 133.601 61.1534 134.193 61.1534ZM143.627 63L140.544 52.0909H143.165L145.083 59.7614H145.182L147.142 52.0909H149.735L151.695 59.7188H151.801L153.691 52.0909H156.319L153.229 63H150.551L148.506 55.6278H148.357L146.311 63H143.627Z" fill="#1F2C37"/>
<rect x="254.357" y="39.5" width="111" height="33" rx="7.5" fill="#FDFDFD"/>
<path d="M269.255 61V53.542H266.381V52.36H273.383V53.542H270.509V61H269.255ZM279.292 61V57.814C279.292 57.562 279.27 57.304 279.226 57.04C279.186 56.772 279.106 56.524 278.986 56.296C278.87 56.068 278.704 55.884 278.488 55.744C278.276 55.604 277.998 55.534 277.654 55.534C277.43 55.534 277.218 55.572 277.018 55.648C276.818 55.72 276.642 55.838 276.49 56.002C276.342 56.166 276.224 56.382 276.136 56.65C276.052 56.918 276.01 57.244 276.01 57.628L275.23 57.334C275.23 56.746 275.34 56.228 275.56 55.78C275.78 55.328 276.096 54.976 276.508 54.724C276.92 54.472 277.418 54.346 278.002 54.346C278.45 54.346 278.826 54.418 279.13 54.562C279.434 54.706 279.68 54.896 279.868 55.132C280.06 55.364 280.206 55.618 280.306 55.894C280.406 56.17 280.474 56.44 280.51 56.704C280.546 56.968 280.564 57.2 280.564 57.4V61H279.292ZM274.738 61V52.36H275.86V57.022H276.01V61H274.738ZM282.646 53.458V52.24H283.9V53.458H282.646ZM282.646 61V54.52H283.9V61H282.646ZM288.58 61.174C287.792 61.174 287.15 61 286.654 60.652C286.158 60.304 285.854 59.814 285.742 59.182L287.026 58.984C287.106 59.32 287.29 59.586 287.578 59.782C287.87 59.974 288.232 60.07 288.664 60.07C289.056 60.07 289.362 59.99 289.582 59.83C289.806 59.67 289.918 59.45 289.918 59.17C289.918 59.006 289.878 58.874 289.798 58.774C289.722 58.67 289.56 58.572 289.312 58.48C289.064 58.388 288.686 58.274 288.178 58.138C287.622 57.994 287.18 57.84 286.852 57.676C286.528 57.508 286.296 57.314 286.156 57.094C286.02 56.87 285.952 56.6 285.952 56.284C285.952 55.892 286.056 55.55 286.264 55.258C286.472 54.966 286.764 54.74 287.14 54.58C287.52 54.42 287.964 54.34 288.472 54.34C288.968 54.34 289.41 54.418 289.798 54.574C290.186 54.73 290.5 54.952 290.74 55.24C290.98 55.524 291.124 55.858 291.172 56.242L289.888 56.476C289.844 56.164 289.698 55.918 289.45 55.738C289.202 55.558 288.88 55.46 288.484 55.444C288.104 55.428 287.796 55.492 287.56 55.636C287.324 55.776 287.206 55.97 287.206 56.218C287.206 56.362 287.25 56.484 287.338 56.584C287.43 56.684 287.606 56.78 287.866 56.872C288.126 56.964 288.51 57.074 289.018 57.202C289.562 57.342 289.994 57.498 290.314 57.67C290.634 57.838 290.862 58.04 290.998 58.276C291.138 58.508 291.208 58.79 291.208 59.122C291.208 59.762 290.974 60.264 290.506 60.628C290.042 60.992 289.4 61.174 288.58 61.174ZM295.738 61V52.36H296.872L300.004 58.858L303.118 52.36H304.264V60.994H303.076V55.084L300.286 61H299.716L296.92 55.084V61H295.738ZM309.159 61.18C308.511 61.18 307.949 61.034 307.473 60.742C306.997 60.45 306.629 60.048 306.369 59.536C306.113 59.02 305.985 58.426 305.985 57.754C305.985 57.078 306.117 56.484 306.381 55.972C306.645 55.456 307.015 55.056 307.491 54.772C307.967 54.484 308.523 54.34 309.159 54.34C309.807 54.34 310.369 54.486 310.845 54.778C311.321 55.07 311.689 55.472 311.949 55.984C312.209 56.496 312.339 57.086 312.339 57.754C312.339 58.43 312.207 59.026 311.943 59.542C311.683 60.054 311.315 60.456 310.839 60.748C310.363 61.036 309.803 61.18 309.159 61.18ZM309.159 59.998C309.779 59.998 310.241 59.79 310.545 59.374C310.853 58.954 311.007 58.414 311.007 57.754C311.007 57.078 310.851 56.538 310.539 56.134C310.231 55.726 309.771 55.522 309.159 55.522C308.739 55.522 308.393 55.618 308.121 55.81C307.849 55.998 307.647 56.26 307.515 56.596C307.383 56.928 307.317 57.314 307.317 57.754C307.317 58.434 307.473 58.978 307.785 59.386C308.097 59.794 308.555 59.998 309.159 59.998ZM318.606 61V57.814C318.606 57.562 318.584 57.304 318.54 57.04C318.5 56.772 318.42 56.524 318.3 56.296C318.184 56.068 318.018 55.884 317.802 55.744C317.59 55.604 317.312 55.534 316.968 55.534C316.744 55.534 316.532 55.572 316.332 55.648C316.132 55.72 315.956 55.838 315.804 56.002C315.656 56.166 315.538 56.382 315.45 56.65C315.366 56.918 315.324 57.244 315.324 57.628L314.544 57.334C314.544 56.746 314.654 56.228 314.874 55.78C315.094 55.328 315.41 54.976 315.822 54.724C316.234 54.472 316.732 54.346 317.316 54.346C317.764 54.346 318.14 54.418 318.444 54.562C318.748 54.706 318.994 54.896 319.182 55.132C319.374 55.364 319.52 55.618 319.62 55.894C319.72 56.17 319.788 56.44 319.824 56.704C319.86 56.968 319.878 57.2 319.878 57.4V61H318.606ZM314.052 61V54.52H315.174V56.392H315.324V61H314.052ZM325.548 61C325.14 61.08 324.74 61.114 324.348 61.102C323.956 61.09 323.606 61.014 323.298 60.874C322.99 60.734 322.758 60.514 322.602 60.214C322.462 59.946 322.386 59.674 322.374 59.398C322.366 59.118 322.362 58.802 322.362 58.45V52.72H323.622V58.39C323.622 58.65 323.624 58.876 323.628 59.068C323.636 59.26 323.678 59.422 323.754 59.554C323.898 59.802 324.126 59.944 324.438 59.98C324.754 60.012 325.124 59.998 325.548 59.938V61ZM321.12 55.528V54.52H325.548V55.528H321.12ZM331.863 61V57.814C331.863 57.562 331.841 57.304 331.797 57.04C331.757 56.772 331.677 56.524 331.557 56.296C331.441 56.068 331.275 55.884 331.059 55.744C330.847 55.604 330.569 55.534 330.225 55.534C330.001 55.534 329.789 55.572 329.589 55.648C329.389 55.72 329.213 55.838 329.061 56.002C328.913 56.166 328.795 56.382 328.707 56.65C328.623 56.918 328.581 57.244 328.581 57.628L327.801 57.334C327.801 56.746 327.911 56.228 328.131 55.78C328.351 55.328 328.667 54.976 329.079 54.724C329.491 54.472 329.989 54.346 330.573 54.346C331.021 54.346 331.397 54.418 331.701 54.562C332.005 54.706 332.251 54.896 332.439 55.132C332.631 55.364 332.777 55.618 332.877 55.894C332.977 56.17 333.045 56.44 333.081 56.704C333.117 56.968 333.135 57.2 333.135 57.4V61H331.863ZM327.309 61V52.36H328.431V57.022H328.581V61H327.309Z" fill="#1F2C37"/>
<path d="M341.857 54L345.857 58L349.857 54" stroke="#1F2C37" stroke-width="1.5" stroke-linecap="round" stroke-linejoin="round"/>
<rect x="254.357" y="39.5" width="111" height="33" rx="7.5" stroke="#EDF2F7"/>
<g clip-path="url(#clip0_6536_8192)" filter="url(#filter1_d_6536_8192)">
<circle cx="133.857" cy="204" r="10" fill="#232323"/>
<circle cx="133.857" cy="204" r="3" fill="white"/>
<mask id="mask0_6536_8192" style="mask-type:luminance" maskUnits="userSpaceOnUse" x="130" y="201" width="7" height="6">
<circle cx="133.857" cy="204" r="3" fill="white"/>
</mask>
<g mask="url(#mask0_6536_8192)">
</g>
</g>
<g clip-path="url(#clip1_6536_8192)" filter="url(#filter2_d_6536_8192)">
<path fill-rule="evenodd" clip-rule="evenodd" d="M96.8574 152C94.6483 152 92.8574 153.791 92.8574 156V184C92.8574 186.209 94.6483 188 96.8574 188H127.732L132.352 193.28C133.149 194.19 134.566 194.19 135.363 193.28L139.982 188H171.857C174.067 188 175.857 186.209 175.857 184V156C175.857 153.791 174.067 152 171.857 152H96.8574Z" fill="#232323"/>
<path d="M104.878 175.091V164.182H105.577V175.091H104.878ZM107.064 167.565C107.019 167.162 106.831 166.849 106.501 166.628C106.172 166.403 105.757 166.291 105.257 166.291C104.899 166.291 104.59 166.348 104.328 166.462C104.067 166.572 103.864 166.726 103.719 166.922C103.577 167.115 103.506 167.335 103.506 167.582C103.506 167.79 103.554 167.969 103.651 168.119C103.75 168.27 103.879 168.396 104.038 168.499C104.2 168.598 104.374 168.682 104.558 168.75C104.743 168.815 104.921 168.869 105.091 168.912L105.943 169.134C106.222 169.202 106.507 169.294 106.8 169.411C107.092 169.527 107.364 169.68 107.614 169.871C107.864 170.061 108.065 170.297 108.219 170.578C108.375 170.859 108.453 171.196 108.453 171.588C108.453 172.082 108.325 172.521 108.07 172.905C107.817 173.288 107.449 173.591 106.966 173.812C106.486 174.034 105.905 174.145 105.223 174.145C104.57 174.145 104.004 174.041 103.527 173.834C103.05 173.626 102.676 173.332 102.406 172.952C102.136 172.568 101.987 172.114 101.959 171.588H103.28C103.305 171.903 103.408 172.166 103.587 172.376C103.769 172.584 104 172.739 104.281 172.841C104.565 172.94 104.876 172.99 105.215 172.99C105.587 172.99 105.918 172.932 106.207 172.815C106.5 172.696 106.73 172.531 106.898 172.321C107.065 172.108 107.149 171.859 107.149 171.575C107.149 171.317 107.075 171.105 106.928 170.94C106.783 170.776 106.585 170.639 106.335 170.531C106.088 170.423 105.808 170.328 105.496 170.246L104.465 169.964C103.766 169.774 103.212 169.494 102.803 169.125C102.396 168.756 102.193 168.267 102.193 167.659C102.193 167.156 102.33 166.717 102.602 166.342C102.875 165.967 103.244 165.676 103.71 165.469C104.176 165.259 104.702 165.153 105.287 165.153C105.878 165.153 106.399 165.257 106.851 165.464C107.305 165.672 107.663 165.957 107.925 166.321C108.186 166.682 108.323 167.097 108.334 167.565H107.064ZM113.278 165.273V174H111.957V166.594H111.906L109.818 167.957V166.696L111.996 165.273H113.278ZM115.516 172.295V171.23L119.287 165.273H120.127V166.841H119.594L116.897 171.111V171.179H122.066V172.295H115.516ZM119.654 174V171.972L119.662 171.486V165.273H120.911V174H119.654ZM124.957 172.807L124.893 173.271C124.851 173.612 124.778 173.967 124.676 174.337C124.577 174.709 124.473 175.054 124.365 175.372C124.26 175.69 124.173 175.943 124.105 176.131H123.202C123.239 175.955 123.29 175.716 123.355 175.415C123.42 175.116 123.484 174.783 123.547 174.413C123.609 174.044 123.656 173.668 123.688 173.284L123.73 172.807H124.957ZM126.8 174V173.045L129.753 169.986C130.068 169.653 130.328 169.362 130.533 169.112C130.74 168.859 130.895 168.619 130.997 168.392C131.099 168.165 131.151 167.923 131.151 167.668C131.151 167.378 131.082 167.128 130.946 166.918C130.81 166.705 130.624 166.541 130.388 166.428C130.152 166.311 129.886 166.253 129.591 166.253C129.278 166.253 129.006 166.317 128.773 166.445C128.54 166.572 128.361 166.753 128.236 166.986C128.111 167.219 128.048 167.491 128.048 167.804H126.791C126.791 167.273 126.913 166.808 127.158 166.411C127.402 166.013 127.737 165.705 128.163 165.486C128.589 165.264 129.074 165.153 129.616 165.153C130.165 165.153 130.648 165.263 131.065 165.482C131.486 165.697 131.814 165.993 132.05 166.368C132.286 166.74 132.403 167.161 132.403 167.629C132.403 167.953 132.342 168.27 132.22 168.58C132.101 168.889 131.892 169.234 131.594 169.615C131.295 169.993 130.881 170.452 130.349 170.991L128.615 172.807V172.871H132.544V174H126.8ZM137.257 174.145C136.584 174.142 136.009 173.964 135.532 173.612C135.054 173.26 134.689 172.747 134.436 172.074C134.184 171.401 134.057 170.589 134.057 169.641C134.057 168.695 134.184 167.886 134.436 167.216C134.692 166.545 135.059 166.034 135.536 165.682C136.016 165.33 136.59 165.153 137.257 165.153C137.925 165.153 138.498 165.331 138.975 165.686C139.452 166.038 139.817 166.55 140.07 167.22C140.326 167.888 140.453 168.695 140.453 169.641C140.453 170.592 140.327 171.405 140.074 172.078C139.821 172.749 139.456 173.261 138.979 173.616C138.502 173.969 137.928 174.145 137.257 174.145ZM137.257 173.007C137.848 173.007 138.31 172.719 138.642 172.142C138.978 171.565 139.145 170.732 139.145 169.641C139.145 168.916 139.069 168.304 138.915 167.804C138.765 167.301 138.547 166.92 138.263 166.662C137.982 166.401 137.647 166.27 137.257 166.27C136.669 166.27 136.208 166.56 135.873 167.139C135.537 167.719 135.368 168.553 135.365 169.641C135.365 170.368 135.441 170.983 135.591 171.486C135.745 171.986 135.962 172.365 136.243 172.624C136.524 172.879 136.863 173.007 137.257 173.007ZM145.064 174.145C144.39 174.142 143.815 173.964 143.338 173.612C142.86 173.26 142.495 172.747 142.243 172.074C141.99 171.401 141.863 170.589 141.863 169.641C141.863 168.695 141.99 167.886 142.243 167.216C142.498 166.545 142.865 166.034 143.342 165.682C143.822 165.33 144.396 165.153 145.064 165.153C145.731 165.153 146.304 165.331 146.781 165.686C147.258 166.038 147.623 166.55 147.876 167.22C148.132 167.888 148.26 168.695 148.26 169.641C148.26 170.592 148.133 171.405 147.88 172.078C147.627 172.749 147.262 173.261 146.785 173.616C146.308 173.969 145.734 174.145 145.064 174.145ZM145.064 173.007C145.654 173.007 146.116 172.719 146.448 172.142C146.784 171.565 146.951 170.732 146.951 169.641C146.951 168.916 146.875 168.304 146.721 167.804C146.571 167.301 146.353 166.92 146.069 166.662C145.788 166.401 145.453 166.27 145.064 166.27C144.475 166.27 144.014 166.56 143.679 167.139C143.343 167.719 143.174 168.553 143.171 169.641C143.171 170.368 143.247 170.983 143.397 171.486C143.551 171.986 143.768 172.365 144.049 172.624C144.331 172.879 144.669 173.007 145.064 173.007ZM150.371 174.081C150.138 174.081 149.938 173.999 149.771 173.834C149.603 173.666 149.519 173.464 149.519 173.229C149.519 172.996 149.603 172.797 149.771 172.632C149.938 172.464 150.138 172.381 150.371 172.381C150.604 172.381 150.805 172.464 150.972 172.632C151.14 172.797 151.224 172.996 151.224 173.229C151.224 173.385 151.184 173.528 151.104 173.659C151.028 173.787 150.925 173.889 150.798 173.966C150.67 174.043 150.528 174.081 150.371 174.081ZM155.695 174.145C155.022 174.142 154.447 173.964 153.969 173.612C153.492 173.26 153.127 172.747 152.874 172.074C152.621 171.401 152.495 170.589 152.495 169.641C152.495 168.695 152.621 167.886 152.874 167.216C153.13 166.545 153.496 166.034 153.974 165.682C154.454 165.33 155.028 165.153 155.695 165.153C156.363 165.153 156.935 165.331 157.413 165.686C157.89 166.038 158.255 166.55 158.508 167.22C158.763 167.888 158.891 168.695 158.891 169.641C158.891 170.592 158.765 171.405 158.512 172.078C158.259 172.749 157.894 173.261 157.417 173.616C156.94 173.969 156.366 174.145 155.695 174.145ZM155.695 173.007C156.286 173.007 156.748 172.719 157.08 172.142C157.415 171.565 157.583 170.732 157.583 169.641C157.583 168.916 157.506 168.304 157.353 167.804C157.202 167.301 156.985 166.92 156.701 166.662C156.42 166.401 156.084 166.27 155.695 166.27C155.107 166.27 154.646 166.56 154.31 167.139C153.975 167.719 153.806 168.553 153.803 169.641C153.803 170.368 153.879 170.983 154.029 171.486C154.182 171.986 154.4 172.365 154.681 172.624C154.962 172.879 155.3 173.007 155.695 173.007ZM163.501 174.145C162.828 174.142 162.253 173.964 161.776 173.612C161.298 173.26 160.933 172.747 160.68 172.074C160.427 171.401 160.301 170.589 160.301 169.641C160.301 168.695 160.427 167.886 160.68 167.216C160.936 166.545 161.302 166.034 161.78 165.682C162.26 165.33 162.834 165.153 163.501 165.153C164.169 165.153 164.741 165.331 165.219 165.686C165.696 166.038 166.061 166.55 166.314 167.22C166.57 167.888 166.697 168.695 166.697 169.641C166.697 170.592 166.571 171.405 166.318 172.078C166.065 172.749 165.7 173.261 165.223 173.616C164.746 173.969 164.172 174.145 163.501 174.145ZM163.501 173.007C164.092 173.007 164.554 172.719 164.886 172.142C165.222 171.565 165.389 170.732 165.389 169.641C165.389 168.916 165.312 168.304 165.159 167.804C165.008 167.301 164.791 166.92 164.507 166.662C164.226 166.401 163.891 166.27 163.501 166.27C162.913 166.27 162.452 166.56 162.116 167.139C161.781 167.719 161.612 168.553 161.609 169.641C161.609 170.368 161.685 170.983 161.835 171.486C161.989 171.986 162.206 172.365 162.487 172.624C162.768 172.879 163.106 173.007 163.501 173.007Z" fill="white"/>
</g>
</g>
<defs>
<filter id="filter0_d_6536_8192" x="0.857422" y="0" width="534" height="535" filterUnits="userSpaceOnUse" color-interpolation-filters="sRGB">
<feFlood flood-opacity="0" result="BackgroundImageFix"/>
<feColorMatrix in="SourceAlpha" type="matrix" values="0 0 0 0 0 0 0 0 0 0 0 0 0 0 0 0 0 0 127 0" result="hardAlpha"/>
<feOffset dx="65" dy="65"/>
<feGaussianBlur stdDeviation="40"/>
<feComposite in2="hardAlpha" operator="out"/>
<feColorMatrix type="matrix" values="0 0 0 0 0.137255 0 0 0 0 0.137255 0 0 0 0 0.137255 0 0 0 0.24 0"/>
<feBlend mode="normal" in2="BackgroundImageFix" result="effect1_dropShadow_6536_8192"/>
<feBlend mode="normal" in="SourceGraphic" in2="effect1_dropShadow_6536_8192" result="shape"/>
</filter>
<filter id="filter1_d_6536_8192" x="115.857" y="189" width="36" height="36" filterUnits="userSpaceOnUse" color-interpolation-filters="sRGB">
<feFlood flood-opacity="0" result="BackgroundImageFix"/>
<feColorMatrix in="SourceAlpha" type="matrix" values="0 0 0 0 0 0 0 0 0 0 0 0 0 0 0 0 0 0 127 0" result="hardAlpha"/>
<feOffset dy="3"/>
<feGaussianBlur stdDeviation="4"/>
<feColorMatrix type="matrix" values="0 0 0 0 0.439216 0 0 0 0 0.470588 0 0 0 0 0.529412 0 0 0 0.24 0"/>
<feBlend mode="normal" in2="BackgroundImageFix" result="effect1_dropShadow_6536_8192"/>
<feBlend mode="normal" in="SourceGraphic" in2="effect1_dropShadow_6536_8192" result="shape"/>
</filter>
<filter id="filter2_d_6536_8192" x="68.8574" y="138" width="131" height="90" filterUnits="userSpaceOnUse" color-interpolation-filters="sRGB">
<feFlood flood-opacity="0" result="BackgroundImageFix"/>
<feColorMatrix in="SourceAlpha" type="matrix" values="0 0 0 0 0 0 0 0 0 0 0 0 0 0 0 0 0 0 127 0" result="hardAlpha"/>
<feOffset dy="10"/>
<feGaussianBlur stdDeviation="12"/>
<feColorMatrix type="matrix" values="0 0 0 0 0.113725 0 0 0 0 0.164706 0 0 0 0 0.266667 0 0 0 0.12 0"/>
<feBlend mode="normal" in2="BackgroundImageFix" result="effect1_dropShadow_6536_8192"/>
<feBlend mode="normal" in="SourceGraphic" in2="effect1_dropShadow_6536_8192" result="shape"/>
</filter>
<clipPath id="clip0_6536_8192">
<rect width="20" height="20" fill="white" transform="translate(123.857 194)"/>
</clipPath>
<clipPath id="clip1_6536_8192">
<rect width="83" height="42" fill="white" transform="translate(92.8574 152)"/>
</clipPath>
</defs>
</svg>
