<svg width="27" height="26" viewBox="0 0 27 26" fill="none" xmlns="http://www.w3.org/2000/svg">
<path fill-rule="evenodd" clip-rule="evenodd" d="M8.30735 18.8041C12.0151 18.2624 14.5679 18.309 18.2805 18.823C18.5494 18.862 18.7951 18.9969 18.9722 19.2029C19.1493 19.4089 19.2459 19.6721 19.2441 19.9437C19.2441 20.2037 19.1548 20.4562 18.9933 20.6533C18.712 20.9971 18.4238 21.3351 18.1288 21.6673H19.5594C19.6493 21.5601 19.7398 21.4507 19.8313 21.3396C20.1526 20.9456 20.3279 20.4527 20.3275 19.9443C20.3275 18.8474 19.5269 17.9022 18.4289 17.7505C14.6286 17.2246 11.9723 17.1742 8.15081 17.7327C7.04147 17.8946 6.24414 18.8544 6.24414 19.9589C6.24414 20.4491 6.40393 20.9339 6.70672 21.3266C6.7961 21.4425 6.88439 21.5563 6.97214 21.6679H8.36802C8.09362 21.3393 7.82598 21.0052 7.56527 20.6658C7.41033 20.4626 7.32675 20.2139 7.32747 19.9584C7.32747 19.375 7.74672 18.8859 8.30735 18.8041ZM13.2858 13.5423C13.7126 13.5423 14.1352 13.4583 14.5295 13.2949C14.9238 13.1316 15.2821 12.8922 15.5839 12.5904C15.8857 12.2886 16.1251 11.9303 16.2884 11.536C16.4517 11.1417 16.5358 10.7191 16.5358 10.2923C16.5358 9.86552 16.4517 9.4429 16.2884 9.0486C16.1251 8.65429 15.8857 8.29601 15.5839 7.99422C15.2821 7.69243 14.9238 7.45304 14.5295 7.28971C14.1352 7.12638 13.7126 7.04232 13.2858 7.04232C12.4239 7.04232 11.5972 7.38473 10.9877 7.99422C10.3782 8.60371 10.0358 9.43036 10.0358 10.2923C10.0358 11.1543 10.3782 11.9809 10.9877 12.5904C11.5972 13.1999 12.4239 13.5423 13.2858 13.5423ZM13.2858 14.6257C14.4351 14.6257 15.5373 14.1691 16.3499 13.3564C17.1626 12.5438 17.6191 11.4416 17.6191 10.2923C17.6191 9.14305 17.1626 8.04085 16.3499 7.22819C15.5373 6.41553 14.4351 5.95898 13.2858 5.95898C12.1365 5.95898 11.0343 6.41553 10.2217 7.22819C9.40902 8.04085 8.95247 9.14305 8.95247 10.2923C8.95247 11.4416 9.40902 12.5438 10.2217 13.3564C11.0343 14.1691 12.1365 14.6257 13.2858 14.6257Z" fill="#3751FF"/>
<path fill-rule="evenodd" clip-rule="evenodd" d="M13.286 22.7503C18.6707 22.7503 23.036 18.385 23.036 13.0003C23.036 7.61562 18.6707 3.25033 13.286 3.25033C7.90126 3.25033 3.53597 7.61562 3.53597 13.0003C3.53597 18.385 7.90126 22.7503 13.286 22.7503ZM13.286 23.8337C19.2692 23.8337 24.1193 18.9836 24.1193 13.0003C24.1193 7.01708 19.2692 2.16699 13.286 2.16699C7.30272 2.16699 2.45264 7.01708 2.45264 13.0003C2.45264 18.9836 7.30272 23.8337 13.286 23.8337Z" fill="#3751FF"/>
</svg>
