<svg width="532" height="409" viewBox="0 0 532 409" fill="none" xmlns="http://www.w3.org/2000/svg">
<g filter="url(#filter0_d_6536_8242)">
<rect x="16.3574" y="15.5" width="370" height="248" rx="15.5" fill="white" stroke="#EDF2F7"/>
<path d="M49.1969 54.4531C49.1306 53.8329 48.8513 53.3499 48.3588 53.0043C47.8712 52.6586 47.2367 52.4858 46.4554 52.4858C45.9062 52.4858 45.4351 52.5687 45.0421 52.7344C44.6491 52.9001 44.3484 53.125 44.1401 53.4091C43.9318 53.6932 43.8252 54.0175 43.8205 54.3821C43.8205 54.6851 43.8891 54.9479 44.0265 55.1705C44.1685 55.393 44.3603 55.5824 44.6017 55.7386C44.8432 55.8902 45.1107 56.018 45.4043 56.1222C45.6979 56.2263 45.9938 56.3139 46.2921 56.3849L47.6557 56.7259C48.205 56.8537 48.7329 57.0265 49.2395 57.2443C49.7509 57.4621 50.2078 57.7367 50.6103 58.0682C51.0175 58.3996 51.3394 58.7997 51.5762 59.2685C51.8129 59.7372 51.9313 60.2865 51.9313 60.9162C51.9313 61.7685 51.7135 62.5189 51.2779 63.1676C50.8423 63.8116 50.2125 64.3158 49.3887 64.6804C48.5695 65.0402 47.5776 65.2202 46.4128 65.2202C45.2812 65.2202 44.2987 65.045 43.4654 64.6946C42.6368 64.3442 41.9881 63.8329 41.5194 63.1605C41.0553 62.4882 40.8044 61.669 40.7665 60.7031H43.3588C43.3967 61.2098 43.553 61.6312 43.8276 61.9673C44.1022 62.3035 44.4597 62.5545 44.9 62.7202C45.3451 62.8859 45.8423 62.9688 46.3915 62.9688C46.9644 62.9688 47.4663 62.8835 47.8972 62.7131C48.3328 62.5379 48.6737 62.2964 48.9199 61.9886C49.1661 61.6761 49.2916 61.3116 49.2963 60.8949C49.2916 60.5161 49.1803 60.2036 48.9625 59.9574C48.7447 59.7064 48.4393 59.4981 48.0463 59.3324C47.6581 59.1619 47.2035 59.0104 46.6827 58.8778L45.0279 58.4517C43.83 58.1439 42.883 57.6776 42.187 57.0526C41.4957 56.4228 41.15 55.5871 41.15 54.5455C41.15 53.6884 41.382 52.938 41.8461 52.294C42.3148 51.6501 42.9516 51.1506 43.7566 50.7955C44.5615 50.4356 45.473 50.2557 46.4909 50.2557C47.5231 50.2557 48.4275 50.4356 49.204 50.7955C49.9853 51.1506 50.5984 51.6454 51.0435 52.2798C51.4886 52.9096 51.7182 53.634 51.7324 54.4531H49.1969ZM54.2667 69.0909V54.0909H56.7951V55.8949H56.9443C57.0769 55.6297 57.2639 55.348 57.5054 55.0497C57.7468 54.7467 58.0735 54.4886 58.4855 54.2756C58.8974 54.0578 59.423 53.9489 60.0622 53.9489C60.905 53.9489 61.6649 54.1643 62.342 54.5952C63.0238 55.0213 63.5636 55.6534 63.9613 56.4915C64.3638 57.3248 64.565 58.3475 64.565 59.5597C64.565 60.7576 64.3685 61.7756 63.9755 62.6136C63.5825 63.4517 63.0475 64.0909 62.3704 64.5312C61.6933 64.9716 60.9263 65.1918 60.0693 65.1918C59.4443 65.1918 58.9258 65.0876 58.5139 64.8793C58.102 64.6709 57.7705 64.42 57.5196 64.1264C57.2734 63.8281 57.0816 63.5464 56.9443 63.2812H56.8377V69.0909H54.2667ZM56.788 59.5455C56.788 60.2509 56.8875 60.8688 57.0863 61.3991C57.2899 61.9295 57.5811 62.3437 57.9599 62.642C58.3434 62.9356 58.8074 63.0824 59.352 63.0824C59.9201 63.0824 60.396 62.9309 60.7795 62.6278C61.163 62.3201 61.4519 61.901 61.646 61.3707C61.8449 60.8357 61.9443 60.2273 61.9443 59.5455C61.9443 58.8684 61.8472 58.267 61.6531 57.7415C61.459 57.2159 61.1701 56.804 60.7866 56.5057C60.4031 56.2074 59.9249 56.0582 59.352 56.0582C58.8027 56.0582 58.3363 56.2027 57.9528 56.4915C57.5693 56.7803 57.2781 57.1851 57.0792 57.706C56.8851 58.2268 56.788 58.84 56.788 59.5455ZM71.6963 65.2131C70.6025 65.2131 69.6579 64.9858 68.8625 64.5312C68.0717 64.072 67.4633 63.4233 67.0372 62.5852C66.611 61.7424 66.398 60.7505 66.398 59.6094C66.398 58.4872 66.611 57.5024 67.0372 56.6548C67.4681 55.8026 68.0694 55.1397 68.8412 54.6662C69.6129 54.188 70.5197 53.9489 71.5613 53.9489C72.2337 53.9489 72.8681 54.0578 73.4647 54.2756C74.0661 54.4886 74.5964 54.8201 75.0556 55.2699C75.5197 55.7197 75.8842 56.2926 76.1494 56.9886C76.4145 57.6799 76.5471 58.5038 76.5471 59.4602V60.2486H67.6054V58.5156H74.0826C74.0779 58.0232 73.9714 57.5852 73.763 57.2017C73.5547 56.8134 73.2635 56.508 72.8895 56.2855C72.5201 56.063 72.0893 55.9517 71.5968 55.9517C71.0713 55.9517 70.6096 56.0795 70.2119 56.3352C69.8142 56.5862 69.504 56.9176 69.2815 57.3295C69.0637 57.7367 68.9524 58.1842 68.9477 58.6719V60.1847C68.9477 60.8191 69.0637 61.3636 69.2957 61.8182C69.5277 62.268 69.852 62.6136 70.2687 62.8551C70.6854 63.0919 71.1731 63.2102 71.7318 63.2102C72.1058 63.2102 72.4444 63.1581 72.7474 63.054C73.0504 62.9451 73.3132 62.7865 73.5358 62.5781C73.7583 62.3698 73.9264 62.1117 74.04 61.804L76.4406 62.0739C76.2891 62.7083 76.0002 63.2623 75.5741 63.7358C75.1527 64.2045 74.6129 64.5691 73.9548 64.8295C73.2967 65.0852 72.5438 65.2131 71.6963 65.2131ZM81.3932 58.608V65H78.8222V54.0909H81.2796V55.9446H81.4074C81.6584 55.3338 82.0585 54.8485 82.6077 54.4886C83.1617 54.1288 83.8459 53.9489 84.6603 53.9489C85.4131 53.9489 86.0689 54.1098 86.6276 54.4318C87.191 54.7538 87.6266 55.2202 87.9344 55.831C88.2469 56.4418 88.4008 57.1828 88.3961 58.054V65H85.825V58.4517C85.825 57.7225 85.6356 57.152 85.2569 56.7401C84.8828 56.3281 84.3643 56.1222 83.7015 56.1222C83.2516 56.1222 82.8515 56.2216 82.5012 56.4205C82.1555 56.6146 81.8833 56.8963 81.6844 57.2656C81.4903 57.6349 81.3932 58.0824 81.3932 58.608ZM95.158 65.1918C94.301 65.1918 93.5339 64.9716 92.8569 64.5312C92.1798 64.0909 91.6447 63.4517 91.2517 62.6136C90.8587 61.7756 90.6623 60.7576 90.6623 59.5597C90.6623 58.3475 90.8611 57.3248 91.2588 56.4915C91.6613 55.6534 92.2034 55.0213 92.8853 54.5952C93.5671 54.1643 94.327 53.9489 95.1651 53.9489C95.8043 53.9489 96.3299 54.0578 96.7418 54.2756C97.1537 54.4886 97.4804 54.7467 97.7219 55.0497C97.9634 55.348 98.1504 55.6297 98.283 55.8949H98.3895V50.4545H100.968V65H98.4392V63.2812H98.283C98.1504 63.5464 97.9587 63.8281 97.7077 64.1264C97.4568 64.42 97.1253 64.6709 96.7134 64.8793C96.3015 65.0876 95.783 65.1918 95.158 65.1918ZM95.8753 63.0824C96.4198 63.0824 96.8838 62.9356 97.2674 62.642C97.6509 62.3437 97.9421 61.9295 98.1409 61.3991C98.3398 60.8688 98.4392 60.2509 98.4392 59.5455C98.4392 58.84 98.3398 58.2268 98.1409 57.706C97.9468 57.1851 97.658 56.7803 97.2745 56.4915C96.8957 56.2027 96.4293 56.0582 95.8753 56.0582C95.3024 56.0582 94.8242 56.2074 94.4407 56.5057C94.0571 56.804 93.7683 57.2159 93.5742 57.7415C93.3801 58.267 93.283 58.8684 93.283 59.5455C93.283 60.2273 93.3801 60.8357 93.5742 61.3707C93.773 61.901 94.0642 62.3201 94.4478 62.6278C94.836 62.9309 95.3119 63.0824 95.8753 63.0824ZM103.807 65V54.0909H106.378V65H103.807ZM105.1 52.5426C104.693 52.5426 104.342 52.4077 104.049 52.1378C103.755 51.8632 103.608 51.5341 103.608 51.1506C103.608 50.7623 103.755 50.4332 104.049 50.1634C104.342 49.8887 104.693 49.7514 105.1 49.7514C105.512 49.7514 105.862 49.8887 106.151 50.1634C106.445 50.4332 106.591 50.7623 106.591 51.1506C106.591 51.5341 106.445 51.8632 106.151 52.1378C105.862 52.4077 105.512 52.5426 105.1 52.5426ZM111.693 58.608V65H109.122V54.0909H111.58V55.9446H111.707C111.958 55.3338 112.358 54.8485 112.908 54.4886C113.462 54.1288 114.146 53.9489 114.96 53.9489C115.713 53.9489 116.369 54.1098 116.928 54.4318C117.491 54.7538 117.927 55.2202 118.234 55.831C118.547 56.4418 118.701 57.1828 118.696 58.054V65H116.125V58.4517C116.125 57.7225 115.936 57.152 115.557 56.7401C115.183 56.3281 114.664 56.1222 114.001 56.1222C113.552 56.1222 113.152 56.2216 112.801 56.4205C112.456 56.6146 112.183 56.8963 111.984 57.2656C111.79 57.6349 111.693 58.0824 111.693 58.608ZM126.154 69.3182C125.231 69.3182 124.438 69.1927 123.775 68.9418C123.112 68.6955 122.579 68.3641 122.177 67.9474C121.774 67.5308 121.495 67.0691 121.339 66.5625L123.654 66.0014C123.758 66.2145 123.91 66.4252 124.109 66.6335C124.307 66.8466 124.575 67.0218 124.911 67.1591C125.252 67.3011 125.681 67.3722 126.197 67.3722C126.926 67.3722 127.529 67.1946 128.008 66.8395C128.486 66.4891 128.725 65.9115 128.725 65.1065V63.0398H128.597C128.465 63.3049 128.27 63.5772 128.015 63.8565C127.764 64.1359 127.43 64.3703 127.013 64.5597C126.601 64.7491 126.083 64.8438 125.458 64.8438C124.62 64.8438 123.86 64.6473 123.178 64.2543C122.501 63.8565 121.961 63.2647 121.559 62.4787C121.161 61.688 120.962 60.6984 120.962 59.5099C120.962 58.312 121.161 57.3011 121.559 56.4773C121.961 55.6487 122.503 55.0213 123.185 54.5952C123.867 54.1643 124.627 53.9489 125.465 53.9489C126.104 53.9489 126.63 54.0578 127.042 54.2756C127.458 54.4886 127.79 54.7467 128.036 55.0497C128.282 55.348 128.469 55.6297 128.597 55.8949H128.739V54.0909H131.275V65.1776C131.275 66.1103 131.052 66.8821 130.607 67.4929C130.162 68.1037 129.554 68.5606 128.782 68.8636C128.01 69.1667 127.134 69.3182 126.154 69.3182ZM126.175 62.8267C126.72 62.8267 127.184 62.6941 127.567 62.429C127.951 62.1638 128.242 61.7827 128.441 61.2855C128.64 60.7884 128.739 60.1918 128.739 59.4957C128.739 58.8092 128.64 58.2079 128.441 57.6918C128.247 57.1757 127.958 56.7756 127.574 56.4915C127.196 56.2027 126.729 56.0582 126.175 56.0582C125.602 56.0582 125.124 56.2074 124.741 56.5057C124.357 56.804 124.068 57.2135 123.874 57.7344C123.68 58.2505 123.583 58.8376 123.583 59.4957C123.583 60.1634 123.68 60.7481 123.874 61.25C124.073 61.7472 124.364 62.1354 124.748 62.4148C125.136 62.6894 125.612 62.8267 126.175 62.8267Z" fill="#1F2C37"/>
<circle cx="254.857" cy="121" r="3" fill="#232323"/>
<path d="M274.623 106.638C274.585 106.302 274.429 106.041 274.154 105.857C273.88 105.67 273.534 105.576 273.117 105.576C272.819 105.576 272.561 105.623 272.343 105.718C272.125 105.81 271.956 105.938 271.835 106.102C271.717 106.263 271.658 106.446 271.658 106.652C271.658 106.825 271.698 106.974 271.779 107.099C271.861 107.225 271.969 107.33 272.102 107.415C272.237 107.498 272.381 107.568 272.535 107.625C272.689 107.679 272.837 107.724 272.979 107.76L273.689 107.945C273.921 108.001 274.159 108.078 274.403 108.175C274.647 108.272 274.873 108.4 275.081 108.559C275.289 108.718 275.458 108.914 275.585 109.148C275.716 109.383 275.781 109.663 275.781 109.99C275.781 110.402 275.674 110.768 275.461 111.087C275.25 111.407 274.944 111.659 274.541 111.844C274.141 112.028 273.657 112.121 273.089 112.121C272.544 112.121 272.073 112.034 271.676 111.862C271.278 111.689 270.967 111.444 270.742 111.126C270.517 110.807 270.392 110.428 270.369 109.99H271.47C271.491 110.253 271.576 110.472 271.725 110.647C271.877 110.82 272.07 110.949 272.304 111.034C272.541 111.117 272.8 111.158 273.082 111.158C273.392 111.158 273.668 111.11 273.909 111.013C274.153 110.913 274.345 110.776 274.485 110.601C274.624 110.423 274.694 110.216 274.694 109.979C274.694 109.764 274.633 109.588 274.509 109.45C274.389 109.313 274.224 109.199 274.016 109.109C273.81 109.019 273.577 108.94 273.316 108.871L272.457 108.637C271.874 108.478 271.413 108.245 271.072 107.938C270.733 107.63 270.564 107.223 270.564 106.716C270.564 106.297 270.678 105.931 270.905 105.619C271.132 105.306 271.44 105.063 271.828 104.891C272.217 104.715 272.655 104.628 273.142 104.628C273.635 104.628 274.069 104.714 274.445 104.887C274.824 105.06 275.123 105.298 275.34 105.601C275.558 105.902 275.672 106.247 275.681 106.638H274.623ZM280.512 109.738V106.545H281.577V112H280.533V111.055H280.476C280.351 111.347 280.15 111.589 279.873 111.783C279.598 111.975 279.256 112.071 278.847 112.071C278.496 112.071 278.186 111.994 277.916 111.84C277.649 111.684 277.438 111.453 277.284 111.148C277.133 110.842 277.057 110.465 277.057 110.015V106.545H278.119V109.887C278.119 110.259 278.222 110.555 278.427 110.775C278.633 110.995 278.901 111.105 279.23 111.105C279.429 111.105 279.627 111.055 279.823 110.956C280.022 110.857 280.186 110.706 280.317 110.505C280.449 110.304 280.514 110.048 280.512 109.738ZM283.139 112V104.727H284.201V107.43H284.265C284.327 107.316 284.415 107.185 284.531 107.036C284.647 106.886 284.808 106.756 285.014 106.645C285.22 106.531 285.492 106.474 285.831 106.474C286.271 106.474 286.664 106.586 287.01 106.808C287.356 107.031 287.627 107.352 287.823 107.771C288.022 108.19 288.121 108.694 288.121 109.283C288.121 109.873 288.023 110.378 287.827 110.8C287.63 111.219 287.36 111.542 287.017 111.769C286.674 111.994 286.282 112.107 285.842 112.107C285.51 112.107 285.239 112.051 285.028 111.94C284.82 111.828 284.657 111.698 284.538 111.549C284.42 111.4 284.329 111.267 284.265 111.151H284.176V112H283.139ZM284.18 109.273C284.18 109.656 284.235 109.992 284.347 110.281C284.458 110.57 284.619 110.796 284.83 110.96C285.04 111.121 285.298 111.201 285.604 111.201C285.921 111.201 286.186 111.117 286.399 110.949C286.612 110.778 286.773 110.548 286.882 110.256C286.993 109.965 287.049 109.637 287.049 109.273C287.049 108.913 286.995 108.59 286.886 108.303C286.779 108.017 286.618 107.791 286.403 107.625C286.19 107.459 285.923 107.376 285.604 107.376C285.296 107.376 285.036 107.456 284.822 107.614C284.612 107.773 284.452 107.994 284.343 108.278C284.234 108.562 284.18 108.894 284.18 109.273ZM293.451 107.877L292.489 108.048C292.449 107.924 292.385 107.807 292.297 107.696C292.212 107.585 292.096 107.494 291.949 107.423C291.802 107.352 291.619 107.316 291.399 107.316C291.098 107.316 290.847 107.384 290.646 107.518C290.445 107.651 290.344 107.823 290.344 108.033C290.344 108.216 290.411 108.362 290.546 108.474C290.681 108.585 290.899 108.676 291.2 108.747L292.066 108.946C292.568 109.062 292.942 109.241 293.188 109.482C293.435 109.724 293.558 110.037 293.558 110.423C293.558 110.75 293.463 111.041 293.274 111.297C293.087 111.55 292.825 111.749 292.489 111.893C292.155 112.038 291.768 112.11 291.328 112.11C290.717 112.11 290.218 111.98 289.833 111.719C289.447 111.457 289.21 111.084 289.122 110.601L290.149 110.445C290.212 110.712 290.344 110.915 290.543 111.052C290.742 111.187 291.001 111.254 291.32 111.254C291.668 111.254 291.947 111.182 292.155 111.038C292.363 110.891 292.467 110.712 292.467 110.501C292.467 110.331 292.404 110.188 292.276 110.072C292.15 109.956 291.957 109.868 291.697 109.809L290.774 109.607C290.265 109.491 289.888 109.306 289.644 109.053C289.403 108.799 289.282 108.478 289.282 108.09C289.282 107.768 289.372 107.487 289.552 107.245C289.732 107.004 289.98 106.815 290.298 106.68C290.615 106.543 290.978 106.474 291.388 106.474C291.977 106.474 292.441 106.602 292.78 106.858C293.119 107.111 293.342 107.451 293.451 107.877ZM297.073 112.11C296.545 112.11 296.09 111.991 295.709 111.751C295.33 111.51 295.039 111.177 294.835 110.754C294.632 110.33 294.53 109.844 294.53 109.298C294.53 108.744 294.634 108.255 294.843 107.831C295.051 107.405 295.344 107.072 295.723 106.833C296.102 106.594 296.548 106.474 297.062 106.474C297.476 106.474 297.846 106.551 298.17 106.705C298.494 106.857 298.756 107.07 298.955 107.344C299.156 107.619 299.276 107.94 299.313 108.307H298.28C298.223 108.051 298.093 107.831 297.889 107.646C297.688 107.462 297.418 107.369 297.08 107.369C296.784 107.369 296.525 107.447 296.302 107.604C296.082 107.758 295.91 107.978 295.787 108.264C295.664 108.548 295.603 108.884 295.603 109.273C295.603 109.67 295.663 110.014 295.784 110.303C295.904 110.591 296.075 110.815 296.295 110.974C296.518 111.132 296.779 111.212 297.08 111.212C297.281 111.212 297.463 111.175 297.627 111.102C297.792 111.026 297.931 110.918 298.042 110.778C298.156 110.639 298.235 110.471 298.28 110.274H299.313C299.276 110.627 299.161 110.942 298.969 111.219C298.777 111.496 298.52 111.714 298.198 111.872C297.879 112.031 297.504 112.11 297.073 112.11ZM300.499 112V106.545H301.525V107.412H301.582C301.681 107.118 301.857 106.888 302.108 106.719C302.361 106.549 302.647 106.464 302.967 106.464C303.033 106.464 303.111 106.466 303.201 106.471C303.294 106.476 303.366 106.482 303.418 106.489V107.504C303.375 107.492 303.3 107.479 303.191 107.465C303.082 107.449 302.973 107.44 302.864 107.44C302.613 107.44 302.389 107.494 302.193 107.6C301.999 107.704 301.845 107.85 301.731 108.037C301.618 108.222 301.561 108.432 301.561 108.669V112H300.499ZM304.387 112V106.545H305.449V112H304.387ZM304.923 105.704C304.738 105.704 304.58 105.642 304.447 105.519C304.317 105.394 304.252 105.245 304.252 105.072C304.252 104.897 304.317 104.747 304.447 104.624C304.58 104.499 304.738 104.436 304.923 104.436C305.108 104.436 305.265 104.499 305.395 104.624C305.528 104.747 305.594 104.897 305.594 105.072C305.594 105.245 305.528 105.394 305.395 105.519C305.265 105.642 305.108 105.704 304.923 105.704ZM307.012 112V104.727H308.074V107.43H308.138C308.2 107.316 308.288 107.185 308.404 107.036C308.52 106.886 308.681 106.756 308.887 106.645C309.093 106.531 309.366 106.474 309.704 106.474C310.144 106.474 310.537 106.586 310.883 106.808C311.229 107.031 311.5 107.352 311.696 107.771C311.895 108.19 311.995 108.694 311.995 109.283C311.995 109.873 311.896 110.378 311.7 110.8C311.503 111.219 311.233 111.542 310.89 111.769C310.547 111.994 310.155 112.107 309.715 112.107C309.383 112.107 309.112 112.051 308.901 111.94C308.693 111.828 308.53 111.698 308.411 111.549C308.293 111.4 308.202 111.267 308.138 111.151H308.049V112H307.012ZM308.053 109.273C308.053 109.656 308.108 109.992 308.22 110.281C308.331 110.57 308.492 110.796 308.703 110.96C308.913 111.121 309.171 111.201 309.477 111.201C309.794 111.201 310.059 111.117 310.272 110.949C310.485 110.778 310.646 110.548 310.755 110.256C310.866 109.965 310.922 109.637 310.922 109.273C310.922 108.913 310.868 108.59 310.759 108.303C310.652 108.017 310.491 107.791 310.276 107.625C310.063 107.459 309.796 107.376 309.477 107.376C309.169 107.376 308.909 107.456 308.696 107.614C308.485 107.773 308.325 107.994 308.216 108.278C308.107 108.562 308.053 108.894 308.053 109.273ZM315.588 112.11C315.05 112.11 314.587 111.995 314.199 111.766C313.813 111.534 313.515 111.208 313.304 110.789C313.096 110.368 312.992 109.874 312.992 109.308C312.992 108.75 313.096 108.257 313.304 107.831C313.515 107.405 313.809 107.072 314.185 106.833C314.564 106.594 315.006 106.474 315.513 106.474C315.821 106.474 316.119 106.525 316.408 106.627C316.697 106.729 316.956 106.889 317.186 107.107C317.415 107.324 317.596 107.607 317.729 107.955C317.862 108.301 317.928 108.721 317.928 109.216V109.592H313.592V108.797H316.887C316.887 108.518 316.831 108.27 316.717 108.055C316.603 107.837 316.444 107.665 316.238 107.54C316.034 107.414 315.795 107.352 315.52 107.352C315.222 107.352 314.961 107.425 314.739 107.572C314.519 107.716 314.348 107.906 314.228 108.14C314.109 108.372 314.05 108.624 314.05 108.896V109.518C314.05 109.882 314.114 110.192 314.242 110.448C314.372 110.704 314.553 110.899 314.785 111.034C315.017 111.167 315.288 111.233 315.598 111.233C315.8 111.233 315.983 111.205 316.149 111.148C316.314 111.089 316.458 111.001 316.578 110.885C316.699 110.769 316.792 110.626 316.855 110.455L317.86 110.636C317.78 110.932 317.636 111.192 317.427 111.414C317.221 111.634 316.962 111.806 316.649 111.929C316.339 112.05 315.985 112.11 315.588 112.11Z" fill="#9CA4AB"/>
<path d="M274.044 138.273V125.545H274.859V138.273H274.044ZM276.395 129.617C276.349 129.183 276.153 128.845 275.808 128.603C275.467 128.361 275.023 128.24 274.476 128.24C274.092 128.24 273.762 128.298 273.487 128.414C273.212 128.53 273.001 128.687 272.855 128.886C272.709 129.085 272.635 129.312 272.632 129.567C272.632 129.78 272.68 129.964 272.776 130.119C272.875 130.275 273.009 130.408 273.178 130.517C273.347 130.623 273.535 130.713 273.74 130.786C273.946 130.858 274.153 130.92 274.362 130.969L275.316 131.208C275.701 131.298 276.07 131.419 276.425 131.571C276.783 131.723 277.103 131.916 277.384 132.148C277.669 132.38 277.895 132.66 278.061 132.988C278.226 133.316 278.309 133.701 278.309 134.141C278.309 134.738 278.157 135.263 277.852 135.717C277.547 136.168 277.106 136.521 276.529 136.776C275.956 137.028 275.262 137.154 274.446 137.154C273.654 137.154 272.966 137.031 272.383 136.786C271.803 136.541 271.349 136.183 271.021 135.712C270.696 135.242 270.52 134.668 270.494 133.992H272.308C272.335 134.347 272.444 134.642 272.637 134.877C272.829 135.112 273.079 135.288 273.387 135.404C273.699 135.52 274.047 135.578 274.431 135.578C274.832 135.578 275.184 135.518 275.485 135.399C275.79 135.277 276.029 135.107 276.201 134.892C276.374 134.673 276.461 134.418 276.465 134.126C276.461 133.861 276.383 133.643 276.231 133.47C276.079 133.295 275.865 133.149 275.59 133.033C275.318 132.913 275 132.807 274.635 132.714L273.477 132.416C272.638 132.201 271.975 131.874 271.488 131.437C271.004 130.996 270.762 130.411 270.762 129.682C270.762 129.082 270.925 128.557 271.249 128.106C271.578 127.655 272.023 127.305 272.587 127.057C273.15 126.805 273.788 126.679 274.501 126.679C275.223 126.679 275.856 126.805 276.4 127.057C276.947 127.305 277.376 127.652 277.688 128.096C277.999 128.537 278.16 129.044 278.17 129.617H276.395ZM283.459 126.679C283.946 126.682 284.42 126.768 284.881 126.938C285.345 127.103 285.762 127.375 286.134 127.753C286.505 128.127 286.8 128.629 287.019 129.259C287.237 129.889 287.347 130.668 287.347 131.596C287.35 132.471 287.257 133.253 287.068 133.942C286.883 134.629 286.616 135.209 286.268 135.683C285.92 136.156 285.501 136.518 285.01 136.766C284.519 137.015 283.968 137.139 283.354 137.139C282.711 137.139 282.141 137.013 281.644 136.761C281.15 136.509 280.751 136.165 280.446 135.727C280.141 135.29 279.954 134.789 279.884 134.226H281.699C281.792 134.63 281.981 134.952 282.266 135.19C282.554 135.426 282.917 135.543 283.354 135.543C284.06 135.543 284.604 135.237 284.985 134.624C285.366 134.01 285.557 133.159 285.557 132.068H285.487C285.325 132.36 285.114 132.612 284.856 132.824C284.597 133.033 284.304 133.193 283.976 133.306C283.651 133.419 283.306 133.475 282.942 133.475C282.345 133.475 281.808 133.333 281.331 133.048C280.857 132.763 280.481 132.371 280.202 131.874C279.927 131.377 279.788 130.809 279.785 130.169C279.785 129.506 279.937 128.911 280.242 128.384C280.55 127.854 280.98 127.436 281.53 127.131C282.08 126.823 282.723 126.672 283.459 126.679ZM283.464 128.17C283.106 128.17 282.783 128.258 282.494 128.434C282.209 128.606 281.984 128.842 281.818 129.14C281.656 129.435 281.575 129.765 281.575 130.129C281.578 130.491 281.659 130.819 281.818 131.114C281.981 131.409 282.201 131.642 282.479 131.815C282.761 131.987 283.083 132.073 283.444 132.073C283.712 132.073 283.963 132.022 284.195 131.919C284.427 131.816 284.629 131.674 284.801 131.491C284.977 131.306 285.113 131.095 285.209 130.86C285.308 130.625 285.356 130.376 285.353 130.114C285.353 129.766 285.27 129.445 285.104 129.15C284.942 128.855 284.718 128.618 284.433 128.439C284.152 128.26 283.828 128.17 283.464 128.17ZM292.691 137.139C291.952 137.139 291.296 137.015 290.723 136.766C290.153 136.518 289.705 136.178 289.38 135.747C289.059 135.313 288.9 134.821 288.903 134.271C288.9 133.843 288.993 133.45 289.182 133.092C289.37 132.734 289.626 132.436 289.947 132.197C290.272 131.955 290.633 131.801 291.031 131.735V131.665C290.507 131.549 290.083 131.283 289.758 130.865C289.437 130.444 289.278 129.959 289.281 129.408C289.278 128.885 289.423 128.417 289.718 128.006C290.013 127.595 290.418 127.272 290.932 127.037C291.445 126.798 292.032 126.679 292.691 126.679C293.344 126.679 293.926 126.798 294.437 127.037C294.95 127.272 295.355 127.595 295.65 128.006C295.948 128.417 296.097 128.885 296.097 129.408C296.097 129.959 295.933 130.444 295.605 130.865C295.28 131.283 294.861 131.549 294.347 131.665V131.735C294.745 131.801 295.103 131.955 295.421 132.197C295.742 132.436 295.998 132.734 296.187 133.092C296.379 133.45 296.475 133.843 296.475 134.271C296.475 134.821 296.312 135.313 295.988 135.747C295.663 136.178 295.215 136.518 294.645 136.766C294.079 137.015 293.427 137.139 292.691 137.139ZM292.691 135.717C293.073 135.717 293.404 135.653 293.686 135.523C293.968 135.391 294.186 135.205 294.342 134.967C294.498 134.728 294.577 134.453 294.581 134.141C294.577 133.817 294.493 133.53 294.327 133.281C294.165 133.029 293.941 132.832 293.656 132.69C293.374 132.547 293.053 132.476 292.691 132.476C292.327 132.476 292.002 132.547 291.717 132.69C291.432 132.832 291.207 133.029 291.041 133.281C290.879 133.53 290.799 133.817 290.802 134.141C290.799 134.453 290.875 134.728 291.031 134.967C291.187 135.202 291.406 135.386 291.687 135.518C291.972 135.651 292.307 135.717 292.691 135.717ZM292.691 131.079C293.003 131.079 293.278 131.016 293.517 130.89C293.759 130.764 293.949 130.588 294.089 130.363C294.228 130.138 294.299 129.877 294.302 129.582C294.299 129.291 294.229 129.036 294.093 128.817C293.958 128.595 293.769 128.424 293.527 128.305C293.285 128.182 293.006 128.121 292.691 128.121C292.37 128.121 292.087 128.182 291.841 128.305C291.599 128.424 291.41 128.595 291.275 128.817C291.142 129.036 291.077 129.291 291.081 129.582C291.077 129.877 291.144 130.138 291.28 130.363C291.419 130.585 291.609 130.761 291.851 130.89C292.097 131.016 292.377 131.079 292.691 131.079ZM301.943 137.194C301.124 137.194 300.421 136.987 299.835 136.572C299.251 136.155 298.802 135.553 298.488 134.768C298.176 133.979 298.02 133.029 298.02 131.919C298.024 130.809 298.181 129.864 298.492 129.085C298.807 128.303 299.256 127.706 299.84 127.295C300.426 126.884 301.127 126.679 301.943 126.679C302.758 126.679 303.459 126.884 304.046 127.295C304.632 127.706 305.082 128.303 305.393 129.085C305.708 129.867 305.865 130.812 305.865 131.919C305.865 133.033 305.708 133.984 305.393 134.773C305.082 135.558 304.632 136.158 304.046 136.572C303.462 136.987 302.761 137.194 301.943 137.194ZM301.943 135.638C302.579 135.638 303.081 135.325 303.449 134.698C303.82 134.068 304.006 133.142 304.006 131.919C304.006 131.11 303.921 130.431 303.752 129.881C303.583 129.33 303.345 128.916 303.037 128.638C302.728 128.356 302.364 128.215 301.943 128.215C301.31 128.215 300.809 128.53 300.441 129.16C300.073 129.786 299.888 130.706 299.885 131.919C299.881 132.731 299.962 133.414 300.128 133.967C300.297 134.521 300.536 134.938 300.844 135.22C301.152 135.499 301.519 135.638 301.943 135.638ZM308.319 137.109C308.018 137.109 307.759 137.003 307.544 136.791C307.328 136.579 307.222 136.321 307.225 136.016C307.222 135.717 307.328 135.462 307.544 135.25C307.759 135.038 308.018 134.932 308.319 134.932C308.611 134.932 308.864 135.038 309.08 135.25C309.299 135.462 309.41 135.717 309.413 136.016C309.41 136.218 309.357 136.402 309.254 136.567C309.154 136.733 309.022 136.866 308.856 136.965C308.694 137.061 308.515 137.109 308.319 137.109ZM314.688 137.194C313.87 137.194 313.167 136.987 312.58 136.572C311.997 136.155 311.548 135.553 311.233 134.768C310.921 133.979 310.766 133.029 310.766 131.919C310.769 130.809 310.926 129.864 311.238 129.085C311.553 128.303 312.002 127.706 312.585 127.295C313.172 126.884 313.873 126.679 314.688 126.679C315.504 126.679 316.205 126.884 316.791 127.295C317.378 127.706 317.827 128.303 318.139 129.085C318.453 129.867 318.611 130.812 318.611 131.919C318.611 133.033 318.453 133.984 318.139 134.773C317.827 135.558 317.378 136.158 316.791 136.572C316.208 136.987 315.507 137.194 314.688 137.194ZM314.688 135.638C315.325 135.638 315.827 135.325 316.195 134.698C316.566 134.068 316.751 133.142 316.751 131.919C316.751 131.11 316.667 130.431 316.498 129.881C316.329 129.33 316.09 128.916 315.782 128.638C315.474 128.356 315.109 128.215 314.688 128.215C314.055 128.215 313.555 128.53 313.187 129.16C312.819 129.786 312.633 130.706 312.63 131.919C312.627 132.731 312.708 133.414 312.874 133.967C313.043 134.521 313.281 134.938 313.59 135.22C313.898 135.499 314.264 135.638 314.688 135.638ZM324.096 137.194C323.277 137.194 322.575 136.987 321.988 136.572C321.405 136.155 320.956 135.553 320.641 134.768C320.329 133.979 320.174 133.029 320.174 131.919C320.177 130.809 320.334 129.864 320.646 129.085C320.961 128.303 321.41 127.706 321.993 127.295C322.58 126.884 323.281 126.679 324.096 126.679C324.911 126.679 325.612 126.884 326.199 127.295C326.786 127.706 327.235 128.303 327.546 129.085C327.861 129.867 328.019 130.812 328.019 131.919C328.019 133.033 327.861 133.984 327.546 134.773C327.235 135.558 326.786 136.158 326.199 136.572C325.616 136.987 324.915 137.194 324.096 137.194ZM324.096 135.638C324.732 135.638 325.235 135.325 325.603 134.698C325.974 134.068 326.159 133.142 326.159 131.919C326.159 131.11 326.075 130.431 325.906 129.881C325.737 129.33 325.498 128.916 325.19 128.638C324.882 128.356 324.517 128.215 324.096 128.215C323.463 128.215 322.963 128.53 322.595 129.16C322.227 129.786 322.041 130.706 322.038 131.919C322.035 132.731 322.116 133.414 322.282 133.967C322.451 134.521 322.689 134.938 322.997 135.22C323.306 135.499 323.672 135.638 324.096 135.638Z" fill="#1F2C37"/>
<circle cx="254.857" cy="168" r="3" fill="#194BFB"/>
<path d="M270.656 159V151.727H271.754V154.888H275.379V151.727H276.48V159H275.379V155.829H271.754V159H270.656ZM280.341 159.11C279.829 159.11 279.383 158.993 279.002 158.759C278.621 158.524 278.325 158.196 278.114 157.775C277.903 157.353 277.798 156.861 277.798 156.298C277.798 155.732 277.903 155.237 278.114 154.813C278.325 154.389 278.621 154.06 279.002 153.826C279.383 153.592 279.829 153.474 280.341 153.474C280.852 153.474 281.298 153.592 281.679 153.826C282.061 154.06 282.357 154.389 282.567 154.813C282.778 155.237 282.883 155.732 282.883 156.298C282.883 156.861 282.778 157.353 282.567 157.775C282.357 158.196 282.061 158.524 281.679 158.759C281.298 158.993 280.852 159.11 280.341 159.11ZM280.344 158.219C280.676 158.219 280.95 158.131 281.168 157.956C281.386 157.781 281.547 157.548 281.651 157.256C281.758 156.965 281.811 156.644 281.811 156.294C281.811 155.946 281.758 155.626 281.651 155.335C281.547 155.042 281.386 154.806 281.168 154.629C280.95 154.451 280.676 154.362 280.344 154.362C280.01 154.362 279.733 154.451 279.513 154.629C279.295 154.806 279.133 155.042 279.027 155.335C278.923 155.626 278.87 155.946 278.87 156.294C278.87 156.644 278.923 156.965 279.027 157.256C279.133 157.548 279.295 157.781 279.513 157.956C279.733 158.131 280.01 158.219 280.344 158.219ZM284.118 159V153.545H285.138V154.433H285.205C285.319 154.133 285.505 153.898 285.763 153.73C286.021 153.56 286.33 153.474 286.689 153.474C287.054 153.474 287.359 153.56 287.606 153.73C287.854 153.901 288.038 154.135 288.156 154.433H288.213C288.343 154.142 288.55 153.91 288.834 153.737C289.118 153.562 289.457 153.474 289.85 153.474C290.345 153.474 290.748 153.629 291.061 153.94C291.376 154.25 291.533 154.717 291.533 155.342V159H290.471V155.442C290.471 155.072 290.371 154.805 290.17 154.639C289.968 154.473 289.728 154.391 289.449 154.391C289.103 154.391 288.834 154.497 288.643 154.71C288.451 154.921 288.355 155.192 288.355 155.523V159H287.297V155.374C287.297 155.078 287.204 154.84 287.02 154.661C286.835 154.481 286.595 154.391 286.299 154.391C286.098 154.391 285.912 154.444 285.741 154.55C285.573 154.655 285.437 154.8 285.333 154.987C285.231 155.174 285.18 155.391 285.18 155.637V159H284.118ZM295.357 159.11C294.82 159.11 294.357 158.995 293.969 158.766C293.583 158.534 293.285 158.208 293.074 157.789C292.865 157.368 292.761 156.874 292.761 156.308C292.761 155.75 292.865 155.257 293.074 154.831C293.285 154.405 293.578 154.072 293.955 153.833C294.333 153.594 294.776 153.474 295.283 153.474C295.59 153.474 295.889 153.525 296.178 153.627C296.466 153.729 296.726 153.889 296.955 154.107C297.185 154.324 297.366 154.607 297.499 154.955C297.631 155.301 297.697 155.721 297.697 156.216V156.592H293.361V155.797H296.657C296.657 155.518 296.6 155.27 296.486 155.055C296.373 154.837 296.213 154.665 296.007 154.54C295.803 154.414 295.564 154.352 295.29 154.352C294.991 154.352 294.731 154.425 294.508 154.572C294.288 154.716 294.118 154.906 293.997 155.14C293.879 155.372 293.82 155.624 293.82 155.896V156.518C293.82 156.882 293.883 157.192 294.011 157.448C294.142 157.704 294.323 157.899 294.555 158.034C294.787 158.167 295.058 158.233 295.368 158.233C295.569 158.233 295.753 158.205 295.918 158.148C296.084 158.089 296.227 158.001 296.348 157.885C296.469 157.769 296.561 157.626 296.625 157.455L297.63 157.636C297.549 157.932 297.405 158.192 297.197 158.414C296.991 158.634 296.731 158.806 296.419 158.929C296.109 159.05 295.755 159.11 295.357 159.11Z" fill="#9CA4AB"/>
<path d="M274.044 185.273V172.545H274.859V185.273H274.044ZM276.395 176.617C276.349 176.183 276.153 175.845 275.808 175.603C275.467 175.361 275.023 175.24 274.476 175.24C274.092 175.24 273.762 175.298 273.487 175.414C273.212 175.53 273.001 175.687 272.855 175.886C272.709 176.085 272.635 176.312 272.632 176.567C272.632 176.78 272.68 176.964 272.776 177.119C272.875 177.275 273.009 177.408 273.178 177.517C273.347 177.623 273.535 177.713 273.74 177.786C273.946 177.858 274.153 177.92 274.362 177.969L275.316 178.208C275.701 178.298 276.07 178.419 276.425 178.571C276.783 178.723 277.103 178.916 277.384 179.148C277.669 179.38 277.895 179.66 278.061 179.988C278.226 180.316 278.309 180.701 278.309 181.141C278.309 181.738 278.157 182.263 277.852 182.717C277.547 183.168 277.106 183.521 276.529 183.776C275.956 184.028 275.262 184.154 274.446 184.154C273.654 184.154 272.966 184.031 272.383 183.786C271.803 183.541 271.349 183.183 271.021 182.712C270.696 182.242 270.52 181.668 270.494 180.992H272.308C272.335 181.347 272.444 181.642 272.637 181.877C272.829 182.112 273.079 182.288 273.387 182.404C273.699 182.52 274.047 182.578 274.431 182.578C274.832 182.578 275.184 182.518 275.485 182.399C275.79 182.277 276.029 182.107 276.201 181.892C276.374 181.673 276.461 181.418 276.465 181.126C276.461 180.861 276.383 180.643 276.231 180.47C276.079 180.295 275.865 180.149 275.59 180.033C275.318 179.913 275 179.807 274.635 179.714L273.477 179.416C272.638 179.201 271.975 178.874 271.488 178.437C271.004 177.996 270.762 177.411 270.762 176.682C270.762 176.082 270.925 175.557 271.249 175.106C271.578 174.655 272.023 174.305 272.587 174.057C273.15 173.805 273.788 173.679 274.501 173.679C275.223 173.679 275.856 173.805 276.4 174.057C276.947 174.305 277.376 174.652 277.688 175.096C277.999 175.537 278.16 176.044 278.17 176.617H276.395ZM283.578 184.139C282.862 184.139 282.226 184.017 281.669 183.771C281.116 183.526 280.678 183.185 280.357 182.747C280.035 182.31 279.864 181.804 279.845 181.231H281.714C281.73 181.506 281.822 181.746 281.987 181.952C282.153 182.154 282.373 182.311 282.648 182.424C282.924 182.537 283.232 182.593 283.573 182.593C283.938 182.593 284.261 182.53 284.543 182.404C284.824 182.275 285.045 182.096 285.204 181.867C285.363 181.638 285.441 181.375 285.438 181.077C285.441 180.768 285.361 180.497 285.199 180.261C285.037 180.026 284.801 179.842 284.493 179.71C284.188 179.577 283.82 179.511 283.389 179.511H282.489V178.089H283.389C283.744 178.089 284.054 178.027 284.319 177.905C284.587 177.782 284.798 177.61 284.95 177.388C285.103 177.162 285.177 176.902 285.174 176.607C285.177 176.319 285.113 176.069 284.98 175.857C284.851 175.641 284.667 175.474 284.428 175.354C284.193 175.235 283.916 175.175 283.598 175.175C283.287 175.175 282.998 175.232 282.733 175.344C282.468 175.457 282.254 175.618 282.092 175.827C281.929 176.032 281.843 176.277 281.833 176.562H280.058C280.072 175.992 280.236 175.492 280.55 175.061C280.869 174.627 281.293 174.289 281.823 174.047C282.353 173.802 282.948 173.679 283.608 173.679C284.287 173.679 284.877 173.807 285.378 174.062C285.882 174.314 286.271 174.653 286.546 175.081C286.821 175.509 286.959 175.981 286.959 176.498C286.962 177.071 286.793 177.552 286.452 177.94C286.114 178.327 285.67 178.581 285.119 178.7V178.78C285.835 178.879 286.384 179.144 286.765 179.575C287.149 180.003 287.34 180.535 287.337 181.171C287.337 181.741 287.174 182.252 286.849 182.702C286.528 183.15 286.084 183.501 285.517 183.756C284.954 184.012 284.307 184.139 283.578 184.139ZM290.945 182.608L290.881 183.155C290.834 183.572 290.751 183.997 290.632 184.428C290.516 184.862 290.393 185.261 290.264 185.626C290.135 185.99 290.03 186.277 289.951 186.486H288.738C288.784 186.284 288.847 186.009 288.927 185.661C289.01 185.313 289.089 184.921 289.165 184.487C289.242 184.053 289.293 183.612 289.32 183.165L289.354 182.608H290.945ZM296.344 184.139C295.856 184.136 295.381 184.051 294.917 183.886C294.453 183.717 294.035 183.443 293.664 183.065C293.293 182.684 292.998 182.179 292.779 181.549C292.56 180.916 292.452 180.132 292.456 179.197C292.456 178.326 292.549 177.549 292.734 176.866C292.92 176.183 293.187 175.606 293.535 175.136C293.883 174.662 294.302 174.3 294.792 174.052C295.286 173.803 295.838 173.679 296.448 173.679C297.088 173.679 297.654 173.805 298.148 174.057C298.645 174.309 299.046 174.653 299.351 175.091C299.656 175.525 299.845 176.016 299.918 176.562H298.103C298.011 176.171 297.82 175.86 297.532 175.628C297.247 175.393 296.885 175.275 296.448 175.275C295.742 175.275 295.198 175.581 294.817 176.195C294.439 176.808 294.249 177.65 294.246 178.72H294.315C294.478 178.429 294.688 178.178 294.947 177.969C295.205 177.761 295.497 177.6 295.822 177.487C296.15 177.371 296.496 177.313 296.861 177.313C297.457 177.313 297.992 177.456 298.466 177.741C298.944 178.026 299.322 178.419 299.6 178.919C299.878 179.416 300.016 179.986 300.013 180.629C300.016 181.299 299.863 181.9 299.555 182.434C299.247 182.964 298.818 183.382 298.268 183.687C297.717 183.992 297.076 184.143 296.344 184.139ZM296.334 182.648C296.695 182.648 297.018 182.56 297.303 182.384C297.588 182.209 297.813 181.972 297.979 181.673C298.145 181.375 298.226 181.04 298.223 180.669C298.226 180.304 298.147 179.975 297.984 179.68C297.825 179.385 297.605 179.151 297.323 178.979C297.041 178.806 296.72 178.72 296.358 178.72C296.09 178.72 295.84 178.772 295.608 178.874C295.376 178.977 295.174 179.12 295.001 179.302C294.829 179.481 294.693 179.69 294.594 179.928C294.497 180.164 294.448 180.415 294.444 180.684C294.448 181.039 294.531 181.365 294.693 181.663C294.855 181.962 295.079 182.2 295.364 182.379C295.649 182.558 295.972 182.648 296.334 182.648ZM301.579 182.111V180.644L305.899 173.818H307.122V175.906H306.377L303.468 180.515V180.594H309.499V182.111H301.579ZM306.436 184V181.663L306.456 181.007V173.818H308.196V184H306.436ZM314.811 184.139C314.095 184.139 313.459 184.017 312.902 183.771C312.349 183.526 311.911 183.185 311.59 182.747C311.268 182.31 311.098 181.804 311.078 181.231H312.947C312.964 181.506 313.055 181.746 313.22 181.952C313.386 182.154 313.607 182.311 313.882 182.424C314.157 182.537 314.465 182.593 314.806 182.593C315.171 182.593 315.494 182.53 315.776 182.404C316.058 182.275 316.278 182.096 316.437 181.867C316.596 181.638 316.674 181.375 316.671 181.077C316.674 180.768 316.594 180.497 316.432 180.261C316.27 180.026 316.034 179.842 315.726 179.71C315.421 179.577 315.053 179.511 314.622 179.511H313.723V178.089H314.622C314.977 178.089 315.287 178.027 315.552 177.905C315.821 177.782 316.031 177.61 316.183 177.388C316.336 177.162 316.41 176.902 316.407 176.607C316.41 176.319 316.346 176.069 316.213 175.857C316.084 175.641 315.9 175.474 315.661 175.354C315.426 175.235 315.149 175.175 314.831 175.175C314.52 175.175 314.231 175.232 313.966 175.344C313.701 175.457 313.487 175.618 313.325 175.827C313.162 176.032 313.076 176.277 313.066 176.562H311.291C311.305 175.992 311.469 175.492 311.784 175.061C312.102 174.627 312.526 174.289 313.056 174.047C313.587 173.802 314.182 173.679 314.841 173.679C315.521 173.679 316.111 173.807 316.611 174.062C317.115 174.314 317.504 174.653 317.779 175.081C318.054 175.509 318.192 175.981 318.192 176.498C318.195 177.071 318.026 177.552 317.685 177.94C317.347 178.327 316.903 178.581 316.352 178.7V178.78C317.068 178.879 317.617 179.144 317.998 179.575C318.383 180.003 318.573 180.535 318.57 181.171C318.57 181.741 318.407 182.252 318.083 182.702C317.761 183.15 317.317 183.501 316.75 183.756C316.187 184.012 315.54 184.139 314.811 184.139ZM321.174 184.109C320.872 184.109 320.614 184.003 320.399 183.791C320.183 183.579 320.077 183.321 320.08 183.016C320.077 182.717 320.183 182.462 320.399 182.25C320.614 182.038 320.872 181.932 321.174 181.932C321.466 181.932 321.719 182.038 321.935 182.25C322.153 182.462 322.265 182.717 322.268 183.016C322.265 183.218 322.211 183.402 322.109 183.567C322.009 183.733 321.877 183.866 321.711 183.965C321.549 184.061 321.37 184.109 321.174 184.109ZM327.543 184.194C326.724 184.194 326.022 183.987 325.435 183.572C324.852 183.155 324.403 182.553 324.088 181.768C323.776 180.979 323.621 180.029 323.621 178.919C323.624 177.809 323.781 176.864 324.093 176.085C324.408 175.303 324.857 174.706 325.44 174.295C326.027 173.884 326.728 173.679 327.543 173.679C328.358 173.679 329.059 173.884 329.646 174.295C330.233 174.706 330.682 175.303 330.993 176.085C331.308 176.867 331.466 177.812 331.466 178.919C331.466 180.033 331.308 180.984 330.993 181.773C330.682 182.558 330.233 183.158 329.646 183.572C329.063 183.987 328.362 184.194 327.543 184.194ZM327.543 182.638C328.179 182.638 328.682 182.325 329.049 181.698C329.421 181.068 329.606 180.142 329.606 178.919C329.606 178.11 329.522 177.431 329.353 176.881C329.184 176.33 328.945 175.916 328.637 175.638C328.329 175.356 327.964 175.215 327.543 175.215C326.91 175.215 326.41 175.53 326.042 176.16C325.674 176.786 325.488 177.706 325.485 178.919C325.482 179.731 325.563 180.414 325.728 180.967C325.897 181.521 326.136 181.938 326.444 182.22C326.753 182.499 327.119 182.638 327.543 182.638ZM336.951 184.194C336.132 184.194 335.43 183.987 334.843 183.572C334.26 183.155 333.811 182.553 333.496 181.768C333.184 180.979 333.028 180.029 333.028 178.919C333.032 177.809 333.189 176.864 333.501 176.085C333.816 175.303 334.265 174.706 334.848 174.295C335.435 173.884 336.136 173.679 336.951 173.679C337.766 173.679 338.467 173.884 339.054 174.295C339.641 174.706 340.09 175.303 340.401 176.085C340.716 176.867 340.874 177.812 340.874 178.919C340.874 180.033 340.716 180.984 340.401 181.773C340.09 182.558 339.641 183.158 339.054 183.572C338.471 183.987 337.77 184.194 336.951 184.194ZM336.951 182.638C337.587 182.638 338.089 182.325 338.457 181.698C338.829 181.068 339.014 180.142 339.014 178.919C339.014 178.11 338.93 177.431 338.761 176.881C338.592 176.33 338.353 175.916 338.045 175.638C337.736 175.356 337.372 175.215 336.951 175.215C336.318 175.215 335.817 175.53 335.45 176.16C335.082 176.786 334.896 177.706 334.893 178.919C334.889 179.731 334.971 180.414 335.136 180.967C335.305 181.521 335.544 181.938 335.852 182.22C336.16 182.499 336.527 182.638 336.951 182.638Z" fill="#1F2C37"/>
<circle cx="254.857" cy="215" r="3" fill="#EDF2F7"/>
<path d="M276.974 202.364C276.974 203.14 276.832 203.808 276.548 204.366C276.264 204.923 275.874 205.351 275.379 205.652C274.887 205.95 274.327 206.099 273.7 206.099C273.07 206.099 272.508 205.95 272.013 205.652C271.521 205.351 271.132 204.922 270.848 204.363C270.564 203.804 270.422 203.138 270.422 202.364C270.422 201.587 270.564 200.921 270.848 200.364C271.132 199.806 271.521 199.377 272.013 199.079C272.508 198.778 273.07 198.628 273.7 198.628C274.327 198.628 274.887 198.778 275.379 199.079C275.874 199.377 276.264 199.806 276.548 200.364C276.832 200.921 276.974 201.587 276.974 202.364ZM275.887 202.364C275.887 201.772 275.791 201.273 275.6 200.869C275.41 200.461 275.15 200.154 274.818 199.945C274.489 199.735 274.116 199.629 273.7 199.629C273.281 199.629 272.907 199.735 272.578 199.945C272.249 200.154 271.988 200.461 271.796 200.869C271.607 201.273 271.512 201.772 271.512 202.364C271.512 202.955 271.607 203.455 271.796 203.862C271.988 204.267 272.249 204.575 272.578 204.786C272.907 204.994 273.281 205.098 273.7 205.098C274.116 205.098 274.489 204.994 274.818 204.786C275.15 204.575 275.41 204.267 275.6 203.862C275.791 203.455 275.887 202.955 275.887 202.364ZM280.853 200.545V201.398H277.874V200.545H280.853ZM278.673 199.239H279.734V204.398C279.734 204.604 279.765 204.759 279.827 204.864C279.888 204.965 279.967 205.035 280.065 205.073C280.164 205.109 280.272 205.126 280.388 205.126C280.473 205.126 280.548 205.121 280.611 205.109C280.675 205.097 280.725 205.087 280.761 205.08L280.952 205.957C280.891 205.981 280.803 206.005 280.69 206.028C280.576 206.054 280.434 206.069 280.263 206.071C279.984 206.076 279.724 206.026 279.482 205.922C279.241 205.818 279.045 205.657 278.896 205.439C278.747 205.221 278.673 204.948 278.673 204.619V199.239ZM283.256 202.761V206H282.195V198.727H283.242V201.433H283.31C283.438 201.14 283.633 200.906 283.896 200.734C284.158 200.561 284.502 200.474 284.925 200.474C285.3 200.474 285.626 200.551 285.906 200.705C286.187 200.859 286.405 201.089 286.559 201.394C286.715 201.697 286.793 202.076 286.793 202.531V206H285.732V202.658C285.732 202.258 285.629 201.948 285.423 201.728C285.217 201.505 284.93 201.394 284.563 201.394C284.312 201.394 284.087 201.447 283.889 201.554C283.692 201.661 283.537 201.817 283.423 202.023C283.312 202.226 283.256 202.473 283.256 202.761ZM290.611 206.11C290.074 206.11 289.611 205.995 289.223 205.766C288.837 205.534 288.538 205.208 288.328 204.789C288.119 204.368 288.015 203.874 288.015 203.308C288.015 202.75 288.119 202.257 288.328 201.831C288.538 201.405 288.832 201.072 289.208 200.833C289.587 200.594 290.03 200.474 290.537 200.474C290.844 200.474 291.143 200.525 291.431 200.627C291.72 200.729 291.979 200.889 292.209 201.107C292.439 201.324 292.62 201.607 292.752 201.955C292.885 202.301 292.951 202.721 292.951 203.216V203.592H288.615V202.797H291.911C291.911 202.518 291.854 202.27 291.74 202.055C291.627 201.837 291.467 201.665 291.261 201.54C291.057 201.414 290.818 201.352 290.544 201.352C290.245 201.352 289.985 201.425 289.762 201.572C289.542 201.716 289.372 201.906 289.251 202.14C289.133 202.372 289.073 202.624 289.073 202.896V203.518C289.073 203.882 289.137 204.192 289.265 204.448C289.395 204.704 289.577 204.899 289.809 205.034C290.041 205.167 290.312 205.233 290.622 205.233C290.823 205.233 291.006 205.205 291.172 205.148C291.338 205.089 291.481 205.001 291.602 204.885C291.723 204.769 291.815 204.626 291.879 204.455L292.884 204.636C292.803 204.932 292.659 205.192 292.451 205.414C292.245 205.634 291.985 205.806 291.673 205.929C291.363 206.05 291.009 206.11 290.611 206.11ZM294.179 206V200.545H295.206V201.412H295.263C295.362 201.118 295.537 200.888 295.788 200.719C296.041 200.549 296.328 200.464 296.647 200.464C296.714 200.464 296.792 200.466 296.882 200.471C296.974 200.476 297.046 200.482 297.098 200.489V201.504C297.056 201.492 296.98 201.479 296.871 201.465C296.762 201.449 296.653 201.44 296.544 201.44C296.294 201.44 296.07 201.494 295.873 201.6C295.679 201.704 295.525 201.85 295.412 202.037C295.298 202.222 295.241 202.432 295.241 202.669V206H294.179ZM302.155 201.877L301.192 202.048C301.152 201.924 301.088 201.807 301.001 201.696C300.915 201.585 300.799 201.494 300.653 201.423C300.506 201.352 300.322 201.316 300.102 201.316C299.801 201.316 299.55 201.384 299.349 201.518C299.148 201.651 299.047 201.823 299.047 202.033C299.047 202.216 299.115 202.362 299.25 202.474C299.385 202.585 299.603 202.676 299.903 202.747L300.77 202.946C301.272 203.062 301.646 203.241 301.892 203.482C302.138 203.724 302.261 204.037 302.261 204.423C302.261 204.75 302.166 205.041 301.977 205.297C301.79 205.55 301.528 205.749 301.192 205.893C300.858 206.038 300.471 206.11 300.031 206.11C299.42 206.11 298.922 205.98 298.536 205.719C298.15 205.457 297.913 205.084 297.826 204.601L298.852 204.445C298.916 204.712 299.047 204.915 299.246 205.052C299.445 205.187 299.704 205.254 300.024 205.254C300.372 205.254 300.65 205.182 300.858 205.038C301.067 204.891 301.171 204.712 301.171 204.501C301.171 204.331 301.107 204.188 300.979 204.072C300.854 203.956 300.661 203.868 300.4 203.809L299.477 203.607C298.968 203.491 298.592 203.306 298.348 203.053C298.106 202.799 297.986 202.478 297.986 202.09C297.986 201.768 298.076 201.487 298.256 201.245C298.435 201.004 298.684 200.815 299.001 200.68C299.318 200.543 299.682 200.474 300.091 200.474C300.681 200.474 301.145 200.602 301.483 200.858C301.822 201.111 302.046 201.451 302.155 201.877Z" fill="#9CA4AB"/>
<path d="M274.044 232.273V219.545H274.859V232.273H274.044ZM276.395 223.617C276.349 223.183 276.153 222.845 275.808 222.603C275.467 222.361 275.023 222.24 274.476 222.24C274.092 222.24 273.762 222.298 273.487 222.414C273.212 222.53 273.001 222.687 272.855 222.886C272.709 223.085 272.635 223.312 272.632 223.567C272.632 223.78 272.68 223.964 272.776 224.119C272.875 224.275 273.009 224.408 273.178 224.517C273.347 224.623 273.535 224.713 273.74 224.786C273.946 224.858 274.153 224.92 274.362 224.969L275.316 225.208C275.701 225.298 276.07 225.419 276.425 225.571C276.783 225.723 277.103 225.916 277.384 226.148C277.669 226.38 277.895 226.66 278.061 226.988C278.226 227.316 278.309 227.701 278.309 228.141C278.309 228.738 278.157 229.263 277.852 229.717C277.547 230.168 277.106 230.521 276.529 230.776C275.956 231.028 275.262 231.154 274.446 231.154C273.654 231.154 272.966 231.031 272.383 230.786C271.803 230.541 271.349 230.183 271.021 229.712C270.696 229.242 270.52 228.668 270.494 227.992H272.308C272.335 228.347 272.444 228.642 272.637 228.877C272.829 229.112 273.079 229.288 273.387 229.404C273.699 229.52 274.047 229.578 274.431 229.578C274.832 229.578 275.184 229.518 275.485 229.399C275.79 229.277 276.029 229.107 276.201 228.892C276.374 228.673 276.461 228.418 276.465 228.126C276.461 227.861 276.383 227.643 276.231 227.47C276.079 227.295 275.865 227.149 275.59 227.033C275.318 226.913 275 226.807 274.635 226.714L273.477 226.416C272.638 226.201 271.975 225.874 271.488 225.437C271.004 224.996 270.762 224.411 270.762 223.682C270.762 223.082 270.925 222.557 271.249 222.106C271.578 221.655 272.023 221.305 272.587 221.057C273.15 220.805 273.788 220.679 274.501 220.679C275.223 220.679 275.856 220.805 276.4 221.057C276.947 221.305 277.376 221.652 277.688 222.096C277.999 222.537 278.16 223.044 278.17 223.617H276.395ZM279.924 231V229.668L283.459 226.202C283.797 225.861 284.079 225.558 284.304 225.293C284.529 225.027 284.698 224.771 284.811 224.522C284.924 224.273 284.98 224.008 284.98 223.727C284.98 223.405 284.907 223.13 284.761 222.901C284.616 222.669 284.415 222.49 284.16 222.364C283.905 222.238 283.615 222.175 283.29 222.175C282.955 222.175 282.662 222.245 282.41 222.384C282.158 222.52 281.962 222.714 281.823 222.966C281.687 223.218 281.619 223.518 281.619 223.866H279.864C279.864 223.219 280.012 222.658 280.307 222.18C280.602 221.703 281.008 221.334 281.525 221.072C282.045 220.81 282.642 220.679 283.315 220.679C283.997 220.679 284.597 220.807 285.114 221.062C285.631 221.317 286.032 221.667 286.318 222.111C286.606 222.555 286.75 223.062 286.75 223.632C286.75 224.013 286.677 224.388 286.531 224.756C286.385 225.124 286.129 225.531 285.761 225.979C285.396 226.426 284.884 226.968 284.224 227.604L282.47 229.389V229.459H286.904V231H279.924ZM292.343 231.139C291.628 231.139 290.991 231.017 290.434 230.771C289.881 230.526 289.443 230.185 289.122 229.747C288.8 229.31 288.63 228.804 288.61 228.231H290.479C290.496 228.506 290.587 228.746 290.753 228.952C290.918 229.154 291.139 229.311 291.414 229.424C291.689 229.537 291.997 229.593 292.339 229.593C292.703 229.593 293.026 229.53 293.308 229.404C293.59 229.275 293.81 229.096 293.969 228.867C294.128 228.638 294.206 228.375 294.203 228.077C294.206 227.768 294.127 227.497 293.964 227.261C293.802 227.026 293.566 226.842 293.258 226.71C292.953 226.577 292.585 226.511 292.155 226.511H291.255V225.089H292.155C292.509 225.089 292.819 225.027 293.084 224.905C293.353 224.782 293.563 224.61 293.716 224.388C293.868 224.162 293.943 223.902 293.939 223.607C293.943 223.319 293.878 223.069 293.745 222.857C293.616 222.641 293.432 222.474 293.194 222.354C292.958 222.235 292.682 222.175 292.363 222.175C292.052 222.175 291.763 222.232 291.498 222.344C291.233 222.457 291.019 222.618 290.857 222.827C290.695 223.032 290.608 223.277 290.598 223.562H288.824C288.837 222.992 289.001 222.492 289.316 222.061C289.634 221.627 290.058 221.289 290.589 221.047C291.119 220.802 291.714 220.679 292.373 220.679C293.053 220.679 293.643 220.807 294.143 221.062C294.647 221.314 295.036 221.653 295.312 222.081C295.587 222.509 295.724 222.981 295.724 223.498C295.727 224.071 295.558 224.552 295.217 224.94C294.879 225.327 294.435 225.581 293.885 225.7V225.78C294.601 225.879 295.149 226.144 295.53 226.575C295.915 227.003 296.105 227.535 296.102 228.171C296.102 228.741 295.94 229.252 295.615 229.702C295.293 230.15 294.849 230.501 294.282 230.756C293.719 231.012 293.073 231.139 292.343 231.139ZM297.879 231V229.668L301.413 226.202C301.751 225.861 302.033 225.558 302.258 225.293C302.484 225.027 302.653 224.771 302.766 224.522C302.878 224.273 302.935 224.008 302.935 223.727C302.935 223.405 302.862 223.13 302.716 222.901C302.57 222.669 302.37 222.49 302.114 222.364C301.859 222.238 301.569 222.175 301.244 222.175C300.91 222.175 300.616 222.245 300.364 222.384C300.112 222.52 299.917 222.714 299.778 222.966C299.642 223.218 299.574 223.518 299.574 223.866H297.819C297.819 223.219 297.966 222.658 298.261 222.18C298.556 221.703 298.962 221.334 299.479 221.072C300 220.81 300.596 220.679 301.269 220.679C301.952 220.679 302.552 220.807 303.069 221.062C303.586 221.317 303.987 221.667 304.272 222.111C304.56 222.555 304.704 223.062 304.704 223.632C304.704 224.013 304.632 224.388 304.486 224.756C304.34 225.124 304.083 225.531 303.715 225.979C303.351 226.426 302.838 226.968 302.179 227.604L300.424 229.389V229.459H304.859V231H297.879ZM307.772 231.109C307.471 231.109 307.212 231.003 306.997 230.791C306.781 230.579 306.675 230.321 306.679 230.016C306.675 229.717 306.781 229.462 306.997 229.25C307.212 229.038 307.471 228.932 307.772 228.932C308.064 228.932 308.318 229.038 308.533 229.25C308.752 229.462 308.863 229.717 308.866 230.016C308.863 230.218 308.81 230.402 308.707 230.567C308.608 230.733 308.475 230.866 308.309 230.965C308.147 231.061 307.968 231.109 307.772 231.109ZM314.141 231.194C313.323 231.194 312.62 230.987 312.033 230.572C311.45 230.155 311.001 229.553 310.686 228.768C310.375 227.979 310.219 227.029 310.219 225.919C310.222 224.809 310.38 223.864 310.691 223.085C311.006 222.303 311.455 221.706 312.038 221.295C312.625 220.884 313.326 220.679 314.141 220.679C314.957 220.679 315.658 220.884 316.244 221.295C316.831 221.706 317.28 222.303 317.592 223.085C317.907 223.867 318.064 224.812 318.064 225.919C318.064 227.033 317.907 227.984 317.592 228.773C317.28 229.558 316.831 230.158 316.244 230.572C315.661 230.987 314.96 231.194 314.141 231.194ZM314.141 229.638C314.778 229.638 315.28 229.325 315.648 228.698C316.019 228.068 316.205 227.142 316.205 225.919C316.205 225.11 316.12 224.431 315.951 223.881C315.782 223.33 315.543 222.916 315.235 222.638C314.927 222.356 314.562 222.215 314.141 222.215C313.508 222.215 313.008 222.53 312.64 223.16C312.272 223.786 312.086 224.706 312.083 225.919C312.08 226.731 312.161 227.414 312.327 227.967C312.496 228.521 312.734 228.938 313.043 229.22C313.351 229.499 313.717 229.638 314.141 229.638ZM323.549 231.194C322.731 231.194 322.028 230.987 321.441 230.572C320.858 230.155 320.409 229.553 320.094 228.768C319.782 227.979 319.627 227.029 319.627 225.919C319.63 224.809 319.787 223.864 320.099 223.085C320.414 222.303 320.863 221.706 321.446 221.295C322.033 220.884 322.734 220.679 323.549 220.679C324.365 220.679 325.066 220.884 325.652 221.295C326.239 221.706 326.688 222.303 327 223.085C327.314 223.867 327.472 224.812 327.472 225.919C327.472 227.033 327.314 227.984 327 228.773C326.688 229.558 326.239 230.158 325.652 230.572C325.069 230.987 324.368 231.194 323.549 231.194ZM323.549 229.638C324.186 229.638 324.688 229.325 325.056 228.698C325.427 228.068 325.612 227.142 325.612 225.919C325.612 225.11 325.528 224.431 325.359 223.881C325.19 223.33 324.951 222.916 324.643 222.638C324.335 222.356 323.97 222.215 323.549 222.215C322.916 222.215 322.416 222.53 322.048 223.16C321.68 223.786 321.494 224.706 321.491 225.919C321.488 226.731 321.569 227.414 321.735 227.967C321.904 228.521 322.142 228.938 322.451 229.22C322.759 229.499 323.125 229.638 323.549 229.638Z" fill="#1F2C37"/>
<path d="M131.857 96C171.622 96 203.857 128.235 203.857 168C203.857 207.765 171.622 240 131.857 240C92.0929 240 59.8574 207.765 59.8574 168C59.8574 128.235 92.0929 96 131.857 96ZM131.857 229.92C166.055 229.92 193.777 202.197 193.777 168C193.777 133.803 166.055 106.08 131.857 106.08C97.66 106.08 69.9374 133.803 69.9374 168C69.9374 202.197 97.66 229.92 131.857 229.92Z" fill="#EDF2F7"/>
<path d="M131.35 96.0018C144.084 95.9121 156.614 99.2014 167.662 105.534C178.711 111.867 187.881 121.016 194.24 132.049C200.598 143.083 203.917 155.605 203.857 168.339C203.797 181.073 200.36 193.564 193.898 204.537L185.213 199.422C190.77 189.985 193.725 179.243 193.777 168.292C193.828 157.34 190.974 146.571 185.506 137.083C180.038 127.594 172.151 119.725 162.65 114.279C153.148 108.833 142.373 106.004 131.421 106.082L131.35 96.0018Z" fill="#355FE5"/>
<path d="M193.13 205.811C184.888 219.166 172.509 229.463 157.876 235.134C143.244 240.805 127.159 241.54 112.07 237.228L114.84 227.536C127.817 231.245 141.65 230.613 154.234 225.735C166.818 220.858 177.464 212.003 184.552 200.518L193.13 205.811Z" fill="#232323"/>
<path d="M114.592 179.239C113.814 179.227 113.047 179.085 112.291 178.812C111.541 178.54 110.859 178.085 110.246 177.449C109.632 176.812 109.14 175.957 108.771 174.884C108.408 173.81 108.226 172.469 108.226 170.861C108.226 169.338 108.376 167.986 108.677 166.804C108.984 165.622 109.425 164.625 109.998 163.812C110.572 162.994 111.265 162.372 112.078 161.946C112.89 161.52 113.802 161.307 114.814 161.307C115.854 161.307 116.777 161.511 117.584 161.92C118.39 162.33 119.044 162.895 119.544 163.616C120.05 164.338 120.371 165.159 120.507 166.08H117.908C117.731 165.352 117.382 164.759 116.859 164.298C116.336 163.838 115.655 163.608 114.814 163.608C113.535 163.608 112.538 164.165 111.822 165.278C111.112 166.392 110.754 167.94 110.748 169.923H110.876C111.177 169.429 111.547 169.009 111.984 168.662C112.427 168.31 112.922 168.04 113.467 167.852C114.018 167.659 114.598 167.562 115.206 167.562C116.217 167.562 117.132 167.81 117.95 168.304C118.774 168.793 119.43 169.469 119.919 170.332C120.408 171.196 120.652 172.185 120.652 173.298C120.652 174.412 120.399 175.42 119.893 176.324C119.393 177.227 118.689 177.943 117.78 178.472C116.871 178.994 115.808 179.25 114.592 179.239ZM114.584 177.023C115.254 177.023 115.854 176.858 116.382 176.528C116.91 176.199 117.328 175.756 117.635 175.199C117.942 174.642 118.095 174.02 118.095 173.332C118.095 172.662 117.944 172.051 117.643 171.5C117.348 170.949 116.939 170.511 116.416 170.188C115.899 169.864 115.308 169.702 114.643 169.702C114.138 169.702 113.669 169.798 113.237 169.991C112.811 170.185 112.436 170.452 112.112 170.793C111.788 171.134 111.533 171.526 111.345 171.969C111.163 172.406 111.072 172.869 111.072 173.358C111.072 174.011 111.223 174.616 111.524 175.173C111.831 175.73 112.248 176.179 112.777 176.52C113.311 176.855 113.913 177.023 114.584 177.023ZM123.51 175.591V173.46L131.052 161.545H132.731V164.682H131.666L126.271 173.222V173.358H136.609V175.591H123.51ZM131.785 179V174.943L131.802 173.972V161.545H134.3V179H131.785ZM148.81 175.727V174.807C148.81 174.148 148.947 173.545 149.219 173C149.498 172.449 149.901 172.009 150.429 171.679C150.964 171.344 151.608 171.176 152.364 171.176C153.137 171.176 153.785 171.341 154.307 171.67C154.83 172 155.225 172.44 155.492 172.991C155.765 173.543 155.901 174.148 155.901 174.807V175.727C155.901 176.386 155.765 176.991 155.492 177.543C155.219 178.088 154.819 178.528 154.29 178.864C153.768 179.193 153.125 179.358 152.364 179.358C151.597 179.358 150.949 179.193 150.421 178.864C149.893 178.528 149.492 178.088 149.219 177.543C148.947 176.991 148.81 176.386 148.81 175.727ZM150.796 174.807V175.727C150.796 176.216 150.912 176.659 151.145 177.057C151.378 177.455 151.785 177.653 152.364 177.653C152.938 177.653 153.339 177.455 153.566 177.057C153.793 176.659 153.907 176.216 153.907 175.727V174.807C153.907 174.318 153.796 173.875 153.574 173.477C153.358 173.08 152.955 172.881 152.364 172.881C151.796 172.881 151.393 173.08 151.154 173.477C150.915 173.875 150.796 174.318 150.796 174.807ZM140.032 165.739V164.818C140.032 164.159 140.168 163.554 140.441 163.003C140.719 162.452 141.123 162.011 141.651 161.682C142.185 161.352 142.83 161.188 143.586 161.188C144.358 161.188 145.006 161.352 145.529 161.682C146.052 162.011 146.447 162.452 146.714 163.003C146.981 163.554 147.114 164.159 147.114 164.818V165.739C147.114 166.398 146.978 167.003 146.705 167.554C146.438 168.099 146.04 168.54 145.512 168.875C144.989 169.205 144.347 169.369 143.586 169.369C142.813 169.369 142.162 169.205 141.634 168.875C141.111 168.54 140.714 168.099 140.441 167.554C140.168 167.003 140.032 166.398 140.032 165.739ZM142.026 164.818V165.739C142.026 166.227 142.14 166.67 142.367 167.068C142.6 167.466 143.006 167.665 143.586 167.665C144.154 167.665 144.552 167.466 144.779 167.068C145.012 166.67 145.128 166.227 145.128 165.739V164.818C145.128 164.33 145.018 163.886 144.796 163.489C144.574 163.091 144.171 162.892 143.586 162.892C143.018 162.892 142.614 163.091 142.375 163.489C142.143 163.886 142.026 164.33 142.026 164.818ZM140.841 179L152.841 161.545H154.878L142.878 179H140.841Z" fill="#1F2C37"/>
</g>
<defs>
<filter id="filter0_d_6536_8242" x="0.857422" y="0" width="531" height="409" filterUnits="userSpaceOnUse" color-interpolation-filters="sRGB">
<feFlood flood-opacity="0" result="BackgroundImageFix"/>
<feColorMatrix in="SourceAlpha" type="matrix" values="0 0 0 0 0 0 0 0 0 0 0 0 0 0 0 0 0 0 127 0" result="hardAlpha"/>
<feOffset dx="65" dy="65"/>
<feGaussianBlur stdDeviation="40"/>
<feComposite in2="hardAlpha" operator="out"/>
<feColorMatrix type="matrix" values="0 0 0 0 0.137255 0 0 0 0 0.137255 0 0 0 0 0.137255 0 0 0 0.24 0"/>
<feBlend mode="normal" in2="BackgroundImageFix" result="effect1_dropShadow_6536_8242"/>
<feBlend mode="normal" in="SourceGraphic" in2="effect1_dropShadow_6536_8242" result="shape"/>
</filter>
</defs>
</svg>
