<svg width="326" height="290" viewBox="0 0 326 290" fill="none" xmlns="http://www.w3.org/2000/svg">
<g filter="url(#filter0_d_6536_8234)">
<rect x="15.8574" y="15" width="165" height="130" rx="12" fill="white"/>
<path fill-rule="evenodd" clip-rule="evenodd" d="M54.0461 35C58.4554 35 62.0421 38.5867 62.0421 42.9973V52.5667C62.0421 56.976 58.4554 60.564 54.0461 60.564H42.5208C38.1114 60.564 34.5234 56.976 34.5234 52.5667V42.9973C34.5234 38.5867 38.1114 35 42.5208 35H54.0461ZM54.0461 37H42.5208C39.2141 37 36.5234 39.6907 36.5234 42.9973V52.5667C36.5234 55.8733 39.2141 58.564 42.5208 58.564H54.0461C57.3528 58.564 60.0421 55.8733 60.0421 52.5667V52.1933L55.6449 52.1941C53.1156 52.1941 51.0569 50.1368 51.0556 47.6088C51.0556 45.0781 53.1142 43.0195 55.6449 43.0181L60.0421 43.0173V42.9973C60.0421 39.6907 57.3528 37 54.0461 37ZM60.0421 45.0173L55.6449 45.0181C54.2169 45.0195 53.0556 46.1808 53.0556 47.6075C53.0556 49.0328 54.2182 50.1941 55.6449 50.1941L60.0421 50.1933V45.0173ZM56.255 46.5248C56.807 46.5248 57.255 46.9728 57.255 47.5248C57.255 48.0768 56.807 48.5248 56.255 48.5248H55.839C55.287 48.5248 54.839 48.0768 54.839 47.5248C54.839 46.9728 55.287 46.5248 55.839 46.5248H56.255ZM48.7701 41.0508C49.3221 41.0508 49.7701 41.4988 49.7701 42.0508C49.7701 42.6028 49.3221 43.0508 48.7701 43.0508H41.5714C41.0194 43.0508 40.5714 42.6028 40.5714 42.0508C40.5714 41.4988 41.0194 41.0508 41.5714 41.0508H48.7701Z" fill="#355FE5"/>
<path d="M32.976 91V80.8182H34.5123V89.6776H39.1259V91H32.976ZM44.0457 91.1541C43.3298 91.1541 42.705 90.9901 42.1714 90.6619C41.6378 90.3338 41.2235 89.8748 40.9285 89.2848C40.6335 88.6948 40.486 88.0054 40.486 87.2166C40.486 86.4245 40.6335 85.7318 40.9285 85.1385C41.2235 84.5452 41.6378 84.0845 42.1714 83.7564C42.705 83.4283 43.3298 83.2642 44.0457 83.2642C44.7616 83.2642 45.3863 83.4283 45.92 83.7564C46.4536 84.0845 46.8679 84.5452 47.1629 85.1385C47.4578 85.7318 47.6053 86.4245 47.6053 87.2166C47.6053 88.0054 47.4578 88.6948 47.1629 89.2848C46.8679 89.8748 46.4536 90.3338 45.92 90.6619C45.3863 90.9901 44.7616 91.1541 44.0457 91.1541ZM44.0506 89.9062C44.5147 89.9062 44.8991 89.7836 45.2041 89.5384C45.509 89.2931 45.7344 88.9666 45.8802 88.5589C46.0293 88.1513 46.1039 87.7022 46.1039 87.2116C46.1039 86.7244 46.0293 86.277 45.8802 85.8693C45.7344 85.4583 45.509 85.1286 45.2041 84.88C44.8991 84.6314 44.5147 84.5071 44.0506 84.5071C43.5833 84.5071 43.1955 84.6314 42.8873 84.88C42.5824 85.1286 42.3553 85.4583 42.2062 85.8693C42.0604 86.277 41.9874 86.7244 41.9874 87.2116C41.9874 87.7022 42.0604 88.1513 42.2062 88.5589C42.3553 88.9666 42.5824 89.2931 42.8873 89.5384C43.1955 89.7836 43.5833 89.9062 44.0506 89.9062ZM51.5569 91.169C51.073 91.169 50.6355 91.0795 50.2444 90.9006C49.8533 90.7183 49.5434 90.4548 49.3147 90.1101C49.0893 89.7654 48.9766 89.3428 48.9766 88.8423C48.9766 88.4115 49.0595 88.0568 49.2252 87.7784C49.3909 87.5 49.6147 87.2796 49.8964 87.1172C50.1781 86.9548 50.493 86.8321 50.841 86.7493C51.189 86.6664 51.5436 86.6035 51.9049 86.5604C52.3623 86.5073 52.7335 86.4643 53.0186 86.4311C53.3036 86.3946 53.5107 86.3366 53.64 86.2571C53.7693 86.1776 53.8339 86.0483 53.8339 85.8693V85.8345C53.8339 85.4003 53.7113 85.0639 53.466 84.8253C53.224 84.5866 52.8628 84.4673 52.3822 84.4673C51.8817 84.4673 51.4873 84.5784 51.1989 84.8004C50.9139 85.0192 50.7167 85.2628 50.6073 85.5312L49.2103 85.2131C49.376 84.7491 49.618 84.3745 49.9362 84.0895C50.2577 83.8011 50.6272 83.5923 51.0448 83.4631C51.4624 83.3305 51.9016 83.2642 52.3623 83.2642C52.6672 83.2642 52.9904 83.3007 53.3318 83.3736C53.6765 83.4432 53.998 83.5724 54.2962 83.7614C54.5979 83.9503 54.8448 84.2204 55.037 84.5717C55.2293 84.9197 55.3254 85.3722 55.3254 85.929V91H53.8737V89.956H53.814C53.7179 90.1482 53.5737 90.3371 53.3815 90.5227C53.1892 90.7083 52.9423 90.8625 52.6407 90.9851C52.3391 91.1077 51.9778 91.169 51.5569 91.169ZM51.8801 89.9759C52.291 89.9759 52.6424 89.8946 52.934 89.7322C53.229 89.5698 53.4527 89.3577 53.6052 89.0959C53.761 88.8307 53.8389 88.5473 53.8389 88.2457V87.2614C53.7858 87.3144 53.6831 87.3641 53.5306 87.4105C53.3815 87.4536 53.2108 87.4917 53.0186 87.5249C52.8263 87.5547 52.6391 87.5829 52.4568 87.6094C52.2745 87.6326 52.122 87.6525 51.9994 87.669C51.711 87.7055 51.4475 87.7668 51.2089 87.853C50.9736 87.9392 50.7846 88.0634 50.6421 88.2259C50.5029 88.3849 50.4333 88.5971 50.4333 88.8622C50.4333 89.2301 50.5692 89.5085 50.841 89.6974C51.1128 89.883 51.4591 89.9759 51.8801 89.9759ZM58.8618 86.4659V91H57.3753V83.3636H58.8022V84.6065H58.8966C59.0723 84.2022 59.3474 83.8774 59.7219 83.6321C60.0997 83.3868 60.5754 83.2642 61.1487 83.2642C61.6691 83.2642 62.1248 83.3736 62.5159 83.5923C62.907 83.8078 63.2103 84.1293 63.4257 84.5568C63.6412 84.9844 63.7489 85.513 63.7489 86.1428V91H62.2624V86.3217C62.2624 85.7682 62.1182 85.3357 61.8298 85.0241C61.5415 84.7093 61.1454 84.5518 60.6416 84.5518C60.2969 84.5518 59.9904 84.6264 59.7219 84.7756C59.4567 84.9247 59.2463 85.1435 59.0905 85.4318C58.938 85.7169 58.8618 86.0616 58.8618 86.4659ZM70.567 91H68.9363L72.6004 80.8182H74.3752L78.0393 91H76.4086L73.53 82.6676H73.4505L70.567 91ZM70.8404 87.0128H76.1302V88.3054H70.8404V87.0128ZM79.4603 91V83.3636H80.8872V84.6065H80.9816C81.1407 84.1856 81.4009 83.8575 81.7622 83.6222C82.1234 83.3835 82.5559 83.2642 83.0597 83.2642C83.5702 83.2642 83.9977 83.3835 84.3424 83.6222C84.6904 83.8608 84.9473 84.1889 85.113 84.6065H85.1925C85.3748 84.1989 85.6648 83.8741 86.0626 83.6321C86.4603 83.3868 86.9343 83.2642 87.4845 83.2642C88.1772 83.2642 88.7423 83.4813 89.1798 83.9155C89.6206 84.3497 89.841 85.0043 89.841 85.8793V91H88.3545V86.0185C88.3545 85.5014 88.2136 85.1269 87.9319 84.8949C87.6502 84.6629 87.3138 84.5469 86.9227 84.5469C86.4388 84.5469 86.0626 84.696 85.7941 84.9943C85.5256 85.2893 85.3914 85.6688 85.3914 86.1328V91H83.9099V85.924C83.9099 85.5097 83.7806 85.1766 83.5221 84.9247C83.2636 84.6728 82.9272 84.5469 82.5129 84.5469C82.2311 84.5469 81.971 84.6214 81.7323 84.7706C81.497 84.9164 81.3064 85.1203 81.1606 85.3821C81.0181 85.6439 80.9468 85.9472 80.9468 86.2919V91H79.4603ZM95.12 91.1541C94.4041 91.1541 93.7793 90.9901 93.2457 90.6619C92.7121 90.3338 92.2978 89.8748 92.0028 89.2848C91.7078 88.6948 91.5603 88.0054 91.5603 87.2166C91.5603 86.4245 91.7078 85.7318 92.0028 85.1385C92.2978 84.5452 92.7121 84.0845 93.2457 83.7564C93.7793 83.4283 94.4041 83.2642 95.12 83.2642C95.8359 83.2642 96.4606 83.4283 96.9943 83.7564C97.5279 84.0845 97.9422 84.5452 98.2372 85.1385C98.5321 85.7318 98.6796 86.4245 98.6796 87.2166C98.6796 88.0054 98.5321 88.6948 98.2372 89.2848C97.9422 89.8748 97.5279 90.3338 96.9943 90.6619C96.4606 90.9901 95.8359 91.1541 95.12 91.1541ZM95.1249 89.9062C95.589 89.9062 95.9734 89.7836 96.2784 89.5384C96.5833 89.2931 96.8087 88.9666 96.9545 88.5589C97.1036 88.1513 97.1782 87.7022 97.1782 87.2116C97.1782 86.7244 97.1036 86.277 96.9545 85.8693C96.8087 85.4583 96.5833 85.1286 96.2784 84.88C95.9734 84.6314 95.589 84.5071 95.1249 84.5071C94.6576 84.5071 94.2698 84.6314 93.9616 84.88C93.6567 85.1286 93.4296 85.4583 93.2805 85.8693C93.1347 86.277 93.0617 86.7244 93.0617 87.2116C93.0617 87.7022 93.1347 88.1513 93.2805 88.5589C93.4296 88.9666 93.6567 89.2931 93.9616 89.5384C94.2698 89.7836 94.6576 89.9062 95.1249 89.9062ZM105.246 87.8331V83.3636H106.738V91H105.276V89.6776H105.197C105.021 90.0852 104.739 90.425 104.351 90.6967C103.967 90.9652 103.488 91.0994 102.915 91.0994C102.424 91.0994 101.99 90.9917 101.612 90.7763C101.237 90.5575 100.943 90.2344 100.727 89.8068C100.515 89.3793 100.409 88.8506 100.409 88.2209V83.3636H101.895V88.0419C101.895 88.5623 102.04 88.9766 102.328 89.2848C102.616 89.593 102.991 89.7472 103.452 89.7472C103.73 89.7472 104.007 89.6776 104.282 89.5384C104.56 89.3991 104.791 89.1887 104.973 88.907C105.158 88.6252 105.25 88.2673 105.246 87.8331ZM110.292 86.4659V91H108.805V83.3636H110.232V84.6065H110.326C110.502 84.2022 110.777 83.8774 111.152 83.6321C111.53 83.3868 112.005 83.2642 112.579 83.2642C113.099 83.2642 113.555 83.3736 113.946 83.5923C114.337 83.8078 114.64 84.1293 114.855 84.5568C115.071 84.9844 115.179 85.513 115.179 86.1428V91H113.692V86.3217C113.692 85.7682 113.548 85.3357 113.26 85.0241C112.971 84.7093 112.575 84.5518 112.071 84.5518C111.727 84.5518 111.42 84.6264 111.152 84.7756C110.887 84.9247 110.676 85.1435 110.52 85.4318C110.368 85.7169 110.292 86.0616 110.292 86.4659ZM120.807 83.3636V84.5568H116.636V83.3636H120.807ZM117.754 81.5341H119.241V88.7578C119.241 89.0462 119.284 89.2633 119.37 89.4091C119.456 89.5516 119.567 89.6494 119.703 89.7024C119.842 89.7521 119.993 89.777 120.156 89.777C120.275 89.777 120.379 89.7687 120.469 89.7521C120.558 89.7356 120.628 89.7223 120.678 89.7124L120.946 90.9403C120.86 90.9735 120.737 91.0066 120.578 91.0398C120.419 91.0762 120.22 91.0961 119.982 91.0994C119.591 91.1061 119.226 91.0365 118.888 90.8906C118.55 90.7448 118.276 90.5194 118.068 90.2145C117.859 89.9096 117.754 89.5268 117.754 89.0661V81.5341Z" fill="#9CA4AB"/>
<path d="M37.8375 123.818V105.636H39.0023V123.818H37.8375ZM41.1969 111.453C41.1306 110.833 40.8513 110.35 40.3588 110.004C39.8712 109.659 39.2367 109.486 38.4554 109.486C37.9062 109.486 37.4351 109.569 37.0421 109.734C36.6491 109.9 36.3484 110.125 36.1401 110.409C35.9318 110.693 35.8252 111.018 35.8205 111.382C35.8205 111.685 35.8891 111.948 36.0265 112.17C36.1685 112.393 36.3603 112.582 36.6017 112.739C36.8432 112.89 37.1107 113.018 37.4043 113.122C37.6979 113.226 37.9938 113.314 38.2921 113.385L39.6557 113.726C40.205 113.854 40.7329 114.027 41.2395 114.244C41.7509 114.462 42.2078 114.737 42.6103 115.068C43.0175 115.4 43.3394 115.8 43.5762 116.268C43.8129 116.737 43.9313 117.286 43.9313 117.916C43.9313 118.768 43.7135 119.519 43.2779 120.168C42.8423 120.812 42.2125 121.316 41.3887 121.68C40.5695 122.04 39.5776 122.22 38.4128 122.22C37.2812 122.22 36.2987 122.045 35.4654 121.695C34.6368 121.344 33.9881 120.833 33.5194 120.161C33.0553 119.488 32.8044 118.669 32.7665 117.703H35.3588C35.3967 118.21 35.553 118.631 35.8276 118.967C36.1022 119.304 36.4597 119.554 36.9 119.72C37.3451 119.886 37.8423 119.969 38.3915 119.969C38.9644 119.969 39.4663 119.884 39.8972 119.713C40.3328 119.538 40.6737 119.296 40.9199 118.989C41.1661 118.676 41.2916 118.312 41.2963 117.895C41.2916 117.516 41.1803 117.204 40.9625 116.957C40.7447 116.706 40.4393 116.498 40.0463 116.332C39.6581 116.162 39.2035 116.01 38.6827 115.878L37.0279 115.452C35.83 115.144 34.883 114.678 34.187 114.053C33.4957 113.423 33.15 112.587 33.15 111.545C33.15 110.688 33.382 109.938 33.8461 109.294C34.3148 108.65 34.9516 108.151 35.7566 107.795C36.5615 107.436 37.473 107.256 38.4909 107.256C39.5231 107.256 40.4275 107.436 41.204 107.795C41.9853 108.151 42.5984 108.645 43.0435 109.28C43.4886 109.91 43.7182 110.634 43.7324 111.453H41.1969ZM52.1545 107.455V122H49.5196V110.018H49.4343L46.0324 112.192V109.777L49.6474 107.455H52.1545ZM55.6849 119.301V117.206L61.8568 107.455H63.6039V110.438H62.5386L58.3838 117.021V117.135H66.9988V119.301H55.6849ZM62.6238 122V118.662L62.6522 117.724V107.455H65.138V122H62.6238ZM72.0047 120.011L71.9124 120.793C71.8461 121.389 71.7277 121.995 71.5573 122.611C71.3916 123.231 71.2164 123.802 71.0317 124.322C70.8471 124.843 70.6979 125.253 70.5843 125.551H68.8513C68.9176 125.262 69.0076 124.869 69.1212 124.372C69.2396 123.875 69.3532 123.316 69.4621 122.696C69.571 122.076 69.6444 121.446 69.6823 120.807L69.732 120.011H72.0047ZM74.9563 122V120.097L80.006 115.146C80.489 114.659 80.8914 114.225 81.2134 113.847C81.5354 113.468 81.7768 113.101 81.9378 112.746C82.0988 112.391 82.1793 112.012 82.1793 111.609C82.1793 111.15 82.0751 110.757 81.8668 110.43C81.6585 110.099 81.372 109.843 81.0074 109.663C80.6428 109.483 80.2285 109.393 79.7645 109.393C79.2863 109.393 78.8673 109.493 78.5074 109.692C78.1476 109.886 77.8682 110.163 77.6694 110.523C77.4752 110.883 77.3782 111.311 77.3782 111.808H74.8711C74.8711 110.885 75.0818 110.082 75.5032 109.401C75.9246 108.719 76.5046 108.191 77.2432 107.817C77.9866 107.443 78.8389 107.256 79.8 107.256C80.7754 107.256 81.6324 107.438 82.3711 107.803C83.1097 108.167 83.6826 108.667 84.0898 109.301C84.5017 109.936 84.7077 110.66 84.7077 111.474C84.7077 112.019 84.6035 112.554 84.3952 113.08C84.1869 113.605 83.8199 114.187 83.2944 114.827C82.7735 115.466 82.042 116.24 81.0998 117.149L78.5927 119.699V119.798H84.9279V122H74.9563ZM92.8546 122.277C91.6851 122.277 90.6813 121.981 89.8432 121.389C89.0099 120.793 88.3683 119.933 87.9185 118.811C87.4734 117.684 87.2509 116.328 87.2509 114.741C87.2556 113.155 87.4805 111.806 87.9256 110.693C88.3754 109.576 89.017 108.723 89.8503 108.136C90.6884 107.549 91.6898 107.256 92.8546 107.256C94.0194 107.256 95.0208 107.549 95.8588 108.136C96.6969 108.723 97.3385 109.576 97.7836 110.693C98.2334 111.811 98.4583 113.16 98.4583 114.741C98.4583 116.332 98.2334 117.691 97.7836 118.818C97.3385 119.94 96.6969 120.797 95.8588 121.389C95.0255 121.981 94.0241 122.277 92.8546 122.277ZM92.8546 120.054C93.7637 120.054 94.481 119.607 95.0066 118.712C95.5369 117.812 95.802 116.489 95.802 114.741C95.802 113.586 95.6813 112.616 95.4398 111.83C95.1983 111.044 94.8574 110.452 94.4171 110.054C93.9767 109.652 93.4559 109.45 92.8546 109.45C91.9502 109.45 91.2353 109.9 90.7097 110.8C90.1841 111.695 89.919 113.009 89.9142 114.741C89.9095 115.902 90.0255 116.877 90.2623 117.668C90.5037 118.458 90.8446 119.055 91.285 119.457C91.7253 119.855 92.2485 120.054 92.8546 120.054ZM106.294 122.277C105.125 122.277 104.121 121.981 103.283 121.389C102.45 120.793 101.808 119.933 101.358 118.811C100.913 117.684 100.691 116.328 100.691 114.741C100.695 113.155 100.92 111.806 101.365 110.693C101.815 109.576 102.457 108.723 103.29 108.136C104.128 107.549 105.13 107.256 106.294 107.256C107.459 107.256 108.461 107.549 109.299 108.136C110.137 108.723 110.778 109.576 111.223 110.693C111.673 111.811 111.898 113.16 111.898 114.741C111.898 116.332 111.673 117.691 111.223 118.818C110.778 119.94 110.137 120.797 109.299 121.389C108.465 121.981 107.464 122.277 106.294 122.277ZM106.294 120.054C107.204 120.054 107.921 119.607 108.446 118.712C108.977 117.812 109.242 116.489 109.242 114.741C109.242 113.586 109.121 112.616 108.88 111.83C108.638 111.044 108.297 110.452 107.857 110.054C107.417 109.652 106.896 109.45 106.294 109.45C105.39 109.45 104.675 109.9 104.15 110.8C103.624 111.695 103.359 113.009 103.354 114.741C103.349 115.902 103.465 116.877 103.702 117.668C103.944 118.458 104.284 119.055 104.725 119.457C105.165 119.855 105.688 120.054 106.294 120.054ZM115.404 122.156C114.973 122.156 114.603 122.005 114.296 121.702C113.988 121.399 113.836 121.029 113.841 120.594C113.836 120.168 113.988 119.803 114.296 119.5C114.603 119.197 114.973 119.045 115.404 119.045C115.82 119.045 116.183 119.197 116.49 119.5C116.803 119.803 116.961 120.168 116.966 120.594C116.961 120.883 116.886 121.145 116.739 121.382C116.597 121.619 116.407 121.808 116.171 121.95C115.939 122.088 115.683 122.156 115.404 122.156ZM124.502 122.277C123.333 122.277 122.329 121.981 121.491 121.389C120.658 120.793 120.016 119.933 119.566 118.811C119.121 117.684 118.899 116.328 118.899 114.741C118.903 113.155 119.128 111.806 119.573 110.693C120.023 109.576 120.665 108.723 121.498 108.136C122.336 107.549 123.337 107.256 124.502 107.256C125.667 107.256 126.668 107.549 127.507 108.136C128.345 108.723 128.986 109.576 129.431 110.693C129.881 111.811 130.106 113.16 130.106 114.741C130.106 116.332 129.881 117.691 129.431 118.818C128.986 119.94 128.345 120.797 127.507 121.389C126.673 121.981 125.672 122.277 124.502 122.277ZM124.502 120.054C125.411 120.054 126.129 119.607 126.654 118.712C127.185 117.812 127.45 116.489 127.45 114.741C127.45 113.586 127.329 112.616 127.087 111.83C126.846 111.044 126.505 110.452 126.065 110.054C125.624 109.652 125.104 109.45 124.502 109.45C123.598 109.45 122.883 109.9 122.357 110.8C121.832 111.695 121.567 113.009 121.562 114.741C121.557 115.902 121.673 116.877 121.91 117.668C122.151 118.458 122.492 119.055 122.933 119.457C123.373 119.855 123.896 120.054 124.502 120.054ZM137.942 122.277C136.773 122.277 135.769 121.981 134.931 121.389C134.097 120.793 133.456 119.933 133.006 118.811C132.561 117.684 132.338 116.328 132.338 114.741C132.343 113.155 132.568 111.806 133.013 110.693C133.463 109.576 134.104 108.723 134.938 108.136C135.776 107.549 136.777 107.256 137.942 107.256C139.107 107.256 140.108 107.549 140.946 108.136C141.784 108.723 142.426 109.576 142.871 110.693C143.321 111.811 143.546 113.16 143.546 114.741C143.546 116.332 143.321 117.691 142.871 118.818C142.426 119.94 141.784 120.797 140.946 121.389C140.113 121.981 139.112 122.277 137.942 122.277ZM137.942 120.054C138.851 120.054 139.569 119.607 140.094 118.712C140.624 117.812 140.89 116.489 140.89 114.741C140.89 113.586 140.769 112.616 140.527 111.83C140.286 111.044 139.945 110.452 139.505 110.054C139.064 109.652 138.543 109.45 137.942 109.45C137.038 109.45 136.323 109.9 135.797 110.8C135.272 111.695 135.006 113.009 135.002 114.741C134.997 115.902 135.113 116.877 135.35 117.668C135.591 118.458 135.932 119.055 136.372 119.457C136.813 119.855 137.336 120.054 137.942 120.054Z" fill="#1F2C37"/>
</g>
<defs>
<filter id="filter0_d_6536_8234" x="0.857422" y="0" width="325" height="290" filterUnits="userSpaceOnUse" color-interpolation-filters="sRGB">
<feFlood flood-opacity="0" result="BackgroundImageFix"/>
<feColorMatrix in="SourceAlpha" type="matrix" values="0 0 0 0 0 0 0 0 0 0 0 0 0 0 0 0 0 0 127 0" result="hardAlpha"/>
<feOffset dx="65" dy="65"/>
<feGaussianBlur stdDeviation="40"/>
<feComposite in2="hardAlpha" operator="out"/>
<feColorMatrix type="matrix" values="0 0 0 0 0.137255 0 0 0 0 0.137255 0 0 0 0 0.137255 0 0 0 0.24 0"/>
<feBlend mode="normal" in2="BackgroundImageFix" result="effect1_dropShadow_6536_8234"/>
<feBlend mode="normal" in="SourceGraphic" in2="effect1_dropShadow_6536_8234" result="shape"/>
</filter>
</defs>
</svg>
