<svg width="35" height="34" viewBox="0 0 35 34" fill="none" xmlns="http://www.w3.org/2000/svg">
<circle cx="17.2861" cy="17" r="17" fill="#3751FF"/>
<path d="M17.4739 10.665C18.791 10.665 19.9506 10.8726 20.9527 11.2878C21.9691 11.6886 22.8495 12.2827 23.5939 13.0701L21.8116 15.4537C21.196 14.8095 20.5303 14.3299 19.8146 14.0149C19.1131 13.6857 18.3114 13.521 17.4095 13.521C16.8798 13.521 16.4503 13.5783 16.1211 13.6928C15.7918 13.8074 15.5556 13.9648 15.4125 14.1652C15.2693 14.3657 15.1977 14.5947 15.1977 14.8524C15.1977 15.153 15.3337 15.4107 15.6057 15.6255C15.892 15.8259 16.3501 15.9977 16.98 16.1408L19.3636 16.6777C20.7809 17.0069 21.8188 17.4865 22.4773 18.1164C23.1358 18.7463 23.4651 19.5838 23.4651 20.6288C23.4651 21.6309 23.2074 22.4827 22.692 23.1842C22.1767 23.8714 21.468 24.3939 20.5661 24.7518C19.6642 25.0954 18.6335 25.2671 17.4739 25.2671C16.5291 25.2671 15.6272 25.1669 14.7682 24.9665C13.9093 24.7518 13.1362 24.4511 12.4491 24.0646C11.7619 23.6781 11.1821 23.2343 10.7097 22.7332L12.492 20.2638C12.8499 20.6789 13.2866 21.0511 13.8019 21.3804C14.3316 21.6954 14.9042 21.9459 15.5198 22.132C16.1497 22.3181 16.7868 22.4111 17.431 22.4111C17.932 22.4111 18.3472 22.361 18.6765 22.2608C19.02 22.1606 19.2706 22.0103 19.428 21.8099C19.5855 21.6095 19.6642 21.3732 19.6642 21.1012C19.6642 20.8006 19.5569 20.5501 19.3421 20.3497C19.1274 20.1349 18.7194 19.956 18.1181 19.8128L15.4983 19.233C14.6967 19.0469 13.9809 18.8036 13.351 18.5029C12.7354 18.188 12.2487 17.7728 11.8908 17.2575C11.5329 16.7278 11.3539 16.0693 11.3539 15.2819C11.3539 14.3943 11.5973 13.6069 12.084 12.9198C12.5708 12.2183 13.2722 11.6671 14.1885 11.2663C15.1047 10.8655 16.1998 10.665 17.4739 10.665Z" fill="white"/>
</svg>
